<?xml version="1.0" encoding="utf-8"?>
<!-- Generator: Adobe Illustrator 24.3.0, SVG Export Plug-In . SVG Version: 6.00 Build 0)  -->
<svg version="1.1" id="Layer_1" xmlns="http://www.w3.org/2000/svg" xmlns:xlink="http://www.w3.org/1999/xlink" x="0px" y="0px"
	 viewBox="0 0 137 192" style="enable-background:new 0 0 137 192;" xml:space="preserve">
<style type="text/css">
	.st0{fill:#FFFFFF;}
</style>
<g id="surface1">
	<path class="st0" d="M96,2.5c0.4,0.4,0.9,0.7,1.3,0.8c1.6,0.7,2.8,1.1,3.7,1.3c1.7,0.3,3.2,1.5,4.4,3.4l2.3,3.3
		c1.1,0.5,2.2,1.7,3.3,3.6c0.8,1.4,1.4,2.8,2,4.2c1,2.6,0.9,5.9-0.1,10c-0.5,2-1.1,3.8-1.8,5.3c-0.3-2.4-1.3-4.6-2.9-6.4l-3.2-3
		c1-0.6,1.8-1.3,2.6-2.1c1-1,1.4-2,1.3-2.8c-0.1-1.2-0.4-2.1-1-3c-0.8-1.2-2-1.8-3.5-1.9h-1l-3.1,0.8c-1.4,0.5-2.3,0.7-2.7,0.7
		l-0.3,0c-0.2-0.1-1.1-1.1-2.7-3.1c-1.5-1.9-2.8-2.9-3.8-3l-0.7,0.1l-1.6,0.8c-0.8,0.5-1.3,0.8-1.5,0.8c-0.1,0.1-0.7,0.4-1.9,1
		c-0.6,0.3-1.1,0.4-1.4,0.4l-0.5-0.2l-1.1-0.7l-1.1-0.6L80,11.8c-0.6,0-1.3,0.2-2.1,0.5c-0.6,0.3-1.6,1.2-3,2.8l-2.3,2.4
		c-1.3,0.9-2.5,1.3-3.6,1.3c-0.8,0-1.4-0.3-2-1c-1-1.1-1.6-2.4-1.9-4.1c-0.3-1.6-0.1-3,0.4-4.2c0.4-1,1-1.8,1.8-2.4
		c-0.2,1.1,0.1,1.9,0.7,2.5c0.7,0.7,1.6,1.1,2.6,1.2c1.4,0.1,2.7-0.4,3.9-1.5c2.8-2.8,4.7-4.2,5.7-4.4l1,0l2.1,0.5
		c0.8,0.3,1.4,0.5,1.6,0.6c0.5,0,0.9-0.1,1.2-0.4l1.7-2C89.7,1.2,90.9,0,91.6,0h0.3c0.8,0,1.8,0.5,3,1.5L96,2.5 M106.6,19.6
		c0.4,1.8-0.5,3.3-3,4.5l-0.4,0.3c-0.2,0.3-0.1,0.5,0.3,0.8l3.9,3.2c2.1,2.3,3,4.8,2.8,7.6c-0.8-2.3-1.8-4.3-3-5.9
		c-1.7-2-2.7-3.1-3.3-3.3l-0.3-0.1L103,27c-0.1,0.2,0,0.4,0.2,0.6l1,1l2.1,2.2c0.9,1,1.7,2.2,2.4,3.6l1.3,2.9l-0.3,1l-1.2-2.6
		c-0.7-1.3-1.4-2.3-2.1-3.2c-1-1.1-1.9-1.9-2.7-2.3l-0.2,0c-0.3,0-0.4,0.1-0.4,0.4c0,0.3,0.1,0.6,0.5,0.9l2,1.8l2.4,3.5l1.3,2.4v0
		c-0.1,0.3-0.1,0.6,0,0.9l-1.5-0.6l0.1,0.6c1.9,1.7,2.3,3.7,1.2,5.9c-1.1,2.2-2.9,3.2-5.4,3.1l-0.7-0.1c-2.9,4.4-6.3,7.7-10.3,9.9
		c-0.4,0.2-0.6,0.4-0.6,0.6c0,0.1,0.2,0.2,0.6,0.3c1.2,0.1,2.6-0.3,4.3-1.3c-0.4,2.1-2,4-4.9,5.5c-2.6,1.4-5.2,2-7.6,1.9
		c-1-0.1-1.9-0.4-2.6-0.9l0.2,0l2.9-0.4c1.3-0.3,2-0.6,1.9-0.8l-0.2-0.1l-1,0h-1.8c-2.4-0.2-5-1-7.9-2.5C71,58.4,67.4,54.1,65.3,48
		c-2.1-5.7-2.3-11.5-0.6-17.4c1-3.6,2.7-7.2,5.3-10.8c1.1-0.1,2.3-0.6,3.5-1.5l2.3-2.5l2.9-2.7l0.9-0.1c0.9,0.1,1.8,0.5,2.9,1.3
		c0.5,0.3,1,0.4,1.6,0.5c1,0.1,2.3-0.3,3.8-1l2.2-0.3c1.9,0.1,3.7,1.2,5.2,3.2c0.5,0.6,1.1,1,1.9,1l2.3-0.3l3.9-0.6h0.3
		C105.2,17,106.2,17.9,106.6,19.6 M95.1,25.6c0.2-0.7-0.2-1.8-1.3-3.2L92,20.5l-0.4-0.2c-0.3-0.1-0.5,0.1-0.7,0.3l-0.7,0.8
		c-0.4,0.5-0.6,0.9-0.5,1.1c0,0.1,0.3,0.2,0.8,0.4l1.6,0.8l1.8,1.2L95.1,25.6L95.1,25.6 M105.6,35.2c-0.5-0.6-1.2-1.2-2-1.6h-0.1
		c-0.2,0-0.4,0.1-0.5,0.3c-0.1,0.3,0,0.5,0.3,0.8l0.1,0.1l1.5,1.2l1.1,1.3c0.4,0.6,0.7,0.9,0.8,0.9l0.2-0.2l-0.3-1.3L105.6,35.2
		 M102.7,37.1c-0.1,0.3,0,0.5,0.2,0.6l0.6,0.5l0.6,1c0,0.3,0.2,0.5,0.5,0.5l0.4-0.1l0.1-0.5c0-0.5-0.2-0.9-0.6-1.3l-1-0.9l-0.3-0.1
		C103,36.8,102.8,36.9,102.7,37.1 M91.8,44.2l-4.1-3.4l-0.3-0.1c-0.2-0.1-0.3,0.1-0.1,0.4l0.4,1.4c0.1,0.2,0,0.4-0.3,0.7
		c-0.2,0.2-0.4,0.3-0.7,0.4c-4.1,1.2-7.1,1.8-9,1.9h-1.2l-4.5-0.8l-2.3-0.6l-0.6-0.4l-0.2-0.6l0.1-0.6c0.1-0.3,0-0.4-0.1-0.4
		l-0.3,0.2L67,44.1c-0.4,0.4-0.5,0.9-0.2,1.4l1.6,3l0.3,0.3c0.1,0,0.1-0.1,0.2-0.4v-0.4c0.1-0.5,0.3-0.7,0.6-0.6l0.2,0l2.6,1.8
		c2.1,1.2,4.1,1.9,5.8,2h0c1.8,0.1,4.2-0.5,7.2-2c1.5-0.7,2.8-1.5,4-2.2l0.4,0c0.4,0.1,0.7,0.2,0.9,0.5l-0.1,2l0.3,0.3
		c0.1,0.1,0.2-0.1,0.3-0.3l1.1-3.8l0-0.7L91.8,44.2 M103.1,59.2c1,3.1,0.4,6-1.6,8.7c-0.7,0.9-1.6,1.7-2.8,2.5
		c-0.4,0.2-1.5,0.8-3.4,1.8c-0.1,0.1-0.2,0.4,0,1.1l3.4,13.1c1.2,5,2,9.4,2.3,13.3v3.9c-0.1,1.7,0,3,0.2,3.9c0.1,0.6,0.3,1,0.6,1.2
		l1.3-0.1c3.2-1.3,6.2-3.2,9.2-5.8l1.5,10.5l0,0c-2.6,3.4-6.5,6.1-11.7,8.2c-4.2,1.7-8.8,2.8-14,3.4c-5.1,0.6-10,0.4-14.8-0.8
		c-4.5-1.1-8.2-2.8-11.1-5.1l0.5-6.7l0.2-6.9c4,3.2,9,5.3,14.9,6.3c6.7,1.1,10.3,1,10.6-0.3c0.4-1.8,0.6-4.2,0.4-7l-0.7-7
		c-0.5-6.7-1.6-14.2-3.2-22.6l-0.3-1c-0.1-0.4-0.4-0.6-0.6-0.8L81,72l-2.9-0.9c-2.7-1.1-4.8-2.7-6.6-4.7c-1.9-2.2-2.9-4.6-3-7.3
		c0-0.3-0.1-0.5-0.3-0.9l1-0.2c1.9,1.7,4.1,3.1,6.6,4.2c0.7,1.6,1.8,2.9,3.3,3.8c1.4,0.8,3,1.3,4.9,1.5c3.6,0.3,7.1-0.6,10.2-2.8
		c2.8-1.9,4.5-4.1,5.1-6.8L103.1,59.2L103.1,59.2 M100,71.8c1.4-1,2.5-2.2,3.3-3.5c1.4-2.4,1.6-5.3,0.7-8.8
		c5.3,1.9,10.4,4.5,15.1,7.7c6.6,4.5,11.7,9.7,15.3,15.7l1.8,3.2c0.6,1.4,0.8,2.5,0.6,3.4l-1.8,5.3c-2.5,6.4-6,11.6-10.5,15.8
		c-1.4-2-3-3.4-4.8-4.5c-2.1-1.2-4.2-1.4-6.2-0.9l-0.4-2.3c-0.1-0.3-0.1-0.6,0-0.9l0-0.6l0.5-2.3l1.4-3.7c1.2-2.7,2.6-4.9,4.5-6.5
		c0.2-0.2,0.1-0.6-0.1-1.2c-0.2-0.6-0.4-0.8-0.6-0.7c-2.1,2-3.8,4.6-5,7.9c-0.6,1.6-1,3.1-1.3,4.3l-2.7-19.1l0-0.2
		c-0.1-0.5-0.2-0.8-0.5-1c-0.3-0.2-0.3,0-0.3,0.6l3,21l-3.9,3.1c-3,2.1-5,3.2-6.1,3.3c0-6.1-0.7-12.4-2.1-18.8l-1.9-7.4L96.1,74
		C97.9,73.1,99.2,72.3,100,71.8 M113.5,107.2c2.1-0.7,4.2-0.5,6.3,0.6c1.7,0.9,3.2,2.3,4.5,4.1c0.3,1.6-0.2,3.1-1.5,4.6
		c-1.3,1.5-2.8,2.3-4.6,2.4c-0.2,0-0.2,0.4-0.1,1c0.1,0.6,0.3,1,0.5,1l0.1,0h0.1l1.5,0.4c0.9,0.3,1.3,0.6,1.3,0.9
		c-0.1,1.1-1.1,1.9-2.8,2.3l-3.3,0.2l-0.8-9.1L113.5,107.2 M114,115.5c1.2,12.4,1.2,23.4,0,32.9c-0.5,3.9-1.3,8.3-2.5,13.4
		l-3.1,13.2l-0.5,2.1c-0.9,0.7-2.3,1.3-4.3,1.6c-2.3,0.5-5,0.5-8.2,0.1l-7.5-1.4c0.4-7.5,0.6-13.2,0.7-17.1
		c0.1-7.2-0.3-13.4-1.5-18.4c1.4-3.2,3-5.8,4.5-8c0.2-0.2,0.1-0.6-0.1-1.2c-0.3-0.6-0.4-0.8-0.5-0.6c-1.9,2.6-3.6,5.7-5.2,9.5
		c-1,2.2-2.3,5.6-3.9,10.1L78.5,162c-1.4,4.2-2.6,7.6-3.9,10.2c-1.6,3.5-3.2,6.1-4.7,7.8c-0.9,1-2.2,1.6-3.9,2.1H66l-6.2,0.3
		c-2.4-0.2-4.8-0.9-7.2-2.3l-2-1.3l-0.6-0.6l0-1.1c0-2.6,0.5-5.8,1.6-9.6l2.9-9.3c1.9-6.8,3.7-14.3,5.2-22.5
		c1-5.6,1.8-10.8,2.4-15.6c2.9,2.5,6.6,4.3,11.1,5.4c4.6,1.2,9.5,1.5,14.6,1.1c5.2-0.4,10.1-1.5,14.5-3.3
		C107.3,121.5,111.3,118.8,114,115.5 M108.2,179l0.3,0.2c4.5,1.7,7.9,3.7,10.4,6l0.3-0.3c0.1-0.1,0.2,0,0.2,0.3l-0.4,0l0,0l-0.7,0.4
		c-0.8,0.5-2,0.8-3.6,1c-3,0.5-6.3,0.3-9.8-0.6c-3.3-0.8-6.4-2.1-9.2-3.8l-0.2,0l-1,1c-0.5,0.5-1.8,0.3-3.9-0.6
		c-0.9-0.3-1.4-0.8-1.5-1.3l0-1.9c5.9,1.3,10.7,1.7,14.4,1.3C105.8,180.6,107.4,180,108.2,179 M12.5,49.9l2.7-0.3
		c1.3,0.1,2,0.5,2,1.2c0,1.2-0.2,3.1-0.7,5.5c-0.2,2.1,0.3,3.8,1.6,5.1l2.5,1.8l2.7,1.6c1.9,1.2,3,2.9,3.4,4.9
		c0.3,1.9-0.2,3.7-1.4,5.4l-0.1,0.1L25,75.3c-0.2,0.2-0.1,0.6,0.1,1.2c0.2,0.6,0.4,0.9,0.6,0.7l1-1.3c0.1,1.4,0.1,2.7-0.3,4
		c-0.5,1.9-1.4,3.6-2.7,4.9c-1.7,1.7-4,2.5-7,2.5c-2.8,0-5.2-0.8-7.1-2.3c-2.7-2.2-2.3-3.8,1-4.9c2.6-0.8,5.1-1.1,7.7-0.9
		c1.3,0.1,2.4,0.5,3.2,1.1c0.9,0.8,0.7,1.5-0.6,2.4c-1.2,0.7-2.5,1-4.2,0.9c-1.4-0.1-2.7-0.5-4.1-1.2c-0.2-0.1-0.2,0.2-0.1,0.9
		c0.1,0.6,0.2,1,0.5,1.1c1.7,0.8,3.4,1.2,5,1.2c1.9,0,3.5-0.6,4.7-1.9c0.5-0.5,0.6-1.4,0.4-2.4c-0.2-0.9-0.5-1.6-0.9-2.2
		c0.4-0.4,0.6-1,0.7-1.7c0.1-0.9-0.1-2-0.6-3.1c-0.3-0.7-0.8-1.3-1.5-1.9c0.3-0.4,0.5-0.9,0.6-1.5c0.1-1-0.1-2.1-0.6-3.2
		c-1.1-2.3-3.8-3.6-8.2-3.8h-0.3v-0.1c0-0.9-0.4-1.8-1.1-2.8c-1.2-1.6-1.9-3-2.2-4.3c-0.4-1.6-0.2-3.1,0.7-4.6
		C10.3,51.2,11.2,50.4,12.5,49.9 M9.5,73l3.5-0.4c2.5-0.2,4.7,0.1,6.5,0.8l0.1,0l1,0.4c0.9,0.5,1.4,1.2,1.6,2
		c0.2,0.9-0.3,1.6-1.4,1.9l-0.1,0.1c-0.8-0.4-1.6-0.6-2.6-0.7c-1.1-0.1-2.6-0.1-4.7,0.1c-2.3,0.2-4,0.8-4.9,1.7L8,78.7
		c-1.1-0.5-1.9-1.1-2.2-1.7c-0.4-0.7-0.2-1.5,0.6-2.4C7,73.9,8,73.3,9.5,73 M10.9,66l0.6-0.1c3.1-0.2,5.6,0.2,7.5,1.3
		c1,0.5,1.5,1.3,1.6,2.1c0.1,0.9-0.4,1.6-1.6,2l0,0c-1.3-0.5-2.9-0.8-4.8-0.9c-4-0.1-6.7,0.5-8.2,1.9c-2.2-1.9-2.4-3.4-0.6-4.7
		c1.2-0.9,3-1.5,5.3-1.7H10.9 M74.5,19.9L74,20l-3.5,1.8l-0.3,0.3c0,0.1,0.1,0.2,0.4,0.2l3.6,0.1c0.3,0,0.5-0.1,0.7-0.3
		c0.2-0.2,0.3-0.5,0.3-0.8l-0.1-0.9C75,20.1,74.8,19.9,74.5,19.9 M81.6,27.9l-0.3-0.3h0c-0.3-0.1-0.5,0.2-0.8,0.6l-2,3.3l-2.2,2.6
		l-1.5,1.6c-0.4,0.4-0.4,0.8-0.2,1.4l1.7,3c0.3,0.3,0.7,0.5,1.1,0.6l1-0.2c0.2,0,0.4-0.1,0.5-0.3c0.1-0.2,0.1-0.4-0.1-0.6l-1.4-2.3
		l-0.2-0.7l0.2-0.7l2.1-3.3c0.8-1.3,1.5-2.7,2.1-4.2L81.6,27.9 M91.3,29c-0.3-0.6-0.6-0.9-1-1h0c-0.4,0-0.8,0.2-1.2,0.8
		c-0.4,0.5-0.6,1.2-0.7,2c-0.1,0.8,0,1.5,0.3,2.1c0.3,0.6,0.6,0.9,1,1c0.4,0.1,0.8-0.2,1.2-0.7c0.3-0.5,0.6-1.2,0.7-2
		C91.6,30.3,91.5,29.6,91.3,29 M68.3,19.7l-2.8,4.6c-0.7-1.5-1-2.5-1-3c-0.1-0.9,0-1.7,0.2-2.3c0.3-0.7,0.6-1,1-1
		c0.2,0,0.4,0.1,0.7,0.4C66.9,19,67.6,19.4,68.3,19.7 M73,27.7c-0.3-0.6-0.6-0.9-1-1h0c-0.4,0-0.8,0.2-1.2,0.7
		c-0.4,0.6-0.6,1.3-0.7,2c-0.1,0.8,0,1.5,0.3,2.1c0.2,0.6,0.6,0.9,1,1c0.4,0.1,0.8-0.2,1.2-0.7c0.4-0.5,0.6-1.2,0.6-2
		C73.3,29,73.2,28.3,73,27.7 M69.6,44.9h0.1l2.3,0.6l4.8,0.8l1.2,0c2.3,0,5.3-0.6,9-1.8l1-0.1c0.4,0.1,0.8,0.2,1.1,0.5
		c0.3,0.3,0.4,0.6,0.2,1c-0.1,0.2-0.4,0.4-0.7,0.6c-3.3,1.4-5.6,2.3-6.8,2.6l-4.3,0.3c-1.2-0.1-2.1-0.3-2.7-0.5l-5.2-2.2
		c-0.4-0.1-0.7-0.5-0.7-1C68.7,45.1,69,44.9,69.6,44.9 M75.1,53l1.4,0.9c0.2,0.1,0.6,0.2,1.1,0.3l1.5-0.1l0.6-0.3
		c0.2-0.2,0.2-0.4,0.2-0.6c-0.1-0.4-0.3-0.7-0.9-0.7l-3.9,0.2l-0.4,0.2L75.1,53 M28.5,66.7c6.4,1.7,13.4,1.3,21.1-1.2
		c1.6-0.5,4.8-1.8,9.9-4.1c3.2-1.4,6-2.5,8.3-3.1c0.3,4.1,1.8,7.6,4.7,10.6c1.3,1.3,3.1,2.6,5.4,3.7c0.8,0.4,1.9,0.8,3.3,1.2l3,0.9
		c0.9,4.8,1.6,9.1,2.1,12.8l1.2,10.2c0.3,3.9,0.4,7.3,0.2,10.2c-0.1,1.4-1.2,2.1-3.3,2.2l-4.8-0.4c-2.5-0.2-5.3-0.8-8.4-1.9
		c-3.3-1.2-6.1-2.7-8.5-4.5c-0.1-5.2-0.7-10.2-1.5-15c2.1-0.6,4.1-1.3,5.8-2.1c0.3-0.1,0.3-0.5,0.1-1.1c-0.2-0.7-0.4-1-0.6-0.9
		c-2.9,1.4-6.9,2.5-11.7,3.3c-8.9,1.6-18,1.2-27.3-1c0.7-0.4,1.4-1,2-2c0.9-1.4,1.4-3.1,1.6-5.2c0.3-2.6,0.2-5.2-0.4-7.7
		C30.2,70,29.5,68.3,28.5,66.7 M27.5,66.8c1.4,1.8,2.2,3.9,2.6,6.2c0.4,2.2,0.3,4.4-0.2,6.7c-0.3,1.5-0.9,2.8-1.7,3.8
		c-0.8,0.9-1.6,1.4-2.5,1.6c0.4-0.6,0.7-1.3,1-2.1c0.9-2.6,1.1-5.3,0.4-8.3c0.5-1.3,0.6-2.7,0.5-4.2c-0.1-1.7-0.6-3.2-1.4-4.5
		l1.1,0.3L27.5,66.8 M65.2,184.4l0.3,0c-0.5,1.5-1.6,2.9-3.2,4.1c-1.7,1.3-3.8,2.4-6.5,3.2c-2.9,1-5-0.1-6.3-3.1
		c-1.2-3-0.7-5.4,1.6-7.2c2,1.5,4.8,2.5,8.4,3C61.5,184.7,63.3,184.7,65.2,184.4"/>
</g>
</svg>
