<?xml version="1.0" encoding="utf-8"?>
<!-- Generator: Adobe Illustrator 24.3.0, SVG Export Plug-In . SVG Version: 6.00 Build 0)  -->
<svg version="1.1" id="Layer_1" xmlns="http://www.w3.org/2000/svg" xmlns:xlink="http://www.w3.org/1999/xlink" x="0px" y="0px"
	 viewBox="0 0 137 192" style="enable-background:new 0 0 137 192;" xml:space="preserve">
<style type="text/css">
	.st0{fill:#FFFFFF;}
</style>
<g id="surface1">
	<path class="st0" d="M101.1,4.6c1.7,0.3,3.2,1.5,4.4,3.4l2.3,3.3c1.1,0.5,2.2,1.7,3.3,3.6c0.8,1.4,1.4,2.8,2,4.2
		c1,2.6,0.9,5.9-0.1,10c-0.5,2-1.1,3.8-1.8,5.3c-0.3-2.4-1.3-4.6-2.9-6.4l-3.2-3c1-0.6,1.8-1.3,2.6-2.1c1-1,1.4-2,1.3-2.8
		c-0.1-1.2-0.4-2.1-1-3c-0.8-1.2-2-1.8-3.5-1.9h-1l-3.1,0.8c-1.4,0.5-2.3,0.7-2.7,0.7l-0.3,0c-0.2-0.1-1.1-1.1-2.7-3.1
		c-1.5-1.9-2.8-2.9-3.8-3l-0.7,0.1l-1.6,0.8c-0.8,0.5-1.3,0.8-1.5,0.8c-0.1,0.1-0.7,0.4-1.9,0.9c-0.6,0.3-1.1,0.4-1.4,0.4l-0.5-0.2
		l-1.1-0.7l-1.1-0.6l-1.1-0.3c-0.6,0-1.3,0.2-2.1,0.5c-0.6,0.3-1.6,1.2-3,2.8l-2.3,2.4c-1.3,0.9-2.5,1.3-3.6,1.3
		c-0.8,0-1.4-0.3-1.9-1c-1-1.1-1.6-2.4-1.9-4.1c-0.3-1.6-0.1-3,0.4-4.2c0.4-1,1-1.8,1.8-2.4c-0.2,1.1,0.1,1.9,0.7,2.5
		c0.7,0.7,1.6,1.1,2.6,1.2c1.4,0.1,2.7-0.4,3.9-1.5c2.8-2.8,4.7-4.2,5.7-4.4l1,0l2.1,0.5c0.8,0.3,1.4,0.5,1.6,0.6
		c0.5,0,0.9-0.1,1.2-0.4l1.7-2C89.8,1.2,91,0,91.7,0H92c0.8,0,1.8,0.5,3,1.5l1.1,1c0.4,0.4,0.9,0.6,1.3,0.8
		C98.9,4,100.2,4.4,101.1,4.6 M106.7,19.6c0.4,1.8-0.5,3.3-3,4.5l-0.4,0.3c-0.2,0.3-0.1,0.5,0.3,0.8l3.9,3.2c2.1,2.3,3,4.8,2.8,7.6
		c-0.8-2.3-1.8-4.3-3-5.9c-1.6-2-2.7-3.1-3.3-3.3l-0.3-0.1l-0.6,0.3c-0.1,0.2,0,0.4,0.2,0.6l1,1l2.1,2.2c1.2,1.4,2.4,3.5,3.6,6.5
		l-0.3,1l-1.2-2.6c-0.7-1.3-1.4-2.3-2.1-3.2c-1-1.1-1.9-1.9-2.7-2.3l-0.2,0c-0.3,0-0.4,0.1-0.4,0.4c0,0.3,0.1,0.6,0.5,0.9l2,1.8
		l2.4,3.5l1.3,2.4v0c-0.1,0.3-0.1,0.6,0,0.9l-1.5-0.6l0.1,0.6c1.9,1.7,2.3,3.7,1.2,5.9c-1.1,2.2-2.9,3.2-5.4,3.1l-0.7-0.1
		c-2.9,4.4-6.3,7.7-10.3,9.9c-0.4,0.2-0.6,0.4-0.6,0.6c0,0.1,0.2,0.2,0.6,0.3c1.2,0.1,2.6-0.3,4.3-1.3c-0.4,2.1-2,4-4.9,5.5
		c-2.6,1.4-5.2,2-7.6,1.9c-1-0.1-1.9-0.4-2.6-0.9l0.2,0l2.9-0.4c1.3-0.3,1.9-0.6,1.9-0.8L87,63.6l-1,0h-1.8c-2.4-0.2-5-1-7.9-2.5
		c-5.1-2.7-8.8-7.1-10.9-13.1c-2.1-5.7-2.3-11.5-0.6-17.4c1-3.6,2.7-7.2,5.3-10.8c1.1-0.1,2.3-0.6,3.5-1.5l2.3-2.5l2.9-2.7l0.9-0.1
		c0.9,0.1,1.8,0.5,2.9,1.3c0.5,0.3,1,0.4,1.6,0.5c1,0.1,2.3-0.3,3.8-1l2.2-0.3c1.9,0.1,3.7,1.2,5.2,3.2c0.5,0.6,1.1,1,1.9,1l2.3-0.3
		l3.9-0.6h0.3C105.3,17,106.3,17.9,106.7,19.6 M95.1,25.6L95.1,25.6c0.3-0.7-0.2-1.8-1.3-3.2l-1.7-1.9l-0.4-0.2
		c-0.3-0.1-0.5,0.1-0.7,0.3l-0.7,0.8c-0.4,0.5-0.6,0.9-0.5,1.1c0,0.1,0.3,0.2,0.8,0.4l1.6,0.8l1.8,1.2L95.1,25.6 M105.7,35.1
		c-0.5-0.6-1.2-1.2-2-1.6h-0.1c-0.2,0-0.4,0.1-0.5,0.3c-0.1,0.3,0,0.5,0.3,0.8l0.1,0.1l1.5,1.2l1.1,1.3c0.4,0.6,0.7,0.9,0.8,0.9
		l0.2-0.2l-0.3-1.3L105.7,35.1 M103.3,36.8c-0.2,0-0.4,0.1-0.5,0.3c-0.1,0.3,0,0.5,0.2,0.6l0.6,0.5l0.6,1c0,0.3,0.2,0.5,0.5,0.5
		l0.4-0.1l0.1-0.5c0-0.5-0.2-0.9-0.6-1.3l-1-0.9L103.3,36.8 M91.9,44.2l-4.1-3.4l-0.3-0.1c-0.2-0.1-0.3,0.1-0.1,0.4l0.4,1.4
		c0.1,0.2,0,0.4-0.2,0.7c-0.2,0.2-0.4,0.3-0.7,0.4c-4.1,1.2-7.1,1.8-9,1.9h-1.2l-4.5-0.8l-2.3-0.6l-0.6-0.4l-0.2-0.6l0.1-0.6
		c0.1-0.3,0-0.4-0.1-0.4l-0.3,0.2l-1.7,1.8c-0.4,0.4-0.5,0.9-0.2,1.4l1.7,3l0.3,0.3c0.1,0,0.1-0.1,0.2-0.4v-0.4
		c0.1-0.5,0.3-0.7,0.7-0.6l0.2,0l2.6,1.8c2.1,1.2,4,1.9,5.8,2h0c1.8,0.1,4.2-0.5,7.2-2c1.5-0.7,2.8-1.5,4-2.2l0.4,0
		c0.4,0.1,0.7,0.2,0.9,0.5l-0.1,2l0.3,0.3c0.1,0.1,0.2-0.1,0.3-0.3l1.1-3.8l0-0.7L91.9,44.2 M95.4,72.2c-0.1,0.1-0.2,0.4,0,1.1
		c2.6,10.2,4.4,19,5.2,26.5l0.4,5.2c0.3,3,0.8,4.4,1.3,4.2c3.9-1.6,7.2-3.7,10-6l1.4,10.1l0,0c-2.5,3.5-6.4,6.3-11.5,8.5
		c-4,1.8-8.7,3.1-13.8,3.8c-5.1,0.8-10,0.6-14.8-0.4c-4.6-0.9-8.4-2.6-11.4-5l0.6-6.7l0.3-6.6c4.2,3.1,9.2,5,15,5.8l6.6,0.3h1.5
		l1.4-0.3c0.3-0.1,0.5-0.3,0.6-0.6l0.3-0.7c0.3-0.4,0.4-1.1,0.3-2.1l-0.2-2.2L88,98.4c-0.6-8.2-1.7-16.3-3.3-24.3
		c-0.1-0.7-0.5-1.1-1-1.4l-3-1l-3.1-1c-2.5-1.2-4.6-2.7-6.1-4.6c-1.7-2.1-2.7-4.4-2.8-7l-0.1-0.4l1.5-0.1c1.7,1.5,3.7,2.7,6,3.7
		c0.7,1.6,1.7,2.9,3.3,3.8c1.4,0.8,3,1.3,4.9,1.5c3.6,0.3,7.1-0.6,10.2-2.8c2.7-1.8,4.4-3.9,5-6.4l3.8,1.2c0.9,3,0.3,5.8-1.7,8.4
		c-0.7,0.9-1.6,1.7-2.8,2.5C98.4,70.6,97.2,71.2,95.4,72.2 M100.1,71.8c1.4-1,2.5-2.2,3.3-3.5c1.4-2.3,1.6-5.1,0.7-8.4
		c5.2,1.8,10.1,4.3,14.6,7.2c6.7,4.4,12,9.7,15.7,15.8l1.8,3.2c0.6,1.4,0.8,2.5,0.6,3.4l-1.8,5.3c-2.5,6.4-6,11.6-10.5,15.8
		c-1.4-2-2.9-3.4-4.8-4.5c-2.1-1.2-4.2-1.4-6.2-0.9l-0.4-2.3l0-0.4l0.4-0.4c0.2-0.2,0.2-0.6-0.1-1.2l-0.1-0.3l0.4-1.5l1.4-3.7
		c1.2-2.7,2.6-4.9,4.5-6.5c0.2-0.2,0.1-0.6-0.1-1.2c-0.2-0.6-0.4-0.8-0.6-0.7c-2.1,2-3.8,4.6-5,7.9c-0.6,1.6-1,3.1-1.3,4.3
		l-2.7-19.1l0-0.2c-0.1-0.5-0.2-0.8-0.5-1c-0.3-0.2-0.3,0-0.3,0.6l3.1,21.4l-4,3l-3.3,2.1c-1.3,0.7-2.2,1.1-2.8,1.1
		c-0.8-9.5-2.7-20.5-5.8-32.9C98,73.1,99.3,72.3,100.1,71.8 M113.6,107.2c2.1-0.7,4.2-0.5,6.3,0.6c1.7,0.9,3.2,2.3,4.5,4.1
		c0.3,1.6-0.2,3.1-1.5,4.6c-1.3,1.5-2.8,2.3-4.6,2.4c-0.2,0-0.2,0.4-0.1,1c0.1,0.6,0.3,1,0.5,1l0.1,0h0.1l1.5,0.4
		c0.9,0.3,1.3,0.6,1.3,0.9c-0.1,1.1-1.1,1.9-2.8,2.3l-3.3,0.2l-0.8-9.1L113.6,107.2 M114.1,115.5c1.2,12.4,1.2,23.4,0,32.9
		c-0.5,3.9-1.3,8.3-2.5,13.4l-3.1,13.2l-0.5,2.1c-0.9,0.7-2.3,1.3-4.3,1.6c-2.3,0.5-5,0.5-8.2,0.1l-7.5-1.4
		c0.4-7.5,0.6-13.2,0.7-17.1c0.1-7.2-0.3-13.4-1.5-18.4c1.4-3.2,3-5.9,4.5-8c0.2-0.2,0.1-0.6-0.1-1.2c-0.3-0.6-0.4-0.8-0.5-0.6
		c-1.9,2.6-3.6,5.7-5.2,9.5c-1,2.2-2.3,5.6-3.9,10.1L78.6,162c-1.4,4.2-2.6,7.6-3.9,10.2c-1.6,3.5-3.2,6.1-4.7,7.8
		c-0.9,1-2.2,1.6-3.9,2.1h-0.1l-6.2,0.3c-2.4-0.2-4.8-0.9-7.2-2.3l-2-1.3l-0.6-0.6l0-1.1c0-2.6,0.5-5.8,1.6-9.6l2.9-9.3
		c1.9-6.8,3.7-14.3,5.2-22.5c1-5.2,1.8-10,2.3-14.4c3,2.5,6.8,4.2,11.5,5.3c4.6,1,9.5,1.3,14.6,0.7c5.2-0.6,10-1.8,14.4-3.7
		C107.5,121.6,111.4,118.9,114.1,115.5 M108.3,179l0.3,0.2c4.5,1.7,7.9,3.7,10.4,6l0.3-0.3c0.1-0.1,0.2,0,0.2,0.3l-0.4,0l0,0
		l-0.7,0.4c-0.8,0.5-2,0.8-3.6,1c-3,0.5-6.3,0.3-9.8-0.6c-3.3-0.8-6.4-2.1-9.2-3.8l-0.2,0l-1,1c-0.5,0.5-1.8,0.3-3.9-0.6
		c-0.9-0.3-1.4-0.8-1.5-1.3l0-1.9c5.9,1.3,10.7,1.7,14.4,1.3C105.9,180.6,107.5,180,108.3,179 M11.9,73.2l-0.3-0.2l-0.2,0.3
		c0,1-0.6,1.8-1.6,2.4l-0.1,0.2L6.4,76l-1.5,0.3c-0.3-1.4-0.2-2.6,0.1-3.8c0.5-1.6,1.6-2.6,3.2-2.8c2.7-0.4,5.7,0.9,8.9,3.8l1.7,1.8
		l0.3,0.4c0.7,0.9,1.3,1.8,1.8,2.7c1.1,2,1.3,3.7,0.7,5.2l-0.3,0.6c-0.1,0.2-0.1,0.6,0.2,1.3c0.2,0.6,0.4,0.8,0.5,0.6l0.4-0.8
		l0.3-0.6c0.5,1.8,0.4,3.5-0.3,5.2c-0.7,1.8-2,3.3-3.9,4.5c-1.8,1.2-3.8,1.8-5.9,1.9c-2.3,0.1-4.3-0.4-6-1.6
		c-2.3-1.5-1.8-2.9,1.3-4.2c2.5-1,4.8-1.6,6.9-1.6c1.2,0,2,0.3,2.4,0.8c0.5,0.6,0.2,1.2-0.8,1.9c-0.9,0.7-2.1,1-3.4,1.1
		c-1.1,0.1-2.3-0.1-3.6-0.5c-0.2-0.1-0.2,0.2-0.1,0.9c0.1,0.7,0.2,1,0.5,1.1c1.6,0.5,3.1,0.6,4.5,0.4c1.6-0.3,2.9-0.9,3.9-2
		c0.4-0.5,0.6-1.2,0.5-2.1c-0.1-0.8-0.4-1.5-0.8-2l-0.3-0.4c0.2-0.4,0.3-0.9,0.3-1.5c0-1-0.3-1.8-0.9-2.7c-0.4-0.7-1-1.2-1.7-1.6
		l0.3-1.1c0-1-0.2-1.9-0.8-2.9c-0.6-1-1.6-1.7-2.9-2.1c0.2-0.5,0.4-1,0.4-1.6C12.4,74.1,12.2,73.6,11.9,73.2 M2.7,86.7
		c0.4-0.8,1.3-1.4,2.5-1.9l3.1-0.9c2.5-0.7,4.8-0.7,6.7,0c0.8,0.3,1.4,0.7,1.8,1.3c0.5,0.7,0.3,1.3-0.6,1.8L16,87.1l-1.8-0.3
		L10,87.5C7.6,88,6,88.8,5.2,89.7c-1.1-0.3-1.8-0.6-2.2-1C2.3,88.2,2.2,87.5,2.7,86.7 M3.1,79L6,78.2c2.5-0.7,4.8-0.7,6.7,0
		c1,0.3,1.6,0.8,1.9,1.4c0.3,0.7,0,1.4-0.9,1.9v0l-0.3-0.1l-4.6,0.1c-3.2,0.5-5.2,1.4-6.3,2.8c-1-0.6-1.7-1.1-1.9-1.6
		C0,82.3,0,81.6,0.6,80.8C1.1,80.1,1.9,79.5,3.1,79 M20.5,75.7l0.2,0c2.6,0.4,4.6,1.5,6.2,3.4c1.5,1.9,2.3,4.1,2.3,6.8
		c0,2.1-0.5,4-1.4,5.6c-1.1,1.9-2.6,3-4.5,3.3L23.1,95l-1.7,0c1.2-1.2,2-2.8,2.4-4.7c0.5-2.4,0.2-4.8-0.7-7.3l0-0.1
		c0-1.8-0.8-3.9-2.2-6.4l-0.5-0.8H20.5 M74.6,19.9L74.1,20l-3.5,1.8l-0.3,0.3c0,0.1,0.1,0.2,0.4,0.2l3.6,0.1c0.3,0,0.5-0.1,0.7-0.3
		c0.2-0.2,0.3-0.5,0.3-0.8l-0.1-0.9C75.1,20.1,74.9,19.9,74.6,19.9 M81.7,27.9l-0.2-0.3h-0.1c-0.3-0.1-0.5,0.2-0.8,0.6l-2,3.3
		l-2.2,2.6l-1.5,1.6c-0.4,0.4-0.4,0.8-0.2,1.4l1.7,3c0.3,0.3,0.6,0.5,1.1,0.6l1-0.2c0.2,0,0.4-0.1,0.5-0.3c0.1-0.2,0.1-0.4-0.1-0.6
		l-1.4-2.2l-0.2-0.7l0.2-0.7l2.1-3.3c0.8-1.3,1.5-2.7,2.1-4.2L81.7,27.9 M90.3,28L90.3,28c-0.5,0-0.9,0.2-1.2,0.8
		c-0.4,0.5-0.6,1.2-0.7,2c-0.1,0.8,0,1.5,0.3,2.1c0.3,0.6,0.6,0.9,1,1c0.4,0.1,0.8-0.2,1.2-0.7c0.3-0.5,0.6-1.2,0.6-2
		c0.1-0.8,0-1.5-0.2-2.1C91.1,28.4,90.8,28.1,90.3,28 M68.4,19.7l-2.8,4.6c-0.7-1.5-1-2.5-1-3c-0.1-0.9,0-1.7,0.2-2.3
		c0.3-0.7,0.6-1,1-1c0.3,0,0.5,0.1,0.7,0.4C67,19,67.7,19.4,68.4,19.7 M70.4,31.6c0.2,0.6,0.6,0.9,1,1h0c0.4,0.1,0.8-0.2,1.2-0.7
		c0.4-0.6,0.6-1.3,0.7-2c0.1-0.8,0-1.5-0.2-2.1c-0.3-0.6-0.6-0.9-1-1h0c-0.4,0-0.8,0.2-1.2,0.7c-0.4,0.6-0.6,1.3-0.6,2
		C70.1,30.3,70.2,31,70.4,31.6 M69.9,44.9l2.3,0.6l4.8,0.8l1.2,0c2.3,0,5.3-0.6,9-1.8l1-0.1c0.4,0.1,0.8,0.2,1.1,0.5
		c0.3,0.3,0.4,0.6,0.2,1c-0.1,0.2-0.4,0.4-0.7,0.6c-3.3,1.4-5.6,2.3-6.8,2.6l-4.3,0.3c-1.2-0.1-2.1-0.3-2.7-0.5l-5.2-2.2
		c-0.4-0.1-0.6-0.5-0.7-1c-0.1-0.5,0.1-0.7,0.8-0.6H69.9 M75.2,53l1.4,0.9c0.2,0.1,0.6,0.2,1.1,0.3l1.5-0.1c0.3,0,0.5-0.1,0.7-0.3
		C80,53.5,80,53.3,80,53c-0.1-0.4-0.3-0.7-0.9-0.7l-3.9,0.2l-0.4,0.2L75.2,53 M27,77.7c-0.8-1-1.6-1.8-2.6-2.4
		c8.2-1.1,16.1-3.9,23.8-8.5c4.8-2.8,8.3-4.7,10.6-5.7C62,59.8,65,59,68,58.8c0.3,3.9,1.9,7.4,4.6,10.3c1.3,1.3,3.1,2.6,5.4,3.7
		c0.8,0.4,1.9,0.8,3.3,1.2l3,0.9c0.8,4.6,1.5,9.3,2.1,14.1l0.9,9.6l0.3,5.7l0.3,2.8c0.1,1.3,0,2.1-0.3,2.6l-1,1.1l-1.6,0.1
		c-1.6,0.1-3.3,0.1-5.2-0.1c-2.8-0.1-5.8-0.7-9-1.8c-2.9-1-5.5-2.3-7.8-3.9c0-5-0.4-9.7-1.1-14l4.1-1.6c0.2-0.1,0.2-0.5,0-1.1
		c-0.2-0.7-0.4-1-0.6-0.9c-7.3,2.9-15.1,5-23.2,6.3c-5,0.8-10,1.2-15,1.3c0.6-0.7,1.1-1.6,1.6-2.6c0.8-2.1,1.1-4.5,0.9-7.2
		C29.6,82.2,28.6,79.7,27,77.7 M62.4,188.5c-1.7,1.3-3.8,2.4-6.5,3.2c-2.9,1-5-0.1-6.3-3.1c-1.2-3-0.7-5.4,1.6-7.2
		c2,1.5,4.8,2.5,8.4,3c1.9,0.3,3.7,0.3,5.6,0l0.3,0C65.1,185.8,64,187.2,62.4,188.5"/>
</g>
</svg>
