<?xml version="1.0" encoding="UTF-8"?>
<svg xmlns="http://www.w3.org/2000/svg" xmlns:xlink="http://www.w3.org/1999/xlink" width="128pt" height="199pt" viewBox="0 0 128 199" version="1.1">
<g id="surface1">
<path style=" stroke:none;fill-rule:nonzero;fill:rgb(100%,100%,100%);fill-opacity:1;" d="M 95.519531 8.328125 L 97.925781 11.710938 C 99.054688 12.273438 100.183594 13.503906 101.3125 15.40625 C 102.113281 16.800781 102.78125 18.253906 103.316406 19.769531 C 104.296875 22.4375 104.269531 25.867188 103.230469 30.050781 C 102.722656 32.128906 102.113281 33.9375 101.402344 35.484375 C 101.074219 32.988281 100.082031 30.777344 98.417969 28.847656 L 95.121094 25.777344 C 96.101562 25.183594 96.976562 24.472656 97.75 23.640625 C 98.699219 22.574219 99.160156 21.621094 99.128906 20.792969 C 99.039062 19.605469 98.699219 18.582031 98.105469 17.71875 C 97.273438 16.503906 96.085938 15.851562 94.539062 15.761719 L 93.5625 15.761719 L 90.398438 16.605469 C 88.972656 17.113281 88.035156 17.347656 87.589844 17.320312 L 87.324219 17.273438 C 87.144531 17.214844 86.222656 16.148438 84.5625 14.070312 C 82.988281 12.082031 81.679688 11.058594 80.640625 10.996094 L 79.882812 11.085938 L 78.277344 11.886719 L 76.71875 12.734375 L 74.804688 13.714844 C 74.210938 14.011719 73.75 14.144531 73.421875 14.113281 L 72.886719 13.9375 L 71.730469 13.222656 L 70.570312 12.554688 L 69.414062 12.199219 C 68.820312 12.199219 68.121094 12.378906 67.320312 12.734375 L 64.15625 15.582031 L 61.839844 18.074219 C 60.53125 19.027344 59.300781 19.457031 58.140625 19.367188 C 57.367188 19.335938 56.699219 19.011719 56.136719 18.386719 C 55.125 17.289062 54.488281 15.878906 54.21875 14.160156 C 53.953125 12.496094 54.101562 11.042969 54.667969 9.796875 C 55.050781 8.816406 55.675781 7.984375 56.539062 7.300781 C 56.359375 8.429688 56.613281 9.292969 57.292969 9.882812 C 58.039062 10.597656 58.941406 10.996094 60.011719 11.085938 C 61.496094 11.175781 62.835938 10.65625 64.023438 9.527344 C 66.875 6.679688 68.820312 5.164062 69.859375 4.988281 L 70.929688 4.941406 L 73.066406 5.476562 C 73.929688 5.832031 74.492188 6.027344 74.757812 6.054688 C 75.265625 6.054688 75.664062 5.921875 75.960938 5.65625 L 77.699219 3.609375 C 79.421875 1.292969 80.640625 0.121094 81.351562 0.0898438 L 81.621094 0.0898438 C 82.480469 0.121094 83.507812 0.625 84.695312 1.605469 L 85.808594 2.628906 C 86.253906 3.015625 86.699219 3.296875 87.144531 3.472656 C 88.660156 4.15625 89.9375 4.601562 90.976562 4.808594 C 92.699219 5.164062 94.214844 6.339844 95.519531 8.328125 M 96.679688 20.300781 C 97.125 22.203125 96.113281 23.730469 93.648438 24.886719 L 93.25 25.242188 C 93.070312 25.539062 93.160156 25.808594 93.515625 26.042969 L 97.480469 29.339844 C 99.648438 31.714844 100.613281 34.308594 100.378906 37.128906 C 99.632812 34.875 98.609375 32.839844 97.304688 31.03125 C 95.609375 28.984375 94.480469 27.855469 93.917969 27.648438 L 93.605469 27.558594 L 93.027344 27.871094 C 92.9375 28.078125 93.011719 28.269531 93.25 28.449219 L 94.316406 29.429688 L 96.457031 31.699219 C 97.347656 32.679688 98.164062 33.925781 98.90625 35.4375 L 100.199219 38.375 L 99.933594 39.398438 L 98.730469 36.730469 C 98.046875 35.394531 97.332031 34.308594 96.589844 33.480469 C 95.550781 32.320312 94.613281 31.535156 93.785156 31.121094 L 93.605469 31.074219 C 93.308594 31.046875 93.144531 31.195312 93.113281 31.519531 C 93.085938 31.875 93.265625 32.1875 93.648438 32.457031 C 94.511719 33.019531 95.210938 33.628906 95.742188 34.28125 L 98.238281 37.84375 L 99.621094 40.289062 L 99.621094 40.335938 C 99.5 40.660156 99.484375 40.972656 99.574219 41.269531 L 98.0625 40.691406 L 98.195312 41.359375 C 100.183594 43.109375 100.585938 45.144531 99.398438 47.457031 C 98.238281 49.742188 96.398438 50.796875 93.871094 50.617188 L 93.160156 50.53125 C 90.21875 55.070312 86.699219 58.46875 82.601562 60.722656 C 82.183594 60.933594 81.992188 61.125 82.023438 61.304688 C 82.023438 61.453125 82.214844 61.539062 82.601562 61.570312 C 83.789062 61.6875 85.257812 61.230469 87.011719 60.191406 C 86.59375 62.386719 84.917969 64.269531 81.976562 65.84375 C 79.273438 67.296875 76.675781 67.9375 74.179688 67.757812 C 73.109375 67.667969 72.234375 67.371094 71.550781 66.867188 L 71.773438 66.914062 L 74.714844 66.511719 C 76.082031 66.183594 76.734375 65.902344 76.675781 65.667969 L 76.496094 65.578125 L 75.472656 65.621094 L 73.601562 65.621094 C 71.136719 65.445312 68.433594 64.582031 65.492188 63.039062 C 60.207031 60.25 56.476562 55.753906 54.308594 49.550781 C 52.199219 43.644531 51.976562 37.679688 53.640625 31.652344 C 54.679688 27.914062 56.507812 24.21875 59.121094 20.570312 C 60.25 20.480469 61.453125 19.960938 62.730469 19.011719 L 65.136719 16.429688 L 68.078125 13.667969 L 68.96875 13.535156 C 69.828125 13.59375 70.824219 14.023438 71.953125 14.828125 C 72.429688 15.09375 72.976562 15.257812 73.601562 15.316406 C 74.640625 15.375 75.933594 15.050781 77.476562 14.335938 L 79.703125 13.980469 C 81.695312 14.128906 83.476562 15.226562 85.050781 17.273438 C 85.554688 17.925781 86.210938 18.285156 87.011719 18.34375 L 89.371094 17.988281 L 93.339844 17.410156 L 93.648438 17.410156 C 95.253906 17.558594 96.261719 18.519531 96.679688 20.300781 M 84.871094 26.445312 L 84.917969 26.445312 C 85.15625 25.734375 84.695312 24.636719 83.535156 23.152344 L 81.753906 21.148438 L 81.308594 20.96875 C 81.011719 20.910156 80.757812 21.027344 80.550781 21.324219 L 79.882812 22.128906 C 79.4375 22.691406 79.257812 23.0625 79.347656 23.238281 C 79.378906 23.300781 79.644531 23.449219 80.148438 23.683594 L 81.796875 24.53125 L 83.582031 25.734375 C 84.234375 26.179688 84.664062 26.414062 84.871094 26.445312 M 95.699219 36.285156 C 95.164062 35.632812 94.464844 35.066406 93.605469 34.59375 L 93.472656 34.59375 L 92.9375 34.902344 C 92.816406 35.171875 92.921875 35.4375 93.25 35.707031 L 93.339844 35.792969 L 94.898438 36.996094 L 96.011719 38.375 C 96.425781 38.96875 96.710938 39.28125 96.859375 39.3125 L 97.035156 39.132812 C 97.09375 38.894531 96.976562 38.464844 96.679688 37.84375 L 95.699219 36.285156 M 93.292969 37.976562 C 93.054688 37.945312 92.878906 38.066406 92.757812 38.332031 C 92.667969 38.597656 92.730469 38.808594 92.9375 38.957031 L 93.515625 39.488281 C 93.871094 39.90625 94.050781 40.246094 94.050781 40.511719 C 94.050781 40.871094 94.230469 41.046875 94.585938 41.046875 C 94.941406 41.105469 95.121094 40.882812 95.121094 40.378906 C 95.121094 39.964844 94.925781 39.503906 94.539062 39 L 93.5625 38.066406 L 93.292969 37.976562 M 81.976562 46.210938 L 81.53125 45.589844 L 77.34375 42.117188 L 77.03125 41.980469 C 76.792969 41.921875 76.75 42.070312 76.898438 42.425781 L 77.300781 43.898438 C 77.386719 44.105469 77.3125 44.34375 77.078125 44.609375 C 76.867188 44.816406 76.644531 44.949219 76.40625 45.007812 C 72.21875 46.226562 69.132812 46.863281 67.140625 46.925781 L 65.894531 46.925781 L 61.304688 46.121094 L 58.988281 45.5 L 58.410156 45.097656 L 58.230469 44.429688 L 58.320312 43.808594 C 58.378906 43.511719 58.320312 43.363281 58.140625 43.363281 L 57.828125 43.585938 L 56.046875 45.453125 C 55.632812 45.871094 55.558594 46.34375 55.824219 46.878906 L 57.515625 49.953125 L 57.785156 50.261719 C 57.902344 50.261719 57.976562 50.128906 58.007812 49.863281 L 58.007812 49.417969 C 58.007812 48.941406 58.230469 48.734375 58.675781 48.792969 L 58.898438 48.839844 L 61.570312 50.707031 C 63.738281 51.953125 65.730469 52.652344 67.542969 52.800781 L 67.585938 52.800781 C 69.398438 52.917969 71.863281 52.238281 74.980469 50.753906 C 76.527344 50.011719 77.894531 49.253906 79.082031 48.480469 L 79.4375 48.4375 C 79.882812 48.496094 80.195312 48.675781 80.375 48.972656 L 80.238281 51.019531 L 80.597656 51.285156 C 80.746094 51.347656 80.847656 51.226562 80.90625 50.929688 L 82.023438 46.96875 L 81.976562 46.210938 M 109.289062 69.183594 C 116.121094 73.785156 121.421875 79.183594 125.191406 85.386719 L 127.019531 88.636719 C 127.671875 90.0625 127.882812 91.21875 127.644531 92.109375 C 127.226562 93.652344 126.605469 95.464844 125.773438 97.542969 C 123.21875 104.070312 119.640625 109.488281 115.035156 113.789062 C 113.640625 111.742188 112.003906 110.214844 110.132812 109.203125 C 108.917969 108.523438 107.683594 108.136719 106.4375 108.046875 L 103.71875 108.316406 L 103.273438 105.957031 L 103.230469 105.464844 L 103.496094 105.152344 C 103.675781 104.945312 103.644531 104.53125 103.40625 103.90625 L 103.363281 103.816406 C 103.628906 102.363281 104.269531 100.496094 105.277344 98.207031 L 106.4375 95.894531 C 107.417969 94.171875 108.558594 92.703125 109.867188 91.488281 C 110.046875 91.308594 110.015625 90.894531 109.777344 90.238281 C 109.539062 89.617188 109.332031 89.378906 109.152344 89.527344 C 108.144531 90.449219 107.238281 91.53125 106.4375 92.777344 C 105.484375 94.203125 104.667969 95.835938 103.984375 97.675781 C 103.363281 99.308594 102.945312 100.554688 102.738281 101.414062 L 102.648438 101.902344 L 99.84375 82.40625 L 99.796875 82.226562 C 99.738281 81.753906 99.574219 81.394531 99.308594 81.160156 C 99.039062 80.949219 98.953125 81.171875 99.039062 81.828125 L 102.160156 103.816406 L 98.015625 107.113281 L 94.71875 109.292969 C 93.472656 110.035156 92.550781 110.453125 91.957031 110.539062 C 91.75 105.289062 91.066406 99.632812 89.90625 93.578125 C 89.074219 89.214844 87.753906 83.457031 85.941406 76.304688 C 87.8125 75.328125 89.148438 74.554688 89.953125 73.992188 C 91.378906 72.980469 92.492188 71.765625 93.292969 70.339844 C 94.75 67.878906 94.972656 64.910156 93.960938 61.4375 C 98.359375 63.011719 102.515625 64.984375 106.4375 67.359375 L 109.289062 69.183594 M 85.097656 74.390625 C 84.945312 74.449219 84.933594 74.820312 85.050781 75.503906 L 88.4375 89.214844 C 89.566406 94.351562 90.324219 99.011719 90.710938 103.195312 L 90.976562 108.492188 C 91.242188 111.550781 91.660156 112.945312 92.222656 112.675781 C 96.292969 110.808594 99.722656 108.625 102.515625 106.132812 L 103.941406 116.328125 C 101.328125 119.828125 97.585938 122.769531 92.714844 125.140625 C 88.554688 127.160156 83.894531 128.660156 78.726562 129.640625 C 73.378906 130.617188 68.136719 130.664062 62.996094 129.773438 C 58.097656 128.910156 54.027344 127.265625 50.789062 124.832031 C 51.175781 121.746094 51.457031 118.851562 51.636719 116.148438 L 51.902344 111.03125 C 56.09375 114.027344 61.273438 115.925781 67.453125 116.730469 L 73.199219 117.21875 C 76.257812 117.21875 77.832031 116.742188 77.921875 115.792969 C 78.160156 113.746094 78.21875 111.355469 78.101562 108.625 L 77.566406 101.457031 C 76.972656 93.476562 75.859375 85.136719 74.226562 76.441406 C 74.105469 75.757812 73.75 75.28125 73.15625 75.015625 L 70.125 74.078125 C 68.757812 73.722656 67.734375 73.382812 67.050781 73.054688 C 64.4375 71.839844 62.285156 70.191406 60.589844 68.113281 C 58.75 65.859375 57.695312 63.394531 57.429688 60.722656 L 57.382812 60.503906 L 58.988281 60.324219 C 60.800781 61.925781 62.894531 63.234375 65.269531 64.242188 C 65.953125 65.902344 67.066406 67.210938 68.609375 68.160156 C 70.035156 69.019531 71.714844 69.523438 73.644531 69.671875 C 77.386719 69.96875 80.894531 69.019531 84.160156 66.824219 C 86.980469 64.925781 88.71875 62.640625 89.371094 59.96875 L 93.203125 61.167969 C 94.15625 64.34375 93.574219 67.296875 91.464844 70.027344 C 90.753906 70.980469 89.773438 71.824219 88.527344 72.566406 L 85.097656 74.390625 M 104.789062 117.039062 L 103.851562 110.496094 L 106.4375 110.050781 C 107.742188 110.082031 109.050781 110.4375 110.355469 111.121094 C 112.140625 112.070312 113.683594 113.480469 114.992188 115.347656 C 115.289062 116.980469 114.78125 118.554688 113.476562 120.066406 C 112.140625 121.640625 110.550781 122.472656 108.707031 122.558594 C 108.5 122.589844 108.472656 122.929688 108.621094 123.585938 C 108.769531 124.238281 108.945312 124.578125 109.152344 124.609375 L 109.242188 124.652344 L 109.332031 124.652344 L 110.890625 125.097656 C 111.753906 125.425781 112.167969 125.734375 112.140625 126.03125 C 111.992188 127.191406 111.039062 127.976562 109.289062 128.390625 L 106.4375 128.703125 L 105.902344 128.613281 L 105.101562 119.222656 L 104.921875 117.886719 L 104.789062 117.039062 M 104.253906 118.867188 C 105.53125 131.746094 105.546875 143.082031 104.296875 152.878906 C 103.792969 156.882812 102.945312 161.484375 101.757812 166.679688 L 98.507812 180.300781 L 98.015625 182.480469 C 97.09375 183.222656 95.640625 183.773438 93.648438 184.128906 C 91.304688 184.605469 88.496094 184.632812 85.230469 184.21875 L 77.523438 182.792969 C 77.9375 175.046875 78.175781 169.171875 78.234375 165.164062 C 78.351562 157.746094 77.832031 151.453125 76.675781 146.289062 C 78.191406 142.996094 79.75 140.21875 81.351562 137.964844 C 81.53125 137.757812 81.488281 137.339844 81.21875 136.71875 C 80.953125 136.09375 80.773438 135.871094 80.683594 136.050781 C 78.785156 138.691406 77.003906 141.941406 75.339844 145.800781 C 74.328125 148.113281 73.007812 151.570312 71.375 156.171875 L 67.898438 166.902344 C 66.503906 171.203125 65.179688 174.722656 63.933594 177.453125 C 62.328125 180.953125 60.710938 183.640625 59.078125 185.507812 C 58.1875 186.488281 56.863281 187.1875 55.113281 187.601562 L 55.023438 187.644531 L 48.605469 188.003906 C 46.171875 187.824219 43.691406 187.050781 41.167969 185.6875 L 39.074219 184.351562 L 38.40625 183.773438 L 38.359375 182.660156 C 38.359375 179.960938 38.910156 176.679688 40.007812 172.820312 L 42.992188 163.207031 C 45.074219 155.90625 46.898438 148.011719 48.472656 139.523438 C 49.335938 134.804688 50.046875 130.425781 50.613281 126.390625 C 53.847656 128.972656 57.949219 130.738281 62.910156 131.6875 C 67.839844 132.636719 72.992188 132.695312 78.367188 131.863281 C 83.597656 131.0625 88.453125 129.59375 92.9375 127.457031 C 97.808594 125.113281 101.582031 122.25 104.253906 118.867188 M 93.515625 186.3125 C 95.953125 186.074219 97.601562 185.449219 98.460938 184.441406 L 98.683594 184.664062 C 101.742188 185.792969 104.328125 187.082031 106.4375 188.535156 L 109.332031 190.808594 L 109.601562 190.539062 C 109.71875 190.390625 109.792969 190.511719 109.824219 190.894531 L 109.378906 190.851562 L 109.332031 190.808594 L 108.574219 191.253906 L 106.4375 192.054688 L 104.878906 192.320312 C 101.757812 192.796875 98.402344 192.585938 94.808594 191.699219 C 91.390625 190.867188 88.257812 189.558594 85.40625 187.78125 L 85.230469 187.824219 L 84.25 188.894531 C 83.773438 189.425781 82.4375 189.21875 80.238281 188.269531 C 79.347656 187.914062 78.828125 187.46875 78.679688 186.933594 L 78.726562 184.976562 L 85.320312 186.132812 C 88.378906 186.519531 91.109375 186.578125 93.515625 186.3125 M 63.753906 20.570312 L 63.265625 20.65625 L 59.699219 22.527344 L 59.34375 22.882812 C 59.34375 23.003906 59.476562 23.078125 59.746094 23.105469 L 63.398438 23.195312 C 63.695312 23.226562 63.949219 23.136719 64.15625 22.929688 C 64.363281 22.722656 64.453125 22.453125 64.421875 22.128906 L 64.335938 21.238281 C 64.273438 20.792969 64.082031 20.570312 63.753906 20.570312 M 69.902344 29.160156 L 67.855469 32.589844 L 65.582031 35.304688 L 64.023438 36.996094 L 63.710938 37.664062 L 63.84375 38.421875 L 65.582031 41.492188 C 65.910156 41.847656 66.292969 42.054688 66.738281 42.117188 L 67.71875 41.9375 C 67.957031 41.910156 68.121094 41.804688 68.210938 41.625 C 68.300781 41.449219 68.269531 41.242188 68.121094 41.003906 L 66.652344 38.6875 L 66.472656 37.976562 L 66.652344 37.21875 L 68.789062 33.792969 C 69.621094 32.425781 70.332031 30.972656 70.929688 29.429688 C 71.105469 28.863281 71.046875 28.550781 70.75 28.492188 L 70.707031 28.492188 C 70.4375 28.433594 70.171875 28.65625 69.902344 29.160156 M 77.96875 31.789062 C 77.878906 32.617188 77.96875 33.347656 78.234375 33.96875 C 78.472656 34.59375 78.8125 34.917969 79.257812 34.949219 L 79.304688 34.949219 C 79.75 35.007812 80.164062 34.753906 80.550781 34.191406 C 80.90625 33.65625 81.128906 32.976562 81.21875 32.144531 C 81.308594 31.3125 81.234375 30.585938 80.996094 29.960938 C 80.730469 29.339844 80.375 28.996094 79.925781 28.9375 L 79.882812 28.9375 C 79.4375 28.910156 79.035156 29.175781 78.679688 29.738281 C 78.292969 30.273438 78.054688 30.957031 77.96875 31.789062 M 55.421875 19.011719 C 55.988281 19.664062 56.65625 20.109375 57.429688 20.347656 L 54.53125 25.109375 L 53.417969 21.992188 C 53.359375 21.042969 53.449219 20.242188 53.6875 19.589844 C 53.953125 18.90625 54.296875 18.582031 54.710938 18.609375 C 54.917969 18.609375 55.15625 18.742188 55.421875 19.011719 M 62.195312 28.625 C 61.929688 28.035156 61.570312 27.707031 61.125 27.648438 L 61.082031 27.648438 C 60.636719 27.617188 60.234375 27.871094 59.878906 28.40625 C 59.492188 28.96875 59.253906 29.664062 59.167969 30.496094 C 59.105469 31.328125 59.195312 32.054688 59.433594 32.679688 C 59.699219 33.300781 60.058594 33.628906 60.503906 33.65625 C 60.949219 33.71875 61.363281 33.464844 61.75 32.902344 C 62.105469 32.335938 62.328125 31.640625 62.417969 30.808594 C 62.507812 29.976562 62.433594 29.25 62.195312 28.625 M 58.898438 46.34375 L 61.304688 46.96875 L 66.25 47.769531 L 67.496094 47.8125 C 69.84375 47.8125 72.917969 47.191406 76.71875 45.945312 L 77.789062 45.8125 C 78.234375 45.871094 78.605469 46.035156 78.902344 46.300781 C 79.257812 46.628906 79.320312 46.96875 79.082031 47.324219 L 78.324219 47.902344 C 74.90625 49.386719 72.578125 50.292969 71.328125 50.617188 L 66.875 50.886719 C 65.65625 50.796875 64.71875 50.617188 64.066406 50.351562 L 58.71875 48.082031 C 58.304688 47.960938 58.039062 47.605469 57.917969 47.011719 C 57.828125 46.507812 58.113281 46.285156 58.765625 46.34375 L 58.898438 46.34375 M 64.289062 54.671875 L 65.761719 55.558594 C 65.996094 55.707031 66.382812 55.8125 66.917969 55.871094 L 68.433594 55.738281 C 68.699219 55.707031 68.921875 55.589844 69.101562 55.382812 C 69.28125 55.175781 69.355469 54.953125 69.324219 54.714844 C 69.265625 54.269531 68.96875 54.015625 68.433594 53.957031 L 64.46875 54.136719 L 64.023438 54.3125 L 64.289062 54.671875 M 40.632812 66.46875 C 46.425781 63.351562 51.769531 61.40625 56.671875 60.636719 C 57.234375 64.613281 58.855469 68.027344 61.527344 70.875 C 62.953125 72.417969 64.914062 73.8125 67.410156 75.058594 C 68.179688 75.445312 69.292969 75.832031 70.75 76.21875 L 73.691406 77.152344 C 74.582031 81.929688 75.308594 86.753906 75.875 91.621094 C 76.230469 94.914062 76.542969 98.207031 76.808594 101.503906 L 77.164062 107.378906 L 77.386719 110.496094 C 77.449219 111.742188 77.386719 112.765625 77.210938 113.566406 C 76.972656 114.515625 75.8125 115.023438 73.734375 115.082031 L 69.324219 114.859375 C 66.355469 114.738281 63.25 114.175781 60.011719 113.167969 C 57.011719 112.246094 54.308594 110.957031 51.902344 109.292969 C 51.933594 103.476562 51.519531 98.03125 50.65625 92.957031 L 55.023438 92.15625 C 55.230469 92.125 55.246094 91.769531 55.066406 91.085938 C 54.917969 90.375 54.710938 90.03125 54.445312 90.0625 C 44.105469 91.367188 34.394531 96.488281 25.304688 105.421875 L 22.320312 108.671875 L 21.742188 109.382812 L 21.429688 108.980469 C 17.777344 104.085938 14.210938 101.742188 10.738281 101.949219 C 13.648438 94.527344 17.421875 87.941406 22.054688 82.183594 C 27.339844 75.5625 33.535156 70.324219 40.632812 66.46875 M 10.292969 104.128906 C 14.0625 103.386719 17.894531 105.71875 21.785156 111.121094 L 22.054688 111.921875 C 23.332031 113.433594 24.339844 115.332031 25.082031 117.617188 C 25.914062 120.230469 25.988281 122.351562 25.304688 123.984375 C 25.007812 124.757812 24.238281 125.351562 22.988281 125.765625 L 20.003906 126.476562 L 16.839844 126.34375 C 16.304688 126.105469 16.171875 125.78125 16.441406 125.363281 L 17.375 124.339844 L 19.203125 122.382812 C 19.765625 121.582031 19.898438 120.765625 19.601562 119.933594 C 19.277344 119.042969 18.710938 118.644531 17.910156 118.730469 C 17.199219 118.820312 16.542969 119.207031 15.949219 119.890625 C 15.324219 120.632812 14.804688 121.523438 14.390625 122.558594 C 13.945312 123.660156 13.691406 124.683594 13.632812 125.632812 C 13.574219 126.699219 13.8125 127.398438 14.347656 127.722656 C 14.703125 127.960938 15.445312 128.257812 16.574219 128.613281 L 17.464844 129.105469 L 16.484375 129.816406 C 14.523438 131.09375 12.476562 131.167969 10.335938 130.039062 C 8.851562 129.269531 8.273438 127.769531 8.597656 125.542969 L 9.355469 120.644531 L 9.355469 120.558594 L 9.402344 120.15625 L 9.042969 119.175781 C 8.804688 118.671875 8.644531 118.570312 8.554688 118.867188 L 8.0625 122.027344 C 7.796875 123.660156 7.558594 124.519531 7.351562 124.609375 L 5.167969 124.652344 C 4.246094 124.445312 3.726562 123.835938 3.609375 122.828125 C 3.550781 122.265625 3.636719 121.433594 3.875 120.335938 L 3.964844 120.066406 L 4.144531 119.222656 L 4.632812 116.90625 L 4.679688 116.640625 L 4.679688 116.460938 C 4.707031 116.253906 4.605469 115.867188 4.367188 115.304688 C 4.128906 114.769531 3.964844 114.652344 3.875 114.949219 L 2.671875 119.445312 C 2.671875 119.355469 2.585938 119.355469 2.40625 119.445312 C 1.664062 119.59375 1.085938 119.355469 0.667969 118.730469 C 0.3125 118.226562 0.117188 117.605469 0.0898438 116.863281 C 0.03125 114.308594 1.039062 111.636719 3.117188 108.847656 C 5.316406 105.882812 7.648438 104.351562 10.113281 104.261719 L 10.292969 104.128906 M 39.917969 186.84375 C 42.234375 188.566406 45.308594 189.632812 49.140625 190.050781 L 54.53125 189.917969 C 53.96875 191.460938 52.882812 192.871094 51.28125 194.144531 C 49.558594 195.511719 47.34375 196.609375 44.640625 197.441406 C 41.640625 198.417969 39.488281 197.367188 38.183594 194.28125 C 36.90625 191.222656 37.46875 188.757812 39.875 186.890625 L 39.917969 186.84375 "/>
</g>
</svg>
