<?xml version="1.0" encoding="UTF-8"?>
<svg xmlns="http://www.w3.org/2000/svg" xmlns:xlink="http://www.w3.org/1999/xlink" width="128pt" height="180pt" viewBox="0 0 128 180" version="1.1">
<g id="surface1">
<path style=" stroke:none;fill-rule:nonzero;fill:rgb(100%,100%,100%);fill-opacity:1;" d="M 94.414062 4.320312 C 95.976562 4.644531 97.351562 5.703125 98.535156 7.503906 L 100.71875 10.5625 C 101.742188 11.074219 102.765625 12.1875 103.789062 13.90625 C 104.519531 15.167969 105.125 16.484375 105.609375 17.855469 C 106.5 20.273438 106.472656 23.375 105.527344 27.160156 C 105.070312 29.039062 104.519531 30.679688 103.871094 32.074219 C 103.574219 29.820312 102.671875 27.816406 101.164062 26.074219 L 98.171875 23.292969 C 99.0625 22.730469 99.855469 22.085938 100.558594 21.359375 C 101.445312 20.394531 101.863281 19.535156 101.808594 18.78125 C 101.730469 17.707031 101.417969 16.78125 100.878906 16.003906 C 100.125 14.902344 99.046875 14.308594 97.648438 14.230469 L 96.757812 14.230469 L 93.886719 14.996094 C 92.59375 15.453125 91.746094 15.667969 91.34375 15.640625 L 91.097656 15.597656 C 90.9375 15.546875 90.101562 14.578125 88.59375 12.699219 C 87.164062 10.898438 85.980469 9.972656 85.035156 9.917969 L 84.351562 10 L 82.894531 10.726562 C 82.113281 11.183594 81.65625 11.4375 81.519531 11.492188 C 81.441406 11.542969 80.859375 11.839844 79.78125 12.375 C 79.21875 12.644531 78.785156 12.765625 78.488281 12.738281 L 78.003906 12.578125 L 76.953125 11.933594 L 75.902344 11.328125 L 74.890625 11.007812 C 74.351562 11.007812 73.707031 11.167969 72.953125 11.492188 C 72.414062 11.757812 71.46875 12.617188 70.125 14.070312 L 67.980469 16.324219 C 66.796875 17.183594 65.675781 17.574219 64.625 17.492188 C 63.925781 17.464844 63.320312 17.171875 62.808594 16.605469 C 61.890625 15.613281 61.3125 14.335938 61.070312 12.78125 C 60.828125 11.277344 60.960938 9.960938 61.472656 8.832031 C 61.824219 7.945312 62.390625 7.195312 63.171875 6.574219 C 63.011719 7.597656 63.238281 8.375 63.859375 8.914062 C 64.53125 9.558594 65.355469 9.917969 66.324219 10 C 67.671875 10.082031 68.882812 9.609375 69.960938 8.589844 C 72.546875 6.011719 74.328125 4.644531 75.296875 4.480469 L 76.226562 4.441406 L 78.167969 4.925781 C 78.921875 5.246094 79.433594 5.421875 79.703125 5.449219 C 80.160156 5.449219 80.523438 5.328125 80.792969 5.085938 L 82.371094 3.234375 C 83.933594 1.136719 85.035156 0.078125 85.683594 0.0507812 L 85.925781 0.0507812 C 86.707031 0.078125 87.636719 0.535156 88.714844 1.421875 L 89.726562 2.347656 C 90.128906 2.695312 90.535156 2.949219 90.9375 3.113281 C 92.394531 3.757812 93.550781 4.160156 94.414062 4.320312 M 99.628906 18.339844 C 100.03125 20.058594 99.117188 21.441406 96.878906 22.488281 L 96.476562 22.808594 C 96.285156 23.078125 96.367188 23.320312 96.71875 23.535156 L 100.355469 26.515625 C 102.269531 28.664062 103.144531 31.015625 102.980469 33.566406 C 102.226562 31.417969 101.285156 29.578125 100.152344 28.046875 C 98.617188 26.195312 97.605469 25.171875 97.121094 24.984375 L 96.796875 24.90625 L 96.273438 25.1875 C 96.191406 25.375 96.257812 25.550781 96.476562 25.710938 L 97.445312 26.597656 L 99.386719 28.652344 C 100.488281 29.914062 101.621094 31.925781 102.78125 34.691406 L 102.539062 35.621094 L 101.445312 33.203125 C 100.828125 31.992188 100.179688 31.015625 99.507812 30.261719 C 98.617188 29.242188 97.769531 28.53125 96.960938 28.128906 L 96.796875 28.085938 C 96.554688 28.058594 96.421875 28.195312 96.394531 28.488281 C 96.367188 28.8125 96.527344 29.09375 96.878906 29.335938 L 98.738281 30.988281 L 101 34.210938 L 102.253906 36.425781 L 102.253906 36.464844 C 102.148438 36.761719 102.132812 37.042969 102.214844 37.3125 L 100.839844 36.789062 L 100.960938 37.390625 C 102.765625 38.976562 103.128906 40.816406 102.050781 42.910156 C 101 44.976562 99.332031 45.929688 97.039062 45.769531 L 96.394531 45.691406 C 93.726562 49.796875 90.535156 52.875 86.816406 54.914062 C 86.4375 55.101562 86.261719 55.277344 86.289062 55.4375 C 86.289062 55.574219 86.464844 55.652344 86.816406 55.679688 C 87.894531 55.789062 89.226562 55.371094 90.816406 54.429688 C 90.4375 56.417969 88.917969 58.125 86.25 59.546875 C 83.796875 60.863281 81.441406 61.441406 79.175781 61.277344 C 78.207031 61.199219 77.410156 60.929688 76.792969 60.472656 L 76.992188 60.511719 L 79.703125 60.152344 C 80.941406 59.855469 81.519531 59.601562 81.441406 59.386719 L 81.277344 59.304688 L 80.347656 59.34375 L 78.652344 59.34375 C 76.441406 59.183594 73.988281 58.40625 71.296875 57.007812 C 66.5 54.484375 63.117188 50.417969 61.152344 44.804688 C 59.238281 39.460938 59.050781 34.0625 60.585938 28.609375 C 61.472656 25.253906 63.117188 21.910156 65.515625 18.582031 C 66.539062 18.5 67.628906 18.03125 68.789062 17.171875 L 70.972656 14.832031 L 73.640625 12.335938 L 74.449219 12.214844 C 75.257812 12.269531 76.160156 12.660156 77.15625 13.382812 C 77.585938 13.625 78.085938 13.773438 78.652344 13.828125 C 79.59375 13.878906 80.765625 13.585938 82.167969 12.941406 L 84.1875 12.617188 C 85.992188 12.753906 87.609375 13.746094 89.039062 15.597656 C 89.496094 16.191406 90.089844 16.511719 90.816406 16.566406 L 92.957031 16.242188 L 96.554688 15.71875 L 96.839844 15.71875 C 98.292969 15.855469 99.222656 16.726562 99.628906 18.339844 M 88.875 23.898438 L 88.917969 23.898438 C 89.132812 23.253906 88.714844 22.257812 87.664062 20.917969 L 86.046875 19.105469 L 85.644531 18.941406 C 85.347656 18.890625 85.132812 18.996094 84.996094 19.265625 L 84.351562 19.988281 C 83.945312 20.5 83.785156 20.835938 83.863281 20.996094 C 83.890625 21.050781 84.132812 21.183594 84.59375 21.398438 L 86.085938 22.164062 L 87.746094 23.253906 L 88.875 23.898438 M 98.699219 32.800781 C 98.210938 32.207031 97.578125 31.699219 96.796875 31.269531 L 96.675781 31.269531 C 96.460938 31.242188 96.300781 31.335938 96.191406 31.550781 C 96.085938 31.792969 96.179688 32.035156 96.476562 32.277344 L 96.554688 32.355469 L 97.96875 33.445312 L 98.980469 34.691406 C 99.359375 35.257812 99.613281 35.539062 99.75 35.539062 L 99.910156 35.378906 L 99.628906 34.210938 L 98.699219 32.800781 M 96.515625 34.332031 C 96.300781 34.304688 96.136719 34.410156 96.03125 34.652344 C 95.949219 34.894531 96.003906 35.082031 96.191406 35.214844 L 96.71875 35.699219 L 97.242188 36.625 C 97.242188 36.949219 97.390625 37.109375 97.6875 37.109375 L 98.050781 36.988281 L 98.171875 36.503906 C 98.171875 36.074219 97.996094 35.660156 97.648438 35.257812 L 96.757812 34.410156 L 96.515625 34.332031 M 85.84375 41.21875 L 82.046875 38.078125 L 81.761719 37.957031 C 81.546875 37.902344 81.507812 38.035156 81.640625 38.359375 L 82.046875 39.6875 C 82.101562 39.875 82.03125 40.089844 81.84375 40.332031 C 81.65625 40.519531 81.441406 40.640625 81.199219 40.695312 C 77.398438 41.796875 74.597656 42.375 72.789062 42.425781 L 71.660156 42.425781 L 67.496094 41.703125 L 65.394531 41.136719 L 64.867188 40.777344 L 64.707031 40.171875 L 64.789062 39.605469 C 64.84375 39.339844 64.800781 39.203125 64.667969 39.203125 L 64.34375 39.40625 L 62.726562 41.097656 C 62.351562 41.472656 62.28125 41.902344 62.523438 42.386719 L 64.0625 45.167969 L 64.34375 45.449219 C 64.425781 45.449219 64.476562 45.328125 64.503906 45.085938 L 64.503906 44.683594 C 64.558594 44.253906 64.761719 44.066406 65.113281 44.117188 L 65.3125 44.160156 L 67.738281 45.851562 C 69.707031 46.980469 71.511719 47.609375 73.15625 47.746094 L 73.195312 47.746094 C 74.839844 47.851562 77.074219 47.234375 79.902344 45.890625 C 81.304688 45.21875 82.542969 44.535156 83.621094 43.835938 L 83.984375 43.796875 C 84.363281 43.851562 84.632812 44.011719 84.792969 44.28125 L 84.671875 46.132812 L 84.996094 46.375 C 85.132812 46.429688 85.226562 46.320312 85.28125 46.050781 L 86.289062 42.46875 L 86.25 41.78125 L 85.84375 41.21875 M 89.078125 67.28125 C 88.945312 67.335938 88.929688 67.671875 89.039062 68.289062 C 91.488281 77.792969 93.121094 86.011719 93.929688 92.941406 L 94.332031 97.773438 C 94.628906 100.566406 95.035156 101.855469 95.546875 101.640625 C 99.15625 100.109375 102.269531 98.230469 104.882812 96.003906 L 106.214844 105.386719 L 106.175781 105.429688 C 103.804688 108.652344 100.246094 111.28125 95.503906 113.324219 C 91.734375 114.988281 87.433594 116.167969 82.613281 116.867188 C 77.898438 117.59375 73.289062 117.472656 68.789062 116.503906 C 64.503906 115.621094 60.960938 114.0625 58.160156 111.832031 L 58.726562 105.628906 L 59.007812 99.464844 C 62.914062 102.367188 67.578125 104.164062 72.992188 104.863281 L 79.175781 105.1875 L 80.550781 105.1875 L 81.882812 104.945312 C 82.152344 104.808594 82.328125 104.636719 82.410156 104.421875 L 82.652344 103.734375 C 82.894531 103.359375 82.988281 102.703125 82.933594 101.761719 L 82.734375 99.75 L 82.25 91.773438 C 81.683594 84.171875 80.671875 76.625 79.21875 69.132812 C 79.109375 68.515625 78.785156 68.085938 78.246094 67.84375 L 75.417969 66.957031 L 72.546875 65.992188 C 70.203125 64.890625 68.304688 63.453125 66.847656 61.683594 C 65.234375 59.722656 64.355469 57.546875 64.222656 55.15625 L 64.140625 54.753906 L 65.515625 54.671875 C 67.132812 56.070312 68.992188 57.210938 71.09375 58.097656 C 71.710938 59.601562 72.722656 60.78125 74.125 61.640625 C 75.417969 62.421875 76.941406 62.875 78.691406 63.011719 C 82.085938 63.28125 85.265625 62.421875 88.230469 60.433594 C 90.734375 58.769531 92.296875 56.765625 92.917969 54.429688 L 96.476562 55.519531 C 97.285156 58.339844 96.746094 60.941406 94.859375 63.332031 C 94.210938 64.191406 93.335938 64.957031 92.230469 65.628906 C 91.878906 65.84375 90.828125 66.394531 89.078125 67.28125 M 93.484375 66.917969 C 94.777344 66.003906 95.789062 64.90625 96.515625 63.617188 C 97.78125 61.46875 98.011719 58.847656 97.203125 55.761719 C 102.078125 57.480469 106.621094 59.722656 110.824219 62.488281 C 117.101562 66.625 121.976562 71.539062 125.453125 77.230469 L 127.109375 80.171875 C 127.703125 81.460938 127.890625 82.507812 127.675781 83.3125 L 126.019531 88.226562 C 123.648438 94.164062 120.386719 99.0625 116.238281 102.929688 C 114.972656 101.105469 113.492188 99.722656 111.792969 98.78125 C 109.824219 97.707031 107.886719 97.4375 105.972656 97.976562 L 105.570312 95.839844 L 105.527344 95.4375 L 105.890625 95.074219 C 106.082031 94.886719 106.054688 94.511719 105.8125 93.949219 L 105.691406 93.664062 L 106.054688 92.253906 L 107.386719 88.832031 C 108.464844 86.335938 109.851562 84.308594 111.550781 82.75 C 111.710938 82.589844 111.683594 82.210938 111.46875 81.621094 C 111.253906 81.058594 111.066406 80.84375 110.902344 80.976562 C 108.9375 82.804688 107.375 85.261719 106.214844 88.347656 C 105.648438 89.878906 105.246094 91.207031 105.003906 92.335938 L 102.457031 74.53125 L 102.417969 74.371094 C 102.363281 73.941406 102.214844 73.617188 101.972656 73.402344 C 101.730469 73.214844 101.648438 73.417969 101.730469 74.007812 L 104.597656 93.949219 L 100.878906 96.726562 L 97.847656 98.660156 C 96.664062 99.332031 95.800781 99.679688 95.261719 99.707031 C 94.5625 90.820312 92.757812 80.585938 89.847656 69.011719 C 91.542969 68.125 92.757812 67.429688 93.484375 66.917969 M 106.09375 99.949219 C 108.035156 99.277344 110 99.464844 111.996094 100.511719 C 113.613281 101.371094 115.011719 102.648438 116.199219 104.339844 C 116.46875 105.816406 116.007812 107.242188 114.824219 108.609375 C 113.613281 110.035156 112.171875 110.785156 110.5 110.867188 C 110.3125 110.894531 110.285156 111.203125 110.417969 111.792969 C 110.554688 112.382812 110.714844 112.691406 110.902344 112.71875 L 110.984375 112.757812 L 111.066406 112.757812 L 112.480469 113.160156 C 113.289062 113.457031 113.679688 113.738281 113.652344 114.007812 C 113.515625 115.054688 112.640625 115.765625 111.023438 116.144531 L 107.953125 116.34375 L 107.226562 107.84375 L 106.09375 99.949219 M 106.5 107.683594 C 107.65625 119.257812 107.65625 129.460938 106.5 138.296875 C 106.039062 141.898438 105.273438 146.058594 104.195312 150.785156 L 101.285156 163.113281 L 100.800781 165.085938 C 99.964844 165.757812 98.644531 166.253906 96.839844 166.574219 C 94.710938 167.003906 92.164062 167.03125 89.199219 166.65625 L 82.207031 165.367188 C 82.585938 158.359375 82.800781 153.042969 82.855469 149.414062 C 82.988281 142.675781 82.53125 136.96875 81.480469 132.296875 C 82.828125 129.34375 84.230469 126.84375 85.683594 124.804688 C 85.84375 124.617188 85.804688 124.238281 85.5625 123.675781 C 85.320312 123.113281 85.15625 122.910156 85.078125 123.070312 C 83.351562 125.460938 81.734375 128.402344 80.226562 131.894531 C 79.3125 133.988281 78.113281 137.117188 76.628906 141.277344 L 73.476562 150.988281 C 72.210938 154.878906 71.011719 158.0625 69.878906 160.535156 C 68.371094 163.78125 66.902344 166.214844 65.476562 167.824219 C 64.667969 168.710938 63.46875 169.355469 61.878906 169.757812 L 61.796875 169.757812 L 55.976562 170.082031 C 53.769531 169.917969 51.519531 169.222656 49.226562 167.984375 L 47.328125 166.777344 L 46.722656 166.253906 L 46.679688 165.246094 C 46.679688 162.804688 47.179688 159.835938 48.175781 156.34375 L 50.882812 147.644531 C 52.691406 141.304688 54.320312 134.308594 55.773438 126.65625 C 56.691406 121.769531 57.417969 117.3125 57.957031 113.28125 C 60.761719 115.59375 64.328125 117.230469 68.667969 118.199219 C 72.953125 119.164062 77.480469 119.378906 82.25 118.84375 C 87.070312 118.304688 91.558594 117.148438 95.707031 115.378906 C 100.421875 113.363281 104.019531 110.800781 106.5 107.683594 M 101.164062 166.859375 L 101.40625 167.058594 C 105.582031 168.617188 108.800781 170.46875 111.066406 172.617188 L 111.308594 172.375 C 111.414062 172.242188 111.484375 172.351562 111.511719 172.699219 L 111.105469 172.660156 L 111.066406 172.617188 L 110.378906 173.019531 C 109.597656 173.449219 108.480469 173.773438 107.023438 173.988281 C 104.195312 174.417969 101.148438 174.230469 97.890625 173.425781 C 94.789062 172.671875 91.949219 171.492188 89.363281 169.878906 L 89.199219 169.917969 L 88.3125 170.886719 C 87.878906 171.371094 86.667969 171.179688 84.671875 170.320312 C 83.863281 170 83.394531 169.597656 83.257812 169.113281 L 83.300781 167.339844 C 88.824219 168.523438 93.296875 168.925781 96.71875 168.550781 C 98.898438 168.335938 100.382812 167.769531 101.164062 166.859375 M 11.355469 68.207031 L 11.074219 68.007812 L 10.914062 68.289062 C 10.886719 69.199219 10.386719 69.941406 9.417969 70.503906 L 9.296875 70.664062 L 6.144531 70.867188 L 4.769531 71.148438 C 4.527344 69.859375 4.566406 68.691406 4.890625 67.644531 C 5.347656 66.113281 6.34375 65.238281 7.882812 65.023438 C 10.414062 64.648438 13.1875 65.832031 16.207031 68.570312 L 17.824219 70.261719 L 18.148438 70.625 C 18.820312 71.429688 19.386719 72.261719 19.84375 73.121094 C 20.867188 75 21.085938 76.613281 20.492188 77.957031 L 20.207031 78.480469 C 20.101562 78.695312 20.15625 79.082031 20.371094 79.648438 C 20.585938 80.210938 20.746094 80.414062 20.855469 80.25 L 21.257812 79.527344 L 21.542969 78.960938 C 22.027344 80.628906 21.945312 82.238281 21.300781 83.796875 C 20.625 85.460938 19.425781 86.84375 17.703125 87.945312 C 16.003906 89.019531 14.160156 89.597656 12.164062 89.679688 C 10.0625 89.757812 8.203125 89.261719 6.589844 88.1875 C 4.484375 86.789062 4.878906 85.488281 7.761719 84.28125 C 10.078125 83.3125 12.207031 82.828125 14.144531 82.828125 C 15.25 82.828125 16.003906 83.070312 16.410156 83.554688 C 16.839844 84.09375 16.585938 84.695312 15.640625 85.367188 C 14.777344 85.984375 13.726562 86.335938 12.488281 86.414062 C 11.4375 86.46875 10.332031 86.320312 9.175781 85.972656 C 8.984375 85.917969 8.945312 86.199219 9.054688 86.816406 C 9.132812 87.433594 9.28125 87.769531 9.496094 87.824219 C 10.980469 88.253906 12.367188 88.375 13.660156 88.1875 C 15.117188 87.945312 16.316406 87.316406 17.257812 86.292969 C 17.664062 85.8125 17.808594 85.167969 17.703125 84.359375 C 17.59375 83.636719 17.339844 83.003906 16.933594 82.46875 L 16.609375 82.105469 C 16.800781 81.703125 16.894531 81.230469 16.894531 80.695312 C 16.867188 79.808594 16.597656 78.976562 16.085938 78.199219 C 15.683594 77.554688 15.15625 77.042969 14.507812 76.667969 L 14.753906 75.621094 C 14.777344 74.707031 14.523438 73.820312 13.984375 72.960938 C 13.390625 71.992188 12.503906 71.335938 11.316406 70.988281 C 11.53125 70.558594 11.652344 70.058594 11.679688 69.496094 C 11.734375 69.09375 11.625 68.664062 11.355469 68.207031 M 2.707031 80.816406 C 3.113281 80.089844 3.878906 79.488281 5.011719 79.003906 L 7.882812 78.15625 C 10.253906 77.539062 12.339844 77.539062 14.144531 78.15625 C 14.898438 78.398438 15.453125 78.800781 15.804688 79.367188 C 16.234375 80.035156 16.046875 80.601562 15.238281 81.058594 L 15.117188 81.21875 L 13.457031 80.9375 L 9.496094 81.539062 C 7.316406 82.050781 5.832031 82.75 5.050781 83.636719 C 4.054688 83.339844 3.382812 83.042969 3.03125 82.75 C 2.382812 82.265625 2.277344 81.621094 2.707031 80.816406 M 3.070312 73.6875 L 5.78125 72.921875 C 8.152344 72.304688 10.226562 72.304688 12.003906 72.921875 C 12.894531 73.214844 13.472656 73.660156 13.742188 74.25 C 14.011719 74.921875 13.726562 75.511719 12.894531 76.023438 L 12.894531 76.0625 L 12.570312 75.980469 L 8.246094 76.101562 C 5.308594 76.558594 3.355469 77.433594 2.382812 78.722656 C 1.441406 78.15625 0.835938 77.671875 0.566406 77.269531 C 0.1875 76.707031 0.269531 76.050781 0.808594 75.296875 C 1.238281 74.652344 1.992188 74.117188 3.070312 73.6875 M 19.320312 70.585938 L 19.480469 70.625 C 21.878906 70.972656 23.792969 72.035156 25.21875 73.808594 C 26.621094 75.550781 27.320312 77.660156 27.320312 80.132812 C 27.320312 82.089844 26.890625 83.835938 26.027344 85.367188 C 25.003906 87.140625 23.601562 88.160156 21.824219 88.429688 L 21.703125 88.550781 L 20.085938 88.507812 C 21.21875 87.382812 21.972656 85.929688 22.351562 84.160156 C 22.808594 81.929688 22.578125 79.675781 21.664062 77.390625 L 21.621094 77.3125 C 21.597656 75.644531 20.921875 73.660156 19.601562 71.347656 L 19.15625 70.585938 L 19.320312 70.585938 M 69.71875 18.582031 L 69.273438 18.660156 L 66.042969 20.351562 L 65.71875 20.675781 C 65.71875 20.78125 65.839844 20.847656 66.082031 20.875 L 69.394531 20.957031 C 69.664062 20.984375 69.894531 20.902344 70.082031 20.714844 C 70.269531 20.527344 70.351562 20.285156 70.324219 19.988281 L 70.246094 19.183594 C 70.191406 18.78125 70.015625 18.582031 69.71875 18.582031 M 76.308594 26.03125 L 76.105469 25.75 L 76.023438 25.75 C 75.78125 25.695312 75.539062 25.898438 75.296875 26.355469 L 73.4375 29.457031 L 71.375 31.914062 L 69.960938 33.445312 C 69.609375 33.792969 69.558594 34.222656 69.800781 34.734375 L 71.417969 37.511719 C 71.6875 37.835938 72.023438 38.023438 72.425781 38.078125 L 73.316406 37.914062 C 73.53125 37.886719 73.679688 37.792969 73.761719 37.632812 C 73.839844 37.472656 73.816406 37.285156 73.679688 37.070312 L 72.347656 34.976562 L 72.183594 34.332031 L 72.347656 33.644531 L 74.285156 30.542969 C 75.039062 29.308594 75.6875 27.992188 76.226562 26.597656 L 76.308594 26.03125 M 84.390625 26.152344 L 84.351562 26.152344 C 83.945312 26.125 83.582031 26.367188 83.257812 26.878906 C 82.910156 27.363281 82.691406 27.980469 82.613281 28.730469 C 82.53125 29.484375 82.613281 30.140625 82.855469 30.703125 C 83.097656 31.269531 83.421875 31.5625 83.824219 31.589844 C 84.230469 31.644531 84.605469 31.417969 84.957031 30.90625 C 85.28125 30.421875 85.480469 29.804688 85.5625 29.054688 C 85.644531 28.300781 85.574219 27.644531 85.359375 27.078125 C 85.117188 26.515625 84.792969 26.207031 84.390625 26.152344 M 63.980469 18.378906 L 61.351562 22.6875 C 60.734375 21.320312 60.410156 20.378906 60.382812 19.871094 C 60.300781 19.011719 60.371094 18.285156 60.585938 17.695312 C 60.828125 17.078125 61.136719 16.78125 61.515625 16.808594 C 61.757812 16.808594 61.972656 16.929688 62.160156 17.171875 C 62.671875 17.734375 63.277344 18.136719 63.980469 18.378906 M 65.839844 29.535156 C 66.054688 30.101562 66.363281 30.394531 66.769531 30.421875 L 66.808594 30.421875 C 67.1875 30.476562 67.550781 30.25 67.898438 29.738281 C 68.25 29.199219 68.453125 28.570312 68.507812 27.84375 C 68.585938 27.09375 68.519531 26.433594 68.304688 25.871094 C 68.0625 25.335938 67.738281 25.039062 67.335938 24.984375 L 67.292969 24.984375 C 66.917969 24.957031 66.554688 25.1875 66.203125 25.667969 C 65.851562 26.207031 65.648438 26.839844 65.597656 27.5625 C 65.515625 28.316406 65.597656 28.972656 65.839844 29.535156 M 65.3125 41.902344 L 67.496094 42.46875 L 71.980469 43.191406 L 73.113281 43.234375 C 75.242188 43.234375 78.03125 42.667969 81.480469 41.539062 L 82.449219 41.421875 C 82.855469 41.472656 83.191406 41.621094 83.460938 41.863281 C 83.785156 42.160156 83.839844 42.46875 83.621094 42.789062 C 83.488281 43.003906 83.257812 43.179688 82.933594 43.3125 C 79.863281 44.65625 77.75 45.476562 76.589844 45.769531 L 72.546875 46.011719 C 71.445312 45.929688 70.59375 45.769531 70 45.527344 L 65.152344 43.472656 C 64.773438 43.367188 64.546875 43.042969 64.464844 42.507812 C 64.355469 42.050781 64.597656 41.851562 65.191406 41.902344 L 65.3125 41.902344 M 70.246094 49.4375 L 71.539062 50.242188 C 71.753906 50.375 72.105469 50.46875 72.589844 50.523438 L 73.960938 50.402344 C 74.207031 50.375 74.40625 50.269531 74.570312 50.082031 C 74.730469 49.894531 74.796875 49.691406 74.769531 49.476562 C 74.71875 49.074219 74.449219 48.84375 73.960938 48.792969 L 70.367188 48.953125 L 69.960938 49.113281 L 70.246094 49.4375 M 25.339844 72.4375 C 24.640625 71.523438 23.847656 70.785156 22.957031 70.222656 C 30.554688 69.199219 37.953125 66.570312 45.144531 62.328125 C 49.589844 59.722656 52.890625 57.960938 55.046875 57.050781 C 57.957031 55.8125 60.785156 55.0625 63.535156 54.792969 C 63.832031 58.472656 65.273438 61.667969 67.859375 64.378906 C 69.097656 65.617188 70.769531 66.769531 72.871094 67.84375 C 73.597656 68.222656 74.621094 68.582031 75.941406 68.933594 L 78.730469 69.777344 C 79.511719 74.101562 80.171875 78.464844 80.710938 82.871094 L 81.5625 91.8125 L 81.882812 97.128906 L 82.167969 99.707031 C 82.273438 100.890625 82.179688 101.707031 81.882812 102.164062 L 80.996094 103.171875 L 79.5 103.292969 C 77.992188 103.375 76.386719 103.347656 74.691406 103.210938 C 72.078125 103.078125 69.273438 102.515625 66.285156 101.519531 C 63.5625 100.609375 61.136719 99.386719 59.007812 97.855469 C 59.007812 93.210938 58.660156 88.859375 57.957031 84.804688 L 61.796875 83.351562 C 62.011719 83.246094 62.027344 82.898438 61.835938 82.304688 C 61.648438 81.6875 61.460938 81.40625 61.273438 81.460938 C 54.429688 84.171875 47.21875 86.121094 39.648438 87.300781 C 34.960938 88.027344 30.3125 88.441406 25.707031 88.550781 C 26.269531 87.90625 26.757812 87.101562 27.160156 86.132812 C 27.941406 84.144531 28.222656 81.917969 28.007812 79.445312 C 27.765625 76.679688 26.878906 74.34375 25.339844 72.4375 M 58.402344 175.640625 C 56.839844 176.875 54.832031 177.867188 52.378906 178.621094 C 49.660156 179.507812 47.707031 178.554688 46.519531 175.761719 C 45.359375 172.996094 45.875 170.765625 48.054688 169.074219 C 49.914062 170.46875 52.515625 171.394531 55.855469 171.851562 C 57.582031 172.121094 59.320312 172.121094 61.070312 171.851562 L 61.351562 171.8125 C 60.839844 173.210938 59.855469 174.484375 58.402344 175.640625 "/>
</g>
</svg>
