<?xml version="1.0" encoding="UTF-8"?>
<svg xmlns="http://www.w3.org/2000/svg" xmlns:xlink="http://www.w3.org/1999/xlink" width="128pt" height="226pt" viewBox="0 0 128 226" version="1.1">
<g id="surface1">
<path style=" stroke:none;fill-rule:nonzero;fill:rgb(100%,100%,100%);fill-opacity:1;" d="M 85.886719 5.363281 C 87.847656 5.769531 89.574219 7.101562 91.0625 9.363281 L 93.75 13.207031 C 95.035156 13.847656 96.320312 15.25 97.605469 17.40625 C 98.515625 18.960938 99.292969 20.613281 99.9375 22.367188 C 101.019531 25.402344 100.984375 29.300781 99.835938 34.058594 C 99.261719 36.417969 98.566406 38.476562 97.757812 40.230469 C 97.316406 37.296875 96.167969 34.78125 94.308594 32.691406 L 92.175781 30.566406 L 90.605469 29.199219 L 93.546875 26.769531 C 94.660156 25.554688 95.1875 24.476562 95.117188 23.53125 C 95.015625 22.183594 94.628906 21.019531 93.953125 20.039062 C 93.039062 18.65625 91.6875 17.914062 89.894531 17.8125 L 88.777344 17.8125 L 85.175781 18.773438 C 83.585938 19.347656 82.539062 19.617188 82.03125 19.582031 L 81.726562 19.535156 C 81.523438 19.464844 80.476562 18.25 78.582031 15.890625 C 76.789062 13.628906 75.304688 12.464844 74.121094 12.398438 L 73.257812 12.5 L 71.378906 13.410156 C 70.433594 13.949219 69.859375 14.253906 69.65625 14.320312 L 67.472656 15.433594 C 66.832031 15.804688 66.308594 15.972656 65.902344 15.941406 L 65.292969 15.738281 L 63.925781 14.929688 C 62.671875 14.21875 61.808594 13.832031 61.335938 13.765625 L 58.953125 14.371094 C 58.277344 14.710938 57.078125 15.789062 55.351562 17.609375 L 52.664062 20.445312 C 51.242188 21.523438 49.839844 22.011719 48.453125 21.910156 C 47.574219 21.84375 46.8125 21.472656 46.171875 20.796875 C 45.019531 19.550781 44.292969 17.949219 43.988281 15.992188 C 43.71875 14.101562 43.886719 12.449219 44.496094 11.03125 C 45.039062 9.851562 45.765625 8.90625 46.679688 8.199219 C 46.40625 9.414062 46.679688 10.390625 47.488281 11.132812 C 48.402344 11.941406 49.449219 12.398438 50.632812 12.5 C 52.292969 12.601562 53.796875 12.011719 55.148438 10.726562 C 58.394531 7.488281 60.625 5.769531 61.84375 5.566406 L 63.0625 5.515625 L 65.445312 6.125 C 66.390625 6.527344 67.050781 6.746094 67.421875 6.78125 C 67.929688 6.78125 68.386719 6.628906 68.792969 6.324219 L 70.773438 3.996094 C 72.632812 1.367188 74 0.0351562 74.878906 0 L 75.183594 0 C 76.199219 0.0351562 77.382812 0.605469 78.734375 1.71875 L 80.003906 2.882812 C 80.476562 3.324219 80.96875 3.644531 81.472656 3.847656 C 83.265625 4.621094 84.738281 5.128906 85.886719 5.363281 M 88.878906 19.683594 C 90.738281 19.855469 91.90625 20.949219 92.378906 22.972656 C 92.921875 25.132812 91.769531 26.871094 88.929688 28.1875 L 88.472656 28.589844 C 88.238281 28.929688 88.339844 29.234375 88.777344 29.503906 L 93.292969 33.246094 C 95.761719 35.945312 96.859375 38.898438 96.589844 42.101562 C 95.84375 39.675781 94.660156 37.363281 93.039062 35.171875 C 91.179688 32.875 89.910156 31.59375 89.234375 31.324219 L 88.878906 31.222656 C 88.542969 31.1875 88.320312 31.308594 88.21875 31.578125 C 88.117188 31.8125 88.203125 32.03125 88.472656 32.234375 L 89.691406 33.347656 L 92.074219 35.929688 C 93.496094 37.515625 94.933594 40.046875 96.386719 43.519531 L 96.082031 44.683594 C 94.964844 41.816406 93.679688 39.574219 92.226562 37.953125 C 91.078125 36.605469 90.011719 35.710938 89.03125 35.269531 L 88.828125 35.222656 C 88.523438 35.1875 88.355469 35.355469 88.320312 35.726562 C 88.289062 36.132812 88.492188 36.484375 88.929688 36.789062 L 91.3125 38.863281 C 92.667969 40.449219 94.136719 42.726562 95.726562 45.695312 L 95.675781 45.746094 C 95.542969 46.117188 95.523438 46.472656 95.625 46.808594 L 93.902344 46.152344 C 93.867188 46.355469 93.933594 46.589844 94.105469 46.859375 C 96.371094 48.851562 96.808594 51.179688 95.421875 53.84375 C 94.105469 56.441406 92.007812 57.636719 89.132812 57.4375 L 88.371094 57.335938 C 84.921875 62.5625 80.898438 66.425781 76.300781 68.921875 C 75.828125 69.160156 75.605469 69.378906 75.640625 69.582031 C 75.640625 69.75 75.859375 69.851562 76.300781 69.886719 C 77.6875 70.019531 79.378906 69.496094 81.371094 68.316406 C 80.898438 70.8125 78.988281 72.953125 75.640625 74.742188 C 72.53125 76.394531 69.570312 77.105469 66.765625 76.867188 C 65.511719 76.800781 64.515625 76.480469 63.773438 75.90625 L 64.023438 75.957031 L 67.375 75.503906 C 68.929688 75.132812 69.671875 74.808594 69.605469 74.539062 L 69.402344 74.4375 L 68.234375 74.488281 L 66.054688 74.488281 C 63.28125 74.289062 60.222656 73.308594 56.875 71.554688 C 50.855469 68.382812 46.59375 63.273438 44.089844 56.222656 C 41.722656 49.507812 41.488281 42.726562 43.382812 35.878906 C 44.566406 31.660156 46.628906 27.460938 49.570312 23.277344 C 50.785156 23.175781 52.171875 22.585938 53.730469 21.507812 L 56.46875 18.570312 L 59.765625 15.433594 L 60.828125 15.28125 C 61.808594 15.351562 62.925781 15.839844 64.175781 16.75 C 64.785156 17.054688 65.429688 17.238281 66.105469 17.308594 C 67.289062 17.40625 68.757812 17.035156 70.519531 16.195312 L 73.003906 15.789062 C 75.335938 15.957031 77.367188 17.207031 79.089844 19.535156 C 79.664062 20.277344 80.410156 20.679688 81.320312 20.746094 L 84.0625 20.34375 L 88.574219 19.683594 L 88.878906 19.683594 M 77.46875 29.148438 C 78.210938 29.652344 78.683594 29.925781 78.886719 29.957031 L 78.9375 29.957031 C 79.242188 29.148438 78.734375 27.898438 77.417969 26.214844 L 75.386719 23.9375 L 74.878906 23.734375 C 74.507812 23.699219 74.21875 23.835938 74.019531 24.136719 L 73.207031 25.050781 C 72.699219 25.691406 72.511719 26.113281 72.648438 26.3125 L 73.5625 26.820312 L 75.386719 27.78125 L 77.46875 29.148438 M 91.214844 41.140625 L 88.878906 39.21875 L 88.726562 39.21875 C 88.421875 39.183594 88.203125 39.304688 88.066406 39.574219 C 87.933594 39.875 88.066406 40.179688 88.472656 40.484375 L 88.574219 40.585938 L 90.351562 41.953125 L 91.617188 43.519531 C 92.09375 44.195312 92.414062 44.550781 92.582031 44.582031 L 92.785156 44.378906 C 92.851562 44.109375 92.71875 43.621094 92.378906 42.914062 L 91.214844 41.140625 M 88.523438 43.066406 C 88.253906 43.03125 88.050781 43.164062 87.914062 43.46875 C 87.816406 43.773438 87.882812 44.007812 88.117188 44.179688 L 88.777344 44.785156 L 89.386719 45.949219 C 89.386719 46.355469 89.574219 46.554688 89.945312 46.554688 C 90.382812 46.625 90.605469 46.371094 90.605469 45.796875 L 89.945312 44.226562 L 88.777344 43.164062 L 88.523438 43.066406 M 75.640625 52.425781 L 75.132812 51.71875 L 70.316406 47.769531 L 69.960938 47.617188 C 69.757812 47.550781 69.707031 47.71875 69.808594 48.125 L 70.316406 49.792969 C 70.417969 50.03125 70.332031 50.300781 70.0625 50.605469 C 69.824219 50.839844 69.554688 50.992188 69.25 51.058594 C 64.515625 52.441406 61 53.167969 58.699219 53.234375 L 57.328125 53.234375 L 52.105469 52.324219 L 49.46875 51.617188 C 49.199219 51.582031 48.976562 51.429688 48.808594 51.160156 L 48.605469 50.402344 L 48.707031 49.695312 L 48.503906 49.1875 L 48.097656 49.441406 L 46.070312 51.566406 C 45.628906 52.070312 45.5625 52.613281 45.867188 53.183594 L 47.792969 56.675781 L 48.097656 57.03125 C 48.234375 57.03125 48.300781 56.878906 48.300781 56.574219 L 48.351562 56.070312 C 48.351562 55.53125 48.589844 55.292969 49.0625 55.363281 L 49.316406 55.410156 L 52.410156 57.539062 C 54.878906 58.953125 57.144531 59.746094 59.207031 59.914062 L 59.257812 59.914062 C 61.320312 60.050781 64.125 59.273438 67.675781 57.589844 L 72.34375 55.007812 L 72.75 54.957031 C 73.222656 55.023438 73.578125 55.226562 73.816406 55.5625 L 73.664062 57.890625 L 74.019531 58.195312 C 74.1875 58.261719 74.320312 58.128906 74.421875 57.789062 L 75.691406 53.285156 L 75.640625 52.425781 M 92.9375 71.808594 C 102.238281 75.382812 110.148438 80.375 116.675781 86.785156 C 120.902344 90.902344 124.132812 95.253906 126.363281 99.84375 L 127.378906 101.917969 C 127.75 102.863281 127.867188 103.605469 127.734375 104.144531 L 126.820312 107.128906 C 123.914062 116.136719 119.398438 123.507812 113.277344 129.242188 C 111.6875 126.917969 109.828125 125.179688 107.699219 124.03125 C 105.230469 122.683594 102.777344 122.34375 100.34375 123.019531 L 99.835938 120.335938 C 99.53125 118.652344 100.308594 115.714844 102.167969 111.53125 C 103.523438 108.429688 105.246094 105.882812 107.34375 103.890625 C 107.578125 103.6875 107.5625 103.214844 107.292969 102.472656 C 106.988281 101.765625 106.75 101.496094 106.582031 101.664062 C 104.046875 104.058594 102.085938 107.128906 100.699219 110.875 C 99.953125 112.796875 99.445312 114.46875 99.175781 115.882812 L 95.929688 93.566406 L 95.929688 93.367188 C 95.863281 92.824219 95.675781 92.421875 95.371094 92.152344 C 95.066406 91.914062 94.964844 92.167969 95.066406 92.910156 L 98.566406 117.453125 L 94.257812 121.550781 C 90.535156 124.589844 88.085938 126.207031 86.902344 126.410156 C 85.582031 112.511719 83.332031 99.253906 80.15625 86.636719 C 82.285156 85.523438 83.808594 84.644531 84.71875 84.003906 C 86.308594 82.855469 87.578125 81.472656 88.523438 79.855469 C 90.011719 77.289062 90.332031 74.1875 89.488281 70.542969 L 92.9375 71.808594 M 79.089844 85.722656 C 81.726562 95.914062 83.757812 106.625 85.175781 117.859375 L 85.582031 122.5625 L 86.140625 127.269531 C 86.34375 128.25 86.75 128.773438 87.359375 128.839844 C 87.695312 128.871094 88.339844 128.570312 89.285156 127.929688 L 91.164062 126.613281 L 94.359375 124.285156 L 98.972656 120.136719 L 100.699219 132.332031 L 100.597656 132.382812 C 97.859375 136.96875 92.648438 141.167969 84.972656 144.980469 C 78.617188 148.121094 72.039062 149.957031 65.242188 150.496094 C 58.480469 151.039062 52.207031 150.210938 46.425781 148.019531 C 46.695312 147.175781 46.746094 146.179688 46.578125 145.03125 L 47.183594 145.082031 C 48.46875 145.21875 49.367188 144.730469 49.875 143.617188 C 50.28125 142.703125 50.363281 141.609375 50.128906 140.328125 C 49.957031 139.484375 49.5 138.691406 48.757812 137.949219 L 46.578125 136.125 L 42.671875 133.546875 C 41.285156 132.5 40.371094 131.285156 39.933594 129.902344 C 39.492188 128.484375 39.628906 126.847656 40.335938 124.992188 L 40.285156 127.320312 L 40.085938 127.21875 C 39.949219 127.117188 39.914062 127.4375 39.984375 128.179688 C 40.085938 128.921875 40.253906 129.378906 40.488281 129.546875 L 40.996094 129.851562 L 41.097656 129.953125 C 46.171875 133.089844 52.222656 134.878906 59.257812 135.316406 L 67.171875 135.0625 L 69.503906 134.859375 C 70.585938 134.691406 71.195312 134.304688 71.328125 133.699219 C 71.53125 132.820312 71.582031 131.621094 71.480469 130.105469 L 71.226562 126.410156 L 70.671875 116.289062 C 70.027344 107.214844 68.808594 97.785156 67.019531 88 L 66.816406 86.585938 C 66.679688 85.910156 66.460938 85.523438 66.15625 85.421875 L 63.214844 84.507812 L 60.222656 83.648438 C 57.378906 82.535156 54.914062 81.019531 52.816406 79.09375 C 50.449219 76.867188 48.976562 74.421875 48.402344 71.757812 C 48.300781 71.25 48.082031 70.863281 47.742188 70.59375 C 47.4375 70.324219 47.371094 70.578125 47.539062 71.351562 C 48.316406 75.097656 50.179688 78.402344 53.121094 81.269531 C 54.640625 82.722656 56.601562 84.039062 59.003906 85.21875 L 62.808594 86.535156 L 66.207031 87.546875 C 68.777344 101.75 70.164062 115.800781 70.367188 129.699219 C 70.398438 130.914062 70.246094 131.671875 69.910156 131.976562 C 69.671875 132.179688 68.910156 132.382812 67.625 132.582031 L 61.4375 133.039062 C 58.359375 133.140625 54.980469 132.769531 51.292969 131.925781 C 47.710938 131.148438 44.363281 129.835938 41.25 127.980469 C 41.453125 119.140625 40.929688 110.183594 39.679688 101.109375 C 41.570312 99.960938 43.382812 98.695312 45.105469 97.3125 C 45.34375 97.109375 45.324219 96.636719 45.054688 95.894531 C 44.785156 95.1875 44.53125 94.917969 44.292969 95.085938 C 42.601562 96.46875 40.792969 97.734375 38.867188 98.882812 L 38.664062 98.984375 C 37.34375 99.691406 35.992188 100.367188 34.605469 101.007812 C 31.023438 102.59375 27.402344 103.65625 23.75 104.195312 L 23.699219 104.246094 C 22.484375 102.726562 21.164062 101.429688 19.742188 100.347656 C 19.609375 100.214844 19.59375 100.515625 19.695312 101.257812 C 19.792969 102 19.964844 102.457031 20.199219 102.625 C 25.136719 106.472656 28.738281 112.832031 31.003906 121.703125 C 28.300781 122.242188 26.101562 123.980469 24.410156 126.917969 C 23.226562 128.941406 22.230469 131.707031 21.417969 135.214844 L 20.402344 134.710938 C 19.085938 134.035156 17.527344 132.988281 15.738281 131.570312 C 10.5625 127.355469 6.320312 121.753906 3.003906 114.769531 C 1.417969 111.398438 0.535156 108.3125 0.367188 105.511719 C 0.164062 102.304688 0.890625 99.269531 2.550781 96.402344 C 6.945312 89.011719 13.878906 82.890625 23.34375 78.03125 C 31.359375 73.917969 40.320312 71.082031 50.230469 69.53125 L 50.429688 69.53125 L 50.582031 69.429688 C 52.375 70.8125 54.371094 71.976562 56.570312 72.921875 C 57.378906 74.808594 58.664062 76.292969 60.425781 77.375 C 62.011719 78.351562 63.90625 78.925781 66.105469 79.09375 C 70.398438 79.433594 74.40625 78.351562 78.125 75.855469 C 81.101562 73.867188 83.011719 71.488281 83.859375 68.722656 L 88.625 70.238281 C 89.402344 73.546875 88.675781 76.632812 86.445312 79.5 C 85.597656 80.578125 84.484375 81.539062 83.097656 82.382812 C 82.691406 82.652344 81.371094 83.347656 79.140625 84.460938 C 78.972656 84.527344 78.953125 84.949219 79.089844 85.722656 M 100.546875 125.5 C 102.945312 124.65625 105.398438 124.890625 107.902344 126.207031 C 109.964844 127.320312 111.738281 128.957031 113.226562 131.117188 C 113.53125 132.9375 112.957031 134.691406 111.503906 136.378906 C 109.945312 138.167969 108.121094 139.113281 106.023438 139.214844 C 105.820312 139.246094 105.804688 139.636719 105.972656 140.378906 C 106.140625 141.121094 106.34375 141.507812 106.582031 141.539062 L 106.683594 141.589844 L 106.785156 141.589844 L 108.507812 142.097656 C 109.523438 142.46875 110.015625 142.824219 109.980469 143.160156 C 109.8125 144.476562 108.710938 145.371094 106.683594 145.84375 L 102.828125 146.09375 L 101.964844 135.417969 L 100.546875 125.5 M 101.054688 135.265625 C 102.472656 149.804688 102.472656 162.609375 101.054688 173.675781 C 100.476562 178.160156 99.515625 183.390625 98.160156 189.363281 L 94.460938 204.847656 L 93.902344 207.328125 C 92.820312 208.171875 91.164062 208.792969 88.929688 209.199219 C 86.257812 209.738281 83.046875 209.773438 79.292969 209.300781 L 70.570312 207.679688 C 71.007812 198.875 71.277344 192.195312 71.378906 187.640625 C 71.515625 179.375 70.941406 172.324219 69.65625 166.488281 L 71.886719 161.933594 C 73.070312 159.605469 74.085938 157.871094 74.929688 156.722656 C 75.101562 156.484375 75.050781 156.015625 74.777344 155.304688 C 74.472656 154.597656 74.253906 154.328125 74.121094 154.496094 C 71.988281 157.5 69.976562 161.191406 68.082031 165.578125 C 66.933594 168.242188 65.429688 172.191406 63.570312 177.417969 L 59.613281 189.617188 C 58.023438 194.507812 56.519531 198.503906 55.097656 201.609375 C 53.273438 205.589844 51.414062 208.644531 49.519531 210.769531 C 48.503906 211.882812 47 212.675781 45.003906 213.144531 L 44.902344 213.195312 L 37.597656 213.601562 C 34.859375 213.398438 32.035156 212.523438 29.128906 210.96875 L 26.742188 209.453125 L 26.035156 208.84375 L 25.933594 207.53125 C 25.964844 204.460938 26.609375 200.730469 27.859375 196.347656 L 31.257812 185.414062 C 33.660156 176.914062 35.722656 167.957031 37.445312 158.542969 L 38.257812 153.988281 L 38.207031 153.433594 C 40.84375 153.90625 42.097656 152.707031 41.960938 149.839844 L 43.179688 150.042969 C 44.023438 150.109375 44.734375 149.976562 45.308594 149.636719 L 45.460938 149.789062 C 51.648438 152.421875 58.394531 153.433594 65.699219 152.824219 C 72.394531 152.253906 79.039062 150.414062 85.632812 147.308594 C 92.871094 143.902344 98.011719 139.886719 101.054688 135.265625 M 94.613281 209.804688 C 99.820312 211.730469 103.859375 214.058594 106.734375 216.789062 L 107.039062 216.488281 C 107.171875 216.316406 107.273438 216.453125 107.34375 216.890625 L 106.835938 216.839844 L 106.734375 216.789062 L 105.921875 217.296875 C 104.875 217.871094 103.453125 218.273438 101.660156 218.511719 C 98.144531 219.050781 94.324219 218.8125 90.199219 217.800781 C 86.308594 216.859375 82.757812 215.371094 79.546875 213.347656 L 79.34375 213.398438 L 78.226562 214.613281 L 75.996094 214.765625 L 73.613281 213.90625 C 72.632812 213.5 72.054688 212.996094 71.886719 212.386719 L 71.886719 210.160156 C 78.820312 211.644531 84.449219 212.152344 88.777344 211.679688 C 91.515625 211.410156 93.378906 210.699219 94.359375 209.554688 L 94.613281 209.804688 M 54.84375 23.277344 L 54.335938 23.378906 L 50.28125 25.503906 L 49.875 25.910156 C 49.875 26.042969 50.027344 26.128906 50.332031 26.164062 L 54.488281 26.265625 C 54.828125 26.296875 55.097656 26.195312 55.300781 25.960938 C 55.539062 25.722656 55.640625 25.421875 55.605469 25.050781 L 55.554688 24.039062 C 55.488281 23.53125 55.25 23.277344 54.84375 23.277344 M 59.511719 36.941406 C 58.800781 37.988281 57.347656 39.65625 55.148438 41.953125 L 54.84375 42.710938 L 54.996094 43.519531 L 56.976562 47.0625 C 57.277344 47.46875 57.703125 47.703125 58.242188 47.769531 L 59.410156 47.566406 C 59.679688 47.535156 59.847656 47.417969 59.917969 47.214844 C 60.019531 47.011719 60 46.777344 59.867188 46.503906 L 58.191406 43.875 L 57.988281 43.066406 L 58.191406 42.203125 L 60.578125 38.308594 C 61.558594 36.753906 62.367188 35.101562 63.011719 33.347656 C 63.28125 32.707031 63.230469 32.351562 62.859375 32.285156 L 62.808594 32.285156 C 62.46875 32.21875 62.148438 32.472656 61.84375 33.042969 C 61.03125 34.597656 60.253906 35.894531 59.511719 36.941406 M 71.886719 33.703125 C 71.449219 34.308594 71.175781 35.085938 71.074219 36.03125 C 70.972656 36.976562 71.074219 37.800781 71.378906 38.511719 C 71.652344 39.21875 72.039062 39.589844 72.546875 39.625 L 72.597656 39.625 C 73.105469 39.691406 73.578125 39.402344 74.019531 38.761719 C 74.421875 38.15625 74.675781 37.378906 74.777344 36.433594 C 74.878906 35.492188 74.777344 34.664062 74.472656 33.957031 C 74.171875 33.246094 73.765625 32.859375 73.257812 32.792969 C 72.75 32.757812 72.292969 33.0625 71.886719 33.703125 M 47.640625 23.023438 L 44.394531 28.441406 C 43.617188 26.921875 43.195312 25.742188 43.128906 24.898438 C 43.027344 23.851562 43.128906 22.941406 43.433594 22.164062 C 43.734375 21.390625 44.125 21.019531 44.597656 21.050781 L 45.359375 21.507812 C 46.035156 22.25 46.796875 22.753906 47.640625 23.023438 M 50.480469 32.183594 C 50.042969 32.824219 49.773438 33.617188 49.671875 34.5625 C 49.570312 35.507812 49.671875 36.335938 49.976562 37.042969 C 50.246094 37.75 50.632812 38.121094 51.140625 38.15625 L 51.191406 38.15625 C 51.699219 38.222656 52.171875 37.9375 52.613281 37.296875 C 53.019531 36.65625 53.273438 35.863281 53.375 34.917969 C 53.476562 33.972656 53.390625 33.144531 53.121094 32.4375 C 52.816406 31.761719 52.410156 31.390625 51.902344 31.324219 L 51.851562 31.324219 C 51.34375 31.289062 50.886719 31.578125 50.480469 32.183594 M 48.25 53.335938 C 48.148438 52.765625 48.453125 52.511719 49.164062 52.578125 L 49.316406 52.578125 L 52.105469 53.285156 L 57.734375 54.199219 L 59.105469 54.25 C 61.808594 54.25 65.328125 53.539062 69.65625 52.121094 L 70.820312 51.972656 L 72.140625 52.527344 C 72.546875 52.898438 72.613281 53.285156 72.34375 53.691406 C 72.140625 53.960938 71.835938 54.179688 71.429688 54.347656 C 67.574219 56.035156 64.9375 57.066406 63.519531 57.4375 L 58.394531 57.738281 C 57.078125 57.636719 56.011719 57.4375 55.199219 57.132812 L 49.164062 54.550781 C 48.691406 54.417969 48.386719 54.011719 48.25 53.335938 M 55.148438 61.636719 L 55.503906 62.042969 L 57.179688 63.054688 L 58.496094 63.40625 L 60.222656 63.253906 C 60.527344 63.222656 60.777344 63.085938 60.980469 62.851562 C 61.183594 62.613281 61.253906 62.363281 61.183594 62.09375 C 61.117188 61.585938 60.777344 61.300781 60.171875 61.230469 L 55.65625 61.433594 L 55.148438 61.636719 M 39.730469 122.210938 C 38.882812 124.335938 38.613281 126.5625 38.917969 128.890625 C 39.324219 131.925781 40.660156 134.253906 42.925781 135.875 L 45.96875 137.796875 C 47.183594 138.570312 48.148438 139.296875 48.859375 139.972656 L 49.316406 140.578125 C 49.316406 141.492188 48.859375 142.164062 47.945312 142.605469 C 46.324219 143.347656 44.160156 142.773438 41.453125 140.882812 L 36.179688 136.226562 C 35.941406 135.992188 35.855469 136.226562 35.925781 136.9375 C 35.992188 137.679688 36.128906 138.152344 36.332031 138.351562 L 41.25 142.652344 C 42.773438 143.699219 44.261719 144.425781 45.714844 144.832031 C 45.78125 146.011719 45.34375 146.820312 44.394531 147.257812 C 43.414062 147.730469 42.128906 147.730469 40.539062 147.257812 C 37.800781 146.449219 35.011719 144.511719 32.171875 141.441406 C 31.96875 141.203125 31.902344 141.441406 31.96875 142.148438 L 32.324219 143.515625 C 35.230469 146.6875 38.105469 148.710938 40.945312 149.585938 C 40.742188 150.769531 39.949219 151.324219 38.5625 151.257812 C 37.378906 151.222656 35.875 150.769531 34.046875 149.890625 C 30.226562 148.035156 27.082031 145.203125 24.613281 141.390625 C 23.699219 139.9375 22.972656 138.4375 22.433594 136.886719 C 23.210938 133.578125 24.140625 130.980469 25.222656 129.09375 C 26.914062 126.191406 29.144531 124.503906 31.917969 124.03125 L 31.96875 124.03125 L 32.171875 123.929688 C 33.625 122.953125 35.027344 122.292969 36.382812 121.957031 C 37.699219 121.652344 38.816406 121.738281 39.730469 122.210938 M 27.808594 212.183594 C 29.464844 213.367188 31.324219 214.277344 33.386719 214.917969 C 35.753906 215.695312 38.222656 216.046875 40.792969 215.980469 L 44.394531 215.675781 C 43.785156 217.5 42.550781 219.132812 40.691406 220.585938 C 38.730469 222.101562 36.210938 223.351562 33.136719 224.328125 C 29.71875 225.441406 27.269531 224.246094 25.78125 220.738281 C 24.292969 217.261719 24.917969 214.460938 27.65625 212.335938 L 27.808594 212.183594 "/>
</g>
</svg>
