<?xml version="1.0" encoding="UTF-8"?>
<svg xmlns="http://www.w3.org/2000/svg" xmlns:xlink="http://www.w3.org/1999/xlink" width="128pt" height="192pt" viewBox="0 0 128 192" version="1.1">
<g id="surface1">
<path style=" stroke:none;fill-rule:nonzero;fill:rgb(100%,100%,100%);fill-opacity:1;" d="M 86.179688 1.480469 L 87.253906 2.46875 C 87.683594 2.839844 88.117188 3.113281 88.546875 3.285156 C 90.007812 3.945312 91.242188 4.375 92.246094 4.574219 C 93.910156 4.917969 95.371094 6.050781 96.632812 7.96875 L 98.957031 11.238281 C 100.046875 11.78125 101.136719 12.96875 102.226562 14.804688 C 103.003906 16.152344 103.648438 17.554688 104.164062 19.015625 C 105.109375 21.59375 105.082031 24.90625 104.078125 28.945312 C 103.589844 30.953125 103.003906 32.699219 102.3125 34.191406 C 102 31.78125 101.039062 29.648438 99.429688 27.785156 L 96.246094 24.820312 C 97.195312 24.246094 98.027344 23.558594 98.742188 22.757812 C 99.6875 21.726562 100.132812 20.808594 100.078125 20.003906 C 100.019531 18.859375 99.703125 17.871094 99.128906 17.039062 C 98.328125 15.863281 97.164062 15.234375 95.644531 15.148438 L 94.699219 15.148438 L 91.644531 15.964844 C 90.324219 16.453125 89.433594 16.679688 88.976562 16.652344 L 88.71875 16.609375 C 88.546875 16.550781 87.65625 15.519531 86.050781 13.515625 C 84.53125 11.59375 83.269531 10.605469 82.265625 10.550781 L 81.53125 10.636719 L 79.941406 11.410156 L 78.476562 12.226562 L 76.628906 13.171875 C 76.054688 13.457031 75.609375 13.585938 75.292969 13.558594 L 74.777344 13.386719 L 73.660156 12.699219 L 72.539062 12.054688 L 71.421875 11.710938 C 70.847656 11.710938 70.175781 11.882812 69.398438 12.226562 L 66.34375 14.976562 L 64.109375 17.382812 C 62.84375 18.300781 61.65625 18.714844 60.535156 18.628906 C 59.734375 18.574219 59.089844 18.257812 58.601562 17.683594 C 57.625 16.625 56.992188 15.261719 56.707031 13.601562 C 56.449219 11.996094 56.59375 10.59375 57.136719 9.386719 C 57.597656 8.386719 58.214844 7.582031 58.988281 6.980469 C 58.816406 8.070312 59.058594 8.902344 59.71875 9.472656 C 60.4375 10.160156 61.3125 10.550781 62.34375 10.636719 C 63.804688 10.722656 65.082031 10.21875 66.171875 9.128906 L 68.882812 6.59375 C 70.203125 5.476562 71.191406 4.859375 71.851562 4.746094 L 72.882812 4.703125 L 74.90625 5.21875 L 76.585938 5.777344 C 77.015625 5.777344 77.402344 5.648438 77.746094 5.390625 L 79.425781 3.414062 C 81.089844 1.179688 82.265625 0.046875 82.953125 0.0195312 L 83.210938 0.0195312 C 84.042969 0.046875 85.03125 0.535156 86.179688 1.480469 M 94.828125 16.738281 C 96.375 16.882812 97.351562 17.8125 97.753906 19.53125 C 98.183594 21.367188 97.207031 22.84375 94.828125 23.960938 L 94.441406 24.304688 C 94.269531 24.589844 94.355469 24.847656 94.699219 25.078125 L 98.527344 28.257812 C 100.621094 30.550781 101.554688 33.058594 101.324219 35.78125 C 100.605469 33.574219 99.601562 31.609375 98.3125 29.890625 C 96.734375 27.941406 95.660156 26.855469 95.085938 26.625 L 94.785156 26.539062 L 94.226562 26.839844 C 94.140625 27.039062 94.210938 27.226562 94.441406 27.398438 L 95.472656 28.34375 L 97.539062 30.535156 C 98.714844 31.882812 99.917969 34.03125 101.152344 36.984375 L 100.894531 37.972656 L 99.734375 35.394531 L 97.625 32.253906 C 96.648438 31.136719 95.761719 30.378906 94.957031 29.976562 L 94.785156 29.933594 C 94.496094 29.90625 94.339844 30.050781 94.3125 30.363281 C 94.28125 30.707031 94.453125 31.007812 94.828125 31.265625 C 95.660156 31.8125 96.332031 32.398438 96.851562 33.027344 C 97.996094 34.375 99.246094 36.308594 100.59375 38.832031 L 100.59375 38.875 C 100.476562 39.191406 100.464844 39.492188 100.550781 39.777344 L 99.042969 39.21875 L 99.214844 39.863281 C 101.136719 41.554688 101.523438 43.515625 100.378906 45.753906 C 99.230469 47.957031 97.4375 48.976562 95 48.804688 L 94.355469 48.71875 C 91.429688 53.132812 88.03125 56.414062 84.15625 58.5625 C 83.753906 58.761719 83.570312 58.949219 83.597656 59.121094 C 83.597656 59.261719 83.785156 59.347656 84.15625 59.378906 C 85.304688 59.492188 86.722656 59.046875 88.417969 58.046875 C 88.015625 60.167969 86.394531 61.984375 83.554688 63.503906 C 80.945312 64.910156 78.433594 65.523438 76.027344 65.351562 C 74.992188 65.265625 74.148438 64.980469 73.488281 64.492188 L 73.703125 64.535156 L 76.542969 64.148438 C 77.859375 63.835938 78.492188 63.5625 78.433594 63.332031 L 78.261719 63.246094 L 77.273438 63.289062 L 75.421875 63.289062 C 73.070312 63.117188 70.476562 62.285156 67.636719 60.796875 C 62.53125 58.101562 58.929688 53.761719 56.835938 47.773438 C 54.800781 42.070312 54.585938 36.308594 56.191406 30.492188 C 57.195312 26.882812 58.957031 23.316406 61.484375 19.789062 C 62.574219 19.703125 63.734375 19.203125 64.96875 18.285156 L 67.292969 15.792969 L 70.132812 13.128906 L 70.992188 13 C 71.824219 13.054688 72.785156 13.472656 73.875 14.246094 C 74.332031 14.503906 74.863281 14.660156 75.464844 14.71875 C 76.46875 14.777344 77.71875 14.460938 79.210938 13.773438 L 81.359375 13.429688 C 83.28125 13.570312 85.003906 14.632812 86.523438 16.609375 C 87.011719 17.238281 87.640625 17.582031 88.417969 17.640625 L 90.695312 17.296875 L 94.527344 16.738281 L 94.828125 16.738281 M 85.0625 22.285156 L 83.339844 20.347656 L 82.910156 20.175781 C 82.621094 20.121094 82.378906 20.234375 82.179688 20.519531 L 81.53125 21.292969 C 81.101562 21.839844 80.929688 22.199219 81.015625 22.371094 C 81.046875 22.425781 81.304688 22.570312 81.789062 22.800781 L 83.382812 23.617188 L 85.105469 24.777344 C 85.734375 25.207031 86.152344 25.433594 86.351562 25.464844 C 86.609375 24.777344 86.179688 23.714844 85.0625 22.285156 M 96.765625 34.964844 C 96.246094 34.304688 95.585938 33.761719 94.785156 33.332031 L 94.65625 33.332031 L 94.140625 33.632812 C 94.023438 33.890625 94.125 34.148438 94.441406 34.40625 L 94.527344 34.492188 L 96.03125 35.652344 L 97.109375 36.984375 C 97.507812 37.558594 97.78125 37.859375 97.925781 37.886719 L 98.097656 37.714844 C 98.15625 37.484375 98.039062 37.070312 97.753906 36.46875 L 96.765625 34.964844 M 94.484375 36.597656 C 94.253906 36.566406 94.082031 36.683594 93.96875 36.941406 C 93.882812 37.199219 93.9375 37.398438 94.140625 37.542969 L 94.699219 38.058594 C 95.042969 38.460938 95.214844 38.789062 95.214844 39.046875 C 95.214844 39.390625 95.386719 39.5625 95.730469 39.5625 C 96.074219 39.621094 96.246094 39.40625 96.246094 38.917969 C 96.246094 38.515625 96.0625 38.074219 95.6875 37.585938 L 94.742188 36.683594 L 94.484375 36.597656 M 83.125 43.945312 L 79.082031 40.59375 L 78.734375 40.464844 C 78.5625 40.40625 78.519531 40.550781 78.605469 40.894531 L 79.039062 42.3125 C 79.125 42.515625 79.050781 42.742188 78.820312 43 C 78.621094 43.203125 78.40625 43.332031 78.175781 43.386719 C 74.132812 44.5625 71.148438 45.179688 69.226562 45.238281 L 68.023438 45.238281 L 63.589844 44.460938 L 61.355469 43.859375 L 60.792969 43.472656 L 60.621094 42.828125 L 60.707031 42.226562 C 60.765625 41.941406 60.707031 41.796875 60.535156 41.796875 L 60.234375 42.011719 L 58.472656 43.816406 C 58.097656 44.246094 58.039062 44.707031 58.300781 45.195312 L 59.933594 48.160156 L 60.191406 48.460938 C 60.308594 48.460938 60.363281 48.332031 60.363281 48.074219 L 60.40625 47.644531 C 60.40625 47.183594 60.621094 46.984375 61.054688 47.042969 L 61.269531 47.085938 L 63.847656 48.890625 C 65.941406 50.09375 67.863281 50.765625 69.613281 50.910156 L 69.65625 50.910156 C 71.40625 51.023438 73.789062 50.367188 76.800781 48.933594 C 78.292969 48.214844 79.609375 47.484375 80.757812 46.742188 L 81.101562 46.699219 C 81.53125 46.753906 81.832031 46.925781 82.007812 47.214844 L 81.878906 49.191406 L 82.222656 49.449219 C 82.335938 49.476562 82.4375 49.363281 82.523438 49.105469 L 83.597656 45.28125 L 83.554688 44.546875 L 83.125 43.945312 M 86.523438 72.832031 C 89.132812 83.148438 90.828125 91.53125 91.601562 97.976562 L 92.03125 103.523438 C 92.375 106.730469 92.820312 108.222656 93.363281 107.992188 C 96.835938 106.644531 100.148438 104.625 103.304688 101.933594 L 104.851562 112.675781 C 102.214844 115.945312 98.355469 118.539062 93.277344 120.457031 C 89.175781 122.035156 84.542969 123.09375 79.382812 123.636719 C 74.332031 124.183594 69.429688 123.839844 64.667969 122.605469 C 60.25 121.460938 56.621094 119.699219 53.78125 117.320312 C 54.242188 112.535156 54.441406 108.035156 54.382812 103.824219 C 58.140625 106.917969 62.816406 109.066406 68.410156 110.269531 L 74.046875 110.957031 L 76.886719 111.214844 C 78.148438 111.214844 78.996094 110.929688 79.425781 110.355469 C 79.738281 109.925781 79.914062 109.167969 79.941406 108.078125 L 79.855469 105.628906 C 79.824219 103.363281 79.710938 100.828125 79.511719 98.019531 C 79.082031 91.6875 78.035156 84.109375 76.371094 75.28125 L 76.15625 73.90625 C 76.039062 73.332031 75.867188 72.917969 75.636719 72.660156 L 74.949219 72.359375 L 74.261719 72.1875 C 73.058594 71.957031 71.808594 71.585938 70.519531 71.070312 C 68.082031 70.125 65.988281 68.835938 64.238281 67.199219 C 62.285156 65.394531 61.066406 63.417969 60.578125 61.269531 C 61.46875 60.867188 62.402344 60.425781 63.375 59.9375 L 63.503906 59.808594 C 64.710938 60.640625 66.015625 61.355469 67.421875 61.957031 C 68.082031 63.5625 69.15625 64.824219 70.648438 65.738281 C 71.996094 66.570312 73.601562 67.058594 75.464844 67.199219 C 79.109375 67.488281 82.507812 66.570312 85.664062 64.449219 C 88.417969 62.617188 90.09375 60.394531 90.695312 57.789062 L 94.398438 59.035156 C 95.316406 62.070312 94.753906 64.910156 92.71875 67.546875 C 92.03125 68.460938 91.085938 69.277344 89.878906 69.996094 L 86.566406 71.757812 C 86.308594 71.871094 86.292969 72.230469 86.523438 72.832031 M 91.257812 71.371094 C 92.605469 70.394531 93.679688 69.222656 94.484375 67.847656 C 95.859375 65.496094 96.074219 62.644531 95.128906 59.292969 C 100.464844 61.269531 105.367188 63.75 109.84375 66.726562 C 116.496094 71.167969 121.648438 76.386719 125.289062 82.375 L 127.054688 85.511719 C 127.683594 86.886719 127.886719 88.003906 127.65625 88.863281 C 127.253906 90.355469 126.652344 92.101562 125.847656 94.109375 C 123.382812 100.414062 119.925781 105.644531 115.480469 109.796875 C 114.132812 107.820312 112.554688 106.34375 110.746094 105.371094 C 108.683594 104.222656 106.617188 103.9375 104.550781 104.511719 L 104.121094 102.234375 C 103.835938 100.800781 104.480469 98.308594 106.058594 94.753906 C 107.203125 92.089844 108.683594 89.925781 110.488281 88.261719 C 110.660156 88.089844 110.632812 87.691406 110.402344 87.058594 C 110.144531 86.457031 109.945312 86.226562 109.800781 86.371094 C 107.707031 88.320312 106.042969 90.941406 104.808594 94.238281 C 104.207031 95.8125 103.804688 97.015625 103.605469 97.847656 L 103.519531 98.320312 L 100.808594 79.496094 L 100.765625 79.324219 C 100.707031 78.863281 100.550781 78.519531 100.292969 78.289062 C 100.035156 78.089844 99.949219 78.304688 100.035156 78.9375 L 103.003906 99.738281 L 99.128906 102.835938 C 96.089844 104.984375 94.066406 106.042969 93.0625 106.015625 C 92.316406 96.445312 90.425781 85.640625 87.382812 73.605469 C 89.164062 72.6875 90.453125 71.945312 91.257812 71.371094 M 104.679688 106.617188 C 106.746094 105.902344 108.824219 106.101562 110.917969 107.21875 C 112.699219 108.164062 114.203125 109.554688 115.4375 111.386719 C 115.695312 112.933594 115.207031 114.425781 113.972656 115.859375 C 112.683594 117.378906 111.148438 118.179688 109.371094 118.265625 C 109.167969 118.292969 109.140625 118.625 109.285156 119.253906 C 109.425781 119.882812 109.597656 120.214844 109.800781 120.242188 L 109.886719 120.285156 L 109.972656 120.285156 L 111.476562 120.714844 C 112.308594 121.03125 112.710938 121.332031 112.683594 121.617188 C 112.539062 122.734375 111.621094 123.496094 109.929688 123.894531 L 106.660156 124.109375 L 105.886719 115.042969 L 105.757812 114.140625 L 105.714844 113.667969 L 104.679688 106.617188 M 105.109375 115.085938 C 106.316406 127.347656 106.316406 138.167969 105.109375 147.539062 C 104.621094 151.40625 103.804688 155.847656 102.65625 160.863281 L 99.515625 174.015625 L 99.042969 176.121094 C 98.15625 176.835938 96.75 177.367188 94.828125 177.710938 C 92.5625 178.171875 89.851562 178.199219 86.695312 177.796875 L 79.253906 176.421875 C 79.652344 168.941406 79.882812 163.269531 79.941406 159.402344 C 80.054688 152.265625 79.554688 146.21875 78.433594 141.261719 C 79.925781 137.964844 81.433594 135.257812 82.953125 133.136719 C 83.125 132.9375 83.082031 132.535156 82.824219 131.933594 C 82.566406 131.332031 82.378906 131.117188 82.265625 131.289062 C 80.457031 133.839844 78.75 136.976562 77.144531 140.703125 C 76.167969 142.9375 74.890625 146.277344 73.316406 150.71875 L 69.960938 161.078125 C 68.609375 165.230469 67.335938 168.628906 66.128906 171.265625 C 64.582031 174.644531 63.019531 177.238281 61.441406 179.042969 C 60.578125 179.988281 59.304688 180.675781 57.609375 181.105469 L 57.4375 181.148438 L 51.328125 181.449219 C 48.976562 181.277344 46.582031 180.535156 44.144531 179.214844 L 42.121094 177.925781 L 41.476562 177.367188 L 41.433594 176.292969 C 41.433594 173.683594 41.964844 170.519531 43.023438 166.792969 L 45.90625 157.507812 C 47.914062 150.460938 49.679688 142.835938 51.199219 134.640625 C 52.320312 128.625 53.121094 123.351562 53.609375 118.824219 C 56.363281 121.261719 59.875 123.078125 64.152344 124.28125 C 68.511719 125.515625 73.171875 126.015625 78.132812 125.789062 C 83.441406 125.53125 88.417969 124.539062 93.0625 122.820312 C 98.253906 120.902344 102.269531 118.324219 105.109375 115.085938 M 94.699219 179.816406 C 97.050781 179.589844 98.640625 178.988281 99.472656 178.011719 L 99.6875 178.226562 C 104.105469 179.890625 107.519531 181.867188 109.929688 184.160156 L 110.230469 183.902344 C 110.34375 183.757812 110.417969 183.871094 110.445312 184.246094 L 110.015625 184.203125 L 109.929688 184.160156 L 109.242188 184.589844 C 108.410156 185.046875 107.21875 185.390625 105.667969 185.621094 C 102.65625 186.078125 99.417969 185.878906 95.945312 185.019531 C 92.648438 184.214844 89.621094 182.957031 86.867188 181.234375 L 86.695312 181.277344 L 85.75 182.3125 C 85.261719 182.796875 83.972656 182.597656 81.878906 181.707031 C 81.015625 181.363281 80.515625 180.933594 80.371094 180.417969 L 80.414062 178.527344 L 86.78125 179.644531 C 89.734375 180.019531 92.375 180.074219 94.699219 179.816406 M 13.164062 52.714844 C 17.582031 53.574219 20.636719 55.152344 22.332031 57.445312 C 23.132812 58.53125 23.261719 59.636719 22.71875 60.753906 C 22.199219 61.871094 21.269531 62.53125 19.921875 62.730469 L 19.878906 62.773438 C 18.242188 61.597656 16.105469 60.683594 13.46875 60.023438 C 8.503906 58.703125 4.90625 58.703125 2.667969 60.023438 C 0.890625 57.414062 0.847656 55.28125 2.539062 53.617188 C 3.65625 52.53125 5.363281 52 7.660156 52.027344 L 11.144531 52.371094 L 11.402344 52.457031 L 11.617188 52.457031 L 13.164062 52.714844 M 12.734375 36.511719 C 13.796875 34.535156 15.289062 33.160156 17.210938 32.382812 C 18.730469 31.78125 20.59375 31.910156 22.804688 32.769531 C 23.664062 33.113281 24.136719 33.574219 24.222656 34.148438 C 24.28125 34.546875 24.152344 35.222656 23.835938 36.167969 L 22.027344 40.292969 C 21.28125 41.957031 20.894531 43.375 20.867188 44.546875 C 20.839844 46.183594 21.628906 47.945312 23.234375 49.835938 L 27.191406 53.703125 C 28.769531 55.28125 29.832031 56.757812 30.375 58.132812 C 31.148438 60.136719 31.136719 62.273438 30.332031 64.535156 C 29.558594 66.683594 28.296875 68.40625 26.546875 69.695312 L 26.546875 69.738281 L 26.460938 69.78125 C 26.289062 69.921875 26.316406 70.296875 26.546875 70.898438 C 26.777344 71.527344 26.960938 71.800781 27.105469 71.714844 L 28.179688 70.855469 L 28.570312 70.511719 C 28.253906 72.429688 27.578125 74.191406 26.546875 75.796875 C 25.054688 78.148438 23.019531 79.839844 20.4375 80.871094 C 17.597656 81.988281 14.414062 82.160156 10.886719 81.386719 C 7.128906 80.582031 4.476562 78.9375 2.925781 76.441406 C 1.808594 74.695312 1.820312 73.234375 2.96875 72.058594 C 3.914062 71.027344 5.335938 70.453125 7.226562 70.339844 C 10.785156 70.082031 14.457031 70.769531 18.242188 72.402344 C 19.273438 72.859375 20.078125 73.40625 20.652344 74.035156 C 21.484375 74.921875 21.65625 75.796875 21.167969 76.65625 C 20.824219 77.230469 19.890625 77.730469 18.371094 78.160156 C 16.679688 78.589844 14.871094 78.476562 12.949219 77.816406 C 11.285156 77.246094 9.710938 76.34375 8.21875 75.109375 C 7.988281 74.910156 7.902344 75.109375 7.960938 75.710938 C 8.015625 76.3125 8.144531 76.714844 8.347656 76.914062 C 10.066406 78.347656 11.875 79.335938 13.769531 79.882812 C 15.890625 80.511719 17.925781 80.511719 19.878906 79.882812 C 21.109375 79.480469 21.871094 78.648438 22.15625 77.386719 C 22.445312 76.214844 22.257812 75.023438 21.597656 73.820312 L 21.339844 73.390625 C 22.402344 73.132812 23.105469 72.402344 23.449219 71.199219 C 23.792969 69.964844 23.734375 68.648438 23.277344 67.242188 C 22.933594 66.183594 22.402344 65.238281 21.683594 64.40625 C 22.515625 64.007812 23.117188 63.347656 23.492188 62.429688 C 23.921875 61.3125 23.949219 59.980469 23.578125 58.433594 C 22.71875 55.136719 19.691406 52.714844 14.5 51.167969 L 13.8125 50.996094 C 14.125 50.308594 14.140625 49.40625 13.855469 48.289062 C 12.679688 45.394531 11.988281 43.472656 11.789062 42.527344 C 11.359375 40.492188 11.675781 38.488281 12.734375 36.511719 M 12.949219 61.785156 C 16.019531 62.386719 18.429688 63.316406 20.179688 64.578125 L 20.308594 64.707031 L 22.113281 66.46875 C 22.859375 67.472656 23.03125 68.535156 22.632812 69.652344 C 22.199219 70.824219 21.355469 71.441406 20.09375 71.5 L 19.921875 71.757812 C 19.144531 71.097656 18.199219 70.539062 17.082031 70.082031 C 15.734375 69.535156 13.753906 69.0625 11.144531 68.664062 L 5.507812 68.40625 C 4.648438 68.546875 3.929688 68.792969 3.355469 69.136719 L 3.183594 68.964844 C 2.007812 67.960938 1.320312 66.929688 1.117188 65.867188 C 0.890625 64.722656 1.289062 63.648438 2.324219 62.644531 C 3.441406 61.554688 5.164062 61.027344 7.488281 61.054688 L 12.949219 61.785156 M 65.914062 19.789062 L 65.484375 19.875 L 62.042969 21.679688 L 61.699219 22.027344 C 61.699219 22.140625 61.828125 22.210938 62.085938 22.242188 L 65.613281 22.328125 C 65.898438 22.355469 66.144531 22.269531 66.34375 22.070312 C 66.546875 21.867188 66.632812 21.609375 66.601562 21.292969 L 66.515625 20.433594 C 66.460938 20.003906 66.257812 19.789062 65.914062 19.789062 M 72.667969 27.441406 L 72.28125 27.613281 L 71.894531 28.085938 L 69.914062 31.394531 L 67.722656 34.019531 L 66.214844 35.652344 L 65.914062 36.296875 L 66.042969 37.027344 L 67.722656 39.992188 C 68.039062 40.335938 68.410156 40.535156 68.839844 40.59375 L 69.785156 40.421875 C 70.015625 40.394531 70.175781 40.292969 70.261719 40.121094 C 70.347656 39.949219 70.316406 39.75 70.175781 39.519531 L 68.753906 37.285156 L 68.582031 36.597656 L 68.753906 35.867188 L 70.820312 32.554688 C 71.621094 31.238281 72.296875 29.835938 72.839844 28.34375 C 73.070312 27.800781 73.027344 27.5 72.710938 27.441406 L 72.667969 27.441406 M 81.574219 27.871094 L 81.53125 27.871094 C 81.101562 27.84375 80.714844 28.101562 80.371094 28.644531 C 80 29.160156 79.769531 29.820312 79.683594 30.621094 C 79.597656 31.425781 79.683594 32.125 79.941406 32.726562 C 80.171875 33.332031 80.5 33.644531 80.929688 33.675781 L 80.972656 33.675781 C 81.402344 33.730469 81.804688 33.488281 82.179688 32.941406 C 82.523438 32.425781 82.738281 31.769531 82.824219 30.964844 C 82.910156 30.164062 82.835938 29.460938 82.609375 28.859375 C 82.351562 28.257812 82.007812 27.929688 81.574219 27.871094 M 59.847656 19.574219 L 57.050781 24.175781 L 55.976562 21.164062 C 55.917969 20.25 56.003906 19.476562 56.234375 18.84375 C 56.492188 18.1875 56.820312 17.871094 57.222656 17.898438 C 57.425781 17.898438 57.652344 18.027344 57.910156 18.285156 C 58.457031 18.917969 59.101562 19.347656 59.847656 19.574219 M 64.667969 29.675781 C 64.753906 28.875 64.679688 28.171875 64.453125 27.570312 C 64.195312 26.996094 63.847656 26.683594 63.417969 26.625 L 63.375 26.625 C 62.945312 26.597656 62.558594 26.839844 62.214844 27.355469 C 61.839844 27.898438 61.613281 28.574219 61.527344 29.375 C 61.441406 30.179688 61.527344 30.878906 61.785156 31.480469 C 62.042969 32.082031 62.386719 32.398438 62.816406 32.425781 C 63.246094 32.484375 63.648438 32.242188 64.023438 31.695312 C 64.367188 31.152344 64.582031 30.480469 64.667969 29.675781 M 60.320312 45.324219 C 60.234375 44.835938 60.507812 44.621094 61.140625 44.679688 L 61.269531 44.679688 L 63.589844 45.28125 L 68.367188 46.054688 L 69.570312 46.097656 C 71.835938 46.097656 74.804688 45.496094 78.476562 44.289062 L 79.511719 44.160156 C 79.882812 44.21875 80.242188 44.375 80.585938 44.636719 C 80.929688 44.949219 80.988281 45.28125 80.757812 45.625 C 80.585938 45.882812 80.328125 46.066406 79.984375 46.183594 C 76.714844 47.613281 74.476562 48.488281 73.273438 48.804688 L 68.96875 49.0625 C 67.792969 48.976562 66.890625 48.804688 66.257812 48.546875 L 61.097656 46.355469 C 60.695312 46.238281 60.4375 45.894531 60.320312 45.324219 M 66.214844 52.371094 L 66.472656 52.714844 L 67.894531 53.574219 C 68.125 53.71875 68.496094 53.820312 69.011719 53.875 L 70.476562 53.746094 C 70.734375 53.71875 70.949219 53.605469 71.121094 53.402344 C 71.292969 53.203125 71.363281 52.988281 71.335938 52.757812 C 71.277344 52.328125 70.992188 52.085938 70.476562 52.027344 L 66.644531 52.199219 L 66.214844 52.371094 M 42.722656 63.675781 C 46.078125 64.535156 49.621094 64.550781 53.351562 63.71875 C 55.300781 63.289062 57.496094 62.558594 59.933594 61.527344 C 60.738281 64.394531 62.257812 66.898438 64.496094 69.050781 C 65.699219 70.222656 67.347656 71.34375 69.441406 72.402344 C 70.1875 72.773438 71.265625 73.148438 72.667969 73.519531 L 75.550781 74.421875 C 76.902344 81.527344 77.789062 86.746094 78.21875 90.066406 C 79.050781 96.429688 79.324219 102.0625 79.039062 106.960938 C 78.953125 108.449219 77.890625 109.222656 75.851562 109.28125 L 71.035156 108.765625 C 68.511719 108.507812 65.742188 107.847656 62.730469 106.789062 C 59.519531 105.613281 56.722656 104.050781 54.339844 102.105469 C 54.140625 96.285156 53.609375 90.613281 52.75 85.082031 C 54.585938 83.992188 56.277344 82.660156 57.824219 81.085938 C 57.996094 80.882812 57.96875 80.484375 57.738281 79.882812 C 57.480469 79.28125 57.28125 79.050781 57.136719 79.195312 C 54.671875 81.714844 51.1875 83.722656 46.683594 85.210938 C 42.0625 86.757812 37.101562 87.144531 31.796875 86.371094 L 27.492188 85.511719 C 28.640625 84.652344 29.660156 83.335938 30.546875 81.558594 C 31.808594 78.980469 32.726562 75.683594 33.300781 71.671875 C 34.019531 66.742188 33.804688 62.660156 32.65625 59.421875 C 35.667969 61.3125 39.023438 62.730469 42.722656 63.675781 M 32.957031 65.566406 C 32.929688 67.460938 32.65625 69.78125 32.140625 72.53125 C 31.507812 75.796875 30.546875 78.503906 29.257812 80.65625 C 27.851562 83.003906 26.203125 84.308594 24.308594 84.566406 L 20.265625 83.019531 C 22.101562 82.386719 23.765625 81.371094 25.253906 79.96875 C 28.09375 77.273438 29.542969 73.761719 29.601562 69.4375 L 29.558594 69.222656 C 30.648438 67.675781 31.324219 65.855469 31.582031 63.761719 C 31.78125 61.898438 31.652344 60.136719 31.191406 58.476562 L 31.625 58.777344 C 32.542969 60.523438 32.984375 62.789062 32.957031 65.566406 M 43.285156 180.589844 C 44.058594 181.078125 45.25 181.636719 46.855469 182.269531 C 49.003906 183.128906 51.386719 183.527344 53.996094 183.472656 L 57.050781 183.257812 C 56.535156 184.773438 55.488281 186.152344 53.910156 187.382812 C 52.246094 188.671875 50.109375 189.734375 47.5 190.5625 C 44.601562 191.507812 42.523438 190.492188 41.261719 187.511719 C 40.027344 184.558594 40.574219 182.183594 42.894531 180.375 L 42.9375 180.375 L 43.285156 180.589844 "/>
</g>
</svg>
