<?xml version="1.0" encoding="utf-8"?>
<!-- Generator: Adobe Illustrator 24.3.0, SVG Export Plug-In . SVG Version: 6.00 Build 0)  -->
<svg version="1.1" id="Layer_1" xmlns="http://www.w3.org/2000/svg" xmlns:xlink="http://www.w3.org/1999/xlink" x="0px" y="0px"
	 viewBox="0 0 137 192" style="enable-background:new 0 0 137 192;" xml:space="preserve">
<style type="text/css">
	.st0{fill:#FFFFFF;}
</style>
<g id="surface1">
	<path class="st0" d="M96.1,2.5c0.4,0.4,0.9,0.6,1.3,0.8c1.5,0.7,2.7,1.1,3.7,1.3c1.7,0.3,3.1,1.5,4.4,3.4l2.3,3.3
		c1.1,0.5,2.2,1.7,3.2,3.6c0.8,1.4,1.5,2.8,2,4.2c0.9,2.6,0.9,5.9-0.1,10c-0.5,2-1.1,3.8-1.8,5.3c-0.4-2.5-1.4-4.7-2.9-6.4l-1.8-1.8
		l-1.3-1.2c1-0.6,1.8-1.3,2.5-2.1c1-1,1.4-2,1.3-2.8c-0.1-1.2-0.4-2.1-1-3c-0.8-1.2-1.9-1.8-3.5-1.9h-1l-3.1,0.8
		c-1.4,0.5-2.2,0.7-2.7,0.7l-0.3,0c-0.2-0.1-1.1-1.1-2.7-3.1c-1.5-1.9-2.8-2.9-3.8-3l-0.7,0.1l-1.6,0.8l-1.5,0.8l-1.9,1
		c-0.6,0.3-1,0.4-1.3,0.4l-0.5-0.2l-1.2-0.7c-1.1-0.6-1.8-0.9-2.2-1c-0.6,0-1.3,0.2-2,0.5c-0.6,0.3-1.6,1.2-3.1,2.8l-2.3,2.4
		c-1.3,0.9-2.5,1.3-3.6,1.3c-0.8-0.1-1.4-0.4-1.9-1c-1-1.1-1.6-2.4-1.9-4.1c-0.3-1.6-0.1-3,0.4-4.2c0.5-1,1.1-1.8,1.9-2.4
		c-0.2,1.1,0.1,1.9,0.7,2.5c0.8,0.7,1.7,1.1,2.7,1.2c1.4,0.1,2.7-0.4,3.9-1.5l2.7-2.6c1.3-1.1,2.3-1.7,3-1.9l1,0l2,0.5l1.7,0.6
		c0.4,0,0.8-0.1,1.2-0.4l1.7-2C89.9,1.2,91.1,0,91.7,0H92c0.8,0,1.8,0.5,3,1.5L96.1,2.5 M103.7,16.8c1.6,0.1,2.6,1.1,3,2.8
		c0.5,1.8-0.5,3.3-2.9,4.5c-0.1,0-0.2,0.1-0.4,0.3c-0.2,0.3-0.1,0.5,0.3,0.8l3.9,3.2c2.1,2.3,3,4.8,2.8,7.6c-0.7-2.1-1.7-4.1-3-5.9
		c-1.6-2-2.7-3.1-3.2-3.3l-0.3-0.1l-0.6,0.3c-0.1,0.2,0,0.4,0.2,0.6l1,1l2.1,2.2c0.9,1,1.7,2.2,2.4,3.6l1.3,2.9l-0.3,1
		c-1-2.5-2.1-4.4-3.3-5.8c-1-1.2-1.9-1.9-2.7-2.3l-0.2,0c-0.3,0-0.4,0.1-0.4,0.4c0,0.3,0.1,0.6,0.5,0.9l2,1.8
		c1.2,1.4,2.4,3.3,3.8,5.8v0c-0.2,0.3-0.2,0.6,0,0.9l-1.5-0.6c0,0.2,0,0.4,0.2,0.6c1.9,1.7,2.3,3.7,1.1,5.9
		c-1.1,2.2-2.9,3.2-5.4,3.1l-0.7-0.1c-2.9,4.5-6.4,7.8-10.3,9.9c-0.4,0.2-0.6,0.4-0.6,0.6c0,0.1,0.2,0.2,0.6,0.3
		c1.2,0.1,2.6-0.3,4.3-1.3c-0.4,2.1-2,4-4.9,5.5c-2.6,1.4-5.2,2-7.6,1.9c-1.1-0.1-1.9-0.4-2.6-0.9l0.2,0l2.9-0.4
		c1.3-0.3,2-0.6,1.9-0.8L87,63.6l-1,0h-1.9c-2.4-0.2-5-1-7.8-2.5c-5.1-2.7-8.8-7.1-10.9-13.1c-2-5.7-2.2-11.5-0.6-17.4
		c1-3.6,2.8-7.2,5.3-10.8c1.1-0.1,2.3-0.6,3.6-1.5l2.3-2.5l2.9-2.7l0.9-0.1c0.8,0.1,1.8,0.5,2.9,1.3l1.6,0.5c1,0.1,2.3-0.2,3.8-1
		l2.1-0.3c2,0.1,3.7,1.2,5.2,3.2c0.5,0.6,1.1,1,1.9,1l2.3-0.3l3.9-0.6H103.7 M95.2,25.6c0.3-0.7-0.2-1.8-1.3-3.2l-1.7-1.9l-0.4-0.2
		c-0.3,0-0.6,0.1-0.7,0.3l-0.7,0.8c-0.4,0.5-0.6,0.9-0.5,1.1c0,0.1,0.3,0.2,0.8,0.4l1.6,0.8l1.7,1.2C94.6,25.3,95,25.6,95.2,25.6
		L95.2,25.6 M105.7,35.1c-0.5-0.6-1.1-1.1-2-1.6h-0.1c-0.3,0-0.4,0.1-0.6,0.3c-0.1,0.3,0,0.5,0.3,0.8l0.1,0.1l1.5,1.2l1.1,1.3
		c0.4,0.6,0.7,0.9,0.8,0.9l0.2-0.2c0.1-0.2-0.1-0.7-0.3-1.3L105.7,35.1 M103.4,36.8c-0.2,0-0.4,0.1-0.5,0.3c-0.1,0.3,0,0.5,0.2,0.6
		l0.6,0.5c0.3,0.4,0.5,0.7,0.5,1c0,0.3,0.2,0.5,0.5,0.5c0.4,0.1,0.6-0.2,0.6-0.6c0-0.4-0.2-0.9-0.6-1.3l-1-0.9L103.4,36.8
		 M91.9,44.2l-4.1-3.4l-0.3-0.1c-0.2-0.1-0.2,0.1-0.1,0.4l0.4,1.4c0.1,0.2,0,0.4-0.2,0.7c-0.2,0.2-0.4,0.3-0.7,0.4
		c-4,1.2-7,1.8-9,1.9h-1.2l-4.5-0.8L70,44.1l-0.6-0.4l-0.2-0.6l0.1-0.6L69.2,42l-0.3,0.2l-1.7,1.8c-0.4,0.4-0.4,0.9-0.2,1.4l1.6,3
		l0.3,0.3c0.1,0,0.2-0.1,0.2-0.4l0-0.4c0-0.5,0.2-0.7,0.6-0.6l0.2,0l2.6,1.8c2.1,1.2,4,1.9,5.8,2h0c1.8,0.1,4.2-0.5,7.2-2
		c1.5-0.7,2.8-1.5,4-2.2l0.3,0c0.4,0.1,0.7,0.2,0.9,0.5l-0.1,2l0.3,0.3c0.1,0.1,0.3-0.1,0.3-0.3l1.1-3.8l0-0.7L91.9,44.2 M95.4,72.2
		c-0.3,0.1-0.3,0.5,0,1.1c3,11.6,4.9,23.4,5.9,35.3c0.1,0.9,0.3,1.3,0.6,1.4c0.8,0.2,1.9-0.2,3.4-1.2l3-2.3l4-3.7l1.4,10
		c-2.4,3.5-6,6.5-10.8,9c-4,2-8.4,3.5-13.4,4.6l-15.3,0.5c-5-0.7-9.1-2.3-12.3-4.8c0.4-3.9,0.7-7.6,0.9-11.1l0.1-2
		c4.3,2.9,9.6,4.7,15.9,5.2c1.9,0.2,4.2,0.2,6.9,0l2.1-0.5c0.3-0.2,0.5-0.9,0.7-1.9c0.1-0.8,0.2-1.7,0.2-2.9l-0.2-2.9L88,97.5
		c-0.3-4.3-0.8-8.8-1.5-13.4l-0.7-5.1c-0.3-2-0.6-3.7-1-5.1c-0.1-0.4-0.3-0.7-0.6-0.9l-1.1-0.3c-1.8-0.3-3.7-1-5.8-1.9
		c-2.5-1.2-4.6-2.7-6.1-4.6c-1.7-2.1-2.6-4.5-2.7-7.1v-0.2l1.9,0c1.7,1.4,3.6,2.5,5.7,3.5c0.7,1.6,1.7,2.9,3.2,3.8
		c1.4,0.8,3,1.3,4.8,1.5c3.7,0.3,7.1-0.6,10.3-2.8c2.7-1.8,4.4-4,5-6.6l3.8,1.2c0.9,3,0.4,5.9-1.7,8.5c-0.7,0.9-1.7,1.7-2.9,2.5
		L95.4,72.2 M100.1,71.8c1.4-1,2.4-2.2,3.2-3.5c1.4-2.4,1.6-5.2,0.7-8.6c5.4,1.9,10.4,4.4,15,7.6c6.6,4.4,11.7,9.6,15.3,15.6
		l1.8,3.2c0.6,1.4,0.8,2.5,0.6,3.4l-1.8,5.3c-2.5,6.3-6,11.6-10.4,15.8c-1.4-2-2.9-3.5-4.8-4.5c-2.1-1.2-4.2-1.4-6.3-0.9l-0.4-2.3
		l0-0.7v0l0.1-0.7c0.2-1.5,0.8-3.5,1.9-6c1.2-2.7,2.6-4.8,4.4-6.5c0.2-0.2,0.2-0.6,0-1.2c-0.3-0.6-0.5-0.8-0.6-0.7
		c-2.2,2-3.8,4.7-5,7.9c-0.6,1.6-1,2.8-1.2,3.6l-0.1,0.5l-2.7-19v-0.2c-0.1-0.5-0.2-0.8-0.5-1c-0.3-0.2-0.3,0-0.3,0.6l3,21.1
		l-3.7,3.6c-1,0.8-2.2,1.7-3.7,2.6l-1.4,0.9c-0.4,0.3-0.8,0.4-1.1,0.4c-1-11.4-3-22.7-5.8-34C98,73.1,99.3,72.3,100.1,71.8
		 M113.6,107.2c2.1-0.7,4.1-0.5,6.3,0.6c1.8,1,3.3,2.3,4.5,4.2c0.3,1.6-0.2,3.1-1.5,4.5c-1.3,1.5-2.9,2.3-4.7,2.4
		c-0.2,0-0.2,0.4,0,1c0.1,0.6,0.3,1,0.5,1l0.1,0h0.1l1.5,0.4c0.9,0.3,1.3,0.6,1.3,0.9c-0.1,1.1-1.1,1.9-2.8,2.3l-3.3,0.2l-0.8-9.1
		L113.6,107.2 M114,115.2c1.2,12.6,1.3,23.6,0,33.2c-0.5,3.8-1.3,8.3-2.5,13.4l-3.2,13.2l-0.5,2.1c-0.9,0.7-2.3,1.3-4.2,1.6
		c-2.3,0.5-5,0.5-8.2,0.1l-7.5-1.4c0.4-7.5,0.6-13.2,0.7-17.1c0.1-7.2-0.4-13.3-1.5-18.3c1.5-3.3,3-6,4.5-8.1
		c0.2-0.2,0.1-0.6-0.1-1.2c-0.3-0.6-0.4-0.8-0.6-0.6c-1.8,2.6-3.5,5.7-5.2,9.5c-1,2.2-2.3,5.6-3.9,10.1L78.7,162
		c-1.4,4.2-2.6,7.6-3.9,10.2c-1.6,3.4-3.1,6-4.8,7.8c-0.9,1-2.1,1.6-3.9,2l-0.1,0l-6.2,0.3c-2.3-0.2-4.7-0.9-7.2-2.2l-2-1.3
		l-0.6-0.5l-0.1-1.1c0-2.6,0.6-5.8,1.6-9.6l2.9-9.3c2-7,3.7-14.7,5.3-23c0.8-4.1,1.4-8,1.9-11.8c3.3,2.6,7.4,4.3,12.5,5.1
		c4.8,0.8,9.8,0.8,15-0.2c5-0.9,9.7-2.4,13.9-4.5C107.9,121.6,111.5,118.6,114,115.2 M108.6,179.2c4.4,1.6,7.9,3.6,10.3,6l0.3-0.3
		c0.1-0.1,0.2,0,0.3,0.3l-0.4,0l-0.1,0l-0.7,0.4c-0.9,0.5-2.1,0.8-3.6,1c-3,0.5-6.3,0.3-9.8-0.6c-3.3-0.8-6.3-2.1-9.1-3.8l-0.2,0
		l-1,1l-1.9,0.1l-2-0.7c-0.8-0.3-1.3-0.8-1.5-1.3v-1.9c5.9,1.3,10.8,1.7,14.4,1.3c2.3-0.2,3.9-0.8,4.8-1.8L108.6,179.2 M74.6,19.9
		L74.2,20l-3.5,1.8l-0.3,0.3c0,0.1,0.1,0.2,0.4,0.2l3.5,0.1c0.3,0,0.5-0.1,0.7-0.3c0.2-0.2,0.3-0.5,0.2-0.8l0-0.9
		C75.2,20.1,75,19.9,74.6,19.9 M78.6,31.6l-2.2,2.6l-1.5,1.6c-0.4,0.4-0.4,0.9-0.1,1.4l1.7,3c0.3,0.3,0.6,0.5,1.1,0.6l1-0.2l0.4-0.3
		c0.1-0.2,0.1-0.4,0-0.6l-1.4-2.2l-0.2-0.7l0.2-0.7l2.1-3.3c0.8-1.3,1.5-2.7,2-4.2c0.2-0.5,0.2-0.9-0.1-0.9h0
		c-0.3-0.1-0.6,0.2-0.8,0.6C79.9,29.6,79.2,30.7,78.6,31.6 M90.3,28c-0.4,0-0.8,0.2-1.2,0.8c-0.4,0.5-0.6,1.2-0.7,2s0,1.5,0.3,2.1
		c0.2,0.6,0.6,0.9,1,1h0c0.4,0.1,0.8-0.2,1.2-0.7c0.3-0.5,0.6-1.2,0.6-2s0-1.5-0.3-2.1C91.1,28.4,90.8,28.1,90.3,28 M68.5,19.7
		l-2.8,4.6c-0.7-1.3-1-2.3-1.1-3c-0.1-0.9,0-1.7,0.3-2.3c0.3-0.7,0.6-1,1-1c0.2,0,0.4,0.1,0.7,0.4C67.1,19,67.8,19.4,68.5,19.7
		 M73.1,27.7c-0.3-0.6-0.6-0.9-1-1h0c-0.4,0-0.8,0.2-1.2,0.7c-0.4,0.5-0.6,1.2-0.7,2c-0.1,0.8,0,1.5,0.3,2.1c0.2,0.6,0.6,0.9,1,1h0
		c0.4,0.1,0.8-0.2,1.2-0.7c0.3-0.5,0.6-1.2,0.7-2C73.5,29,73.4,28.3,73.1,27.7 M69.8,44.9h0.2l2.3,0.6l4.8,0.8l1.2,0
		c2.3,0,5.3-0.6,9-1.8l1-0.1c0.4,0.1,0.7,0.2,1.1,0.5c0.3,0.3,0.4,0.6,0.2,1c-0.2,0.3-0.4,0.4-0.8,0.6c-3.3,1.4-5.5,2.3-6.8,2.6
		l-4.4,0.3L75,48.8l-5.2-2.2c-0.4-0.1-0.7-0.5-0.8-1C68.9,45.1,69.2,44.9,69.8,44.9 M74.9,52.7l0.3,0.3l1.4,0.9
		c0.2,0.1,0.6,0.2,1.1,0.3l1.5-0.1c0.3,0,0.5-0.1,0.6-0.3c0.2-0.2,0.2-0.4,0.2-0.6c-0.1-0.4-0.4-0.7-0.9-0.7l-3.8,0.2L74.9,52.7
		 M34.5,80.5c3.3-6.2,8.4-11.5,15.1-15.7c6.2-3.9,12.2-5.9,18.1-6c0.3,4.1,1.9,7.6,4.8,10.5c1.4,1.4,3.3,2.6,5.7,3.7
		c0.7,0.3,1.8,0.7,3.2,1l2.8,0.8c0.8,4.3,1.5,9,2.1,14.1c0.3,2.9,0.7,6.1,1,9.6l0.5,6.1c0.1,2.5,0.1,4.5-0.2,6.1
		c-0.2,1-1.3,1.6-3.3,1.7l-4.4-0.1c-2.8-0.1-5.7-0.5-8.6-1.3c-3.1-0.8-5.9-2.1-8.4-3.7c0.1-7-0.3-13.7-1.3-20.1l4.1-0.4
		c0.2,0,0.2-0.3,0-1c-0.1-0.7-0.3-1-0.6-1c-4.4,0.1-8.1,1.1-11.3,2.9c-3.4,2-5.8,5-7.3,8.9c-0.7,1.9-1.2,3.9-1.4,6
		c-0.2,1.9-0.2,3.6,0,5.3c-2.3-0.5-4.6,0-6.9,1.6c-1.6,1.1-3.4,2.9-5.3,5.4l-0.2-0.3c-0.8-1-1.6-2.3-2.2-4c-1.5-4-1.7-9.4-0.6-16.3
		C30.9,89.1,32.4,84.5,34.5,80.5 M59.2,116.8l-1.9,0.2l-2,0.6c-1.2,0.1-2.7-0.1-4.5-0.7l-0.9-0.3l-0.9,0.1c-0.7,0.8-0.7,2.2,0.1,4.1
		l2.1,3.9c1.2,2,2.9,4.1,4.9,6.4c-0.9,1.3-2.6,1.2-5.1-0.4c-3-2-5.2-5.1-6.8-9.3c-0.2-0.6-0.4-0.8-0.5-0.4s-0.1,0.7,0.1,1.1
		c1.4,4,3.6,7.2,6.4,9.7c-1.9,1.7-4,1.5-6.4-0.7c-2.1-2-3.6-4.3-4.5-7c-0.2-0.6-0.4-0.8-0.5-0.5l0,1.2c0.9,2.7,2.2,5.1,4.1,7.1
		c-2.5,0.8-4.7-0.4-6.6-3.6c-1.5-2.7-2.4-5.6-2.7-8.7v-1.8l0-1c1.9-2.4,3.6-4.2,5.2-5.3c2.4-1.7,4.7-2.2,7.1-1.6
		c0.3,0.4,0.7,0.8,1.3,1.1l2.8,1.5l3.5,1.4l3.5,1.4C58,115.8,58.7,116.3,59.2,116.8 M65.7,184.2L65.7,184.2c-0.5,1.6-1.5,3-3.2,4.3
		c-1.7,1.3-3.8,2.4-6.4,3.2c-2.9,1-5-0.1-6.3-3.1c-1.2-2.9-0.7-5.3,1.6-7.1c1.4,1,3.5,1.9,6.3,2.6C60.2,184.7,62.8,184.7,65.7,184.2
		"/>
</g>
</svg>
