<?xml version="1.0" encoding="utf-8"?>
<!-- Generator: Adobe Illustrator 24.3.0, SVG Export Plug-In . SVG Version: 6.00 Build 0)  -->
<svg version="1.1" id="Layer_1" xmlns="http://www.w3.org/2000/svg" xmlns:xlink="http://www.w3.org/1999/xlink" x="0px" y="0px"
	 viewBox="0 0 137 192" style="enable-background:new 0 0 137 192;" xml:space="preserve">
<style type="text/css">
	.st0{fill:#FFFFFF;}
</style>
<g id="surface1">
	<path class="st0" d="M105.7,8l2.3,3.3c1.1,0.5,2.2,1.7,3.3,3.6c0.8,1.4,1.4,2.8,1.9,4.2c1,2.6,0.9,5.9-0.1,10
		c-0.5,2-1.1,3.8-1.8,5.3c-0.3-2.4-1.3-4.6-2.9-6.4l-3.2-3c1-0.6,1.8-1.3,2.6-2.1c0.9-1,1.4-2,1.3-2.8c-0.1-1.2-0.4-2.1-1-3
		c-0.8-1.2-2-1.8-3.5-1.9h-0.9l-3.1,0.8c-1.4,0.5-2.3,0.7-2.7,0.7l-0.3,0c-0.2-0.1-1.1-1.1-2.7-3.1c-1.5-1.9-2.8-2.9-3.8-3l-0.7,0.1
		l-1.6,0.8l-1.5,0.8l-1.9,1c-0.6,0.3-1,0.4-1.3,0.4l-0.5-0.2l-1.1-0.7l-1.1-0.6l-1.1-0.3c-0.6,0-1.3,0.2-2,0.5L75.2,15L73,17.5
		c-1.3,0.9-2.5,1.3-3.6,1.3c-0.8,0-1.4-0.3-1.9-1c-1-1.1-1.6-2.4-1.9-4.1c-0.3-1.6-0.1-3,0.4-4.2c0.4-1,1-1.8,1.8-2.4
		c-0.2,1.1,0.1,1.9,0.7,2.5c0.7,0.7,1.6,1.1,2.6,1.2c1.4,0.1,2.7-0.4,3.9-1.5c2.8-2.8,4.7-4.2,5.7-4.4l1,0l2.1,0.5
		c0.8,0.3,1.4,0.5,1.6,0.6c0.5,0,0.9-0.1,1.2-0.4l1.7-2C90.1,1.2,91.2,0,91.9,0h0.3c0.8,0,1.8,0.5,3,1.5l1.1,1
		c0.4,0.4,0.9,0.6,1.3,0.8c1.5,0.7,2.7,1.1,3.7,1.3C103,4.9,104.4,6.1,105.7,8 M106.8,19.6c0.4,1.8-0.6,3.3-2.9,4.5l-0.4,0.3
		c-0.2,0.3-0.1,0.6,0.3,0.8l3.9,3.2c2.1,2.3,3,4.8,2.8,7.6c-0.7-2.2-1.7-4.2-3-5.9c-1.6-2-2.7-3.1-3.3-3.3l-0.3-0.1l-0.6,0.3
		c-0.1,0.2,0,0.4,0.2,0.6l1,1l2.1,2.2c0.9,1,1.7,2.2,2.4,3.6l1.3,2.9l-0.3,1l-1.2-2.6c-0.7-1.3-1.4-2.4-2.1-3.2
		c-1-1.1-1.9-1.9-2.7-2.3l-0.2,0c-0.3,0-0.4,0.1-0.5,0.4c0,0.3,0.1,0.6,0.5,0.9c0.8,0.5,1.5,1.1,2,1.8l2.4,3.5l1.3,2.4v0
		c-0.1,0.3-0.1,0.6,0,0.9l-1.5-0.6l0.1,0.6c1.9,1.7,2.3,3.7,1.2,5.9c-1.1,2.2-2.9,3.2-5.4,3.1l-0.7-0.1c-2.9,4.4-6.3,7.7-10.3,9.9
		c-0.4,0.2-0.6,0.4-0.6,0.6c0,0.1,0.2,0.2,0.6,0.3c1.2,0.1,2.6-0.3,4.3-1.3c-0.4,2.1-2,4-4.9,5.5c-2.6,1.4-5.1,2-7.6,1.9
		c-1-0.1-1.9-0.4-2.6-0.9l0.2,0l2.9-0.4c1.3-0.3,2-0.6,1.9-0.8l-0.2-0.1l-1,0h-1.8c-2.4-0.2-5-1-7.9-2.5c-5.1-2.7-8.8-7.1-10.9-13.1
		c-2-5.7-2.3-11.5-0.6-17.4c1-3.6,2.8-7.2,5.3-10.8c1.1-0.1,2.3-0.6,3.5-1.5l2.3-2.5l2.9-2.7l0.9-0.1c0.8,0.1,1.8,0.5,2.9,1.3
		c0.5,0.3,1,0.4,1.6,0.5c1,0.1,2.3-0.3,3.8-1l2.2-0.3c1.9,0.1,3.7,1.2,5.2,3.2c0.5,0.6,1.1,1,1.9,1l2.3-0.3l3.9-0.6h0.3
		C105.4,17,106.4,17.9,106.8,19.6 M95.4,25.6L95.4,25.6c0.3-0.7-0.2-1.8-1.3-3.2l-1.7-1.9l-0.4-0.2c-0.3-0.1-0.5,0.1-0.7,0.3
		l-0.6,0.8c-0.4,0.5-0.6,0.9-0.5,1.1c0,0.1,0.3,0.2,0.8,0.4l1.6,0.8l1.7,1.2C94.7,25.3,95.2,25.6,95.4,25.6 M105.9,35.2
		c-0.5-0.6-1.2-1.2-2-1.6h-0.1l-0.5,0.3c-0.1,0.3,0,0.5,0.3,0.8l0.1,0.1l1.5,1.2l1.1,1.3c0.4,0.6,0.7,0.9,0.8,0.9l0.2-0.2
		c0.1-0.2-0.1-0.6-0.3-1.3L105.9,35.2 M103.5,36.8c-0.2,0-0.4,0.1-0.5,0.3c-0.1,0.3,0,0.5,0.2,0.6l0.6,0.5c0.3,0.4,0.5,0.7,0.5,1
		c0,0.3,0.2,0.5,0.5,0.5c0.3,0.1,0.5-0.2,0.5-0.6c0-0.4-0.2-0.8-0.6-1.3l-0.9-0.9L103.5,36.8 M92.5,44.8l-0.4-0.6L88,40.8l-0.3-0.1
		c-0.2-0.1-0.3,0.1-0.1,0.4l0.4,1.4c0.1,0.2,0,0.4-0.2,0.7c-0.2,0.2-0.4,0.3-0.7,0.4c-4.1,1.2-7.1,1.8-9,1.9h-1.2l-4.5-0.8l-2.2-0.6
		l-0.6-0.4l-0.2-0.6l0.1-0.6c0.1-0.3,0-0.4-0.2-0.4l-0.3,0.2l-1.7,1.8c-0.4,0.4-0.5,0.9-0.2,1.4l1.6,3l0.3,0.3
		c0.1,0,0.2-0.1,0.2-0.4v-0.4c0-0.5,0.2-0.7,0.6-0.6l0.2,0l2.6,1.8c2.1,1.2,4,1.9,5.8,2h0c1.8,0.1,4.2-0.5,7.2-2
		c1.5-0.7,2.8-1.5,4-2.2l0.3,0c0.4,0.1,0.7,0.2,0.9,0.5l-0.1,2l0.3,0.3c0.1,0.1,0.2-0.1,0.3-0.3l1.1-3.8L92.5,44.8 M119.1,67.1
		c6.6,4.5,11.8,9.7,15.4,15.7l1.8,3.2c0.6,1.4,0.8,2.5,0.6,3.4c-0.4,1.5-1,3.3-1.8,5.3c-2.5,6.3-6,11.6-10.4,15.8
		c-1.4-2-2.9-3.5-4.8-4.5c-1.2-0.7-2.4-1-3.6-1.1l-2.6,0.3l-0.4-2.3l0-0.5l0.3-0.3c0.2-0.2,0.1-0.6-0.1-1.2l0-0.1
		c0.3-1.4,0.9-3.2,1.9-5.4l1.1-2.2c1-1.7,2.1-3.1,3.3-4.3c0.2-0.2,0.1-0.6-0.1-1.2c-0.2-0.6-0.4-0.8-0.6-0.7c-1,0.9-1.9,1.9-2.6,3.2
		c-0.9,1.4-1.7,3-2.4,4.8c-0.6,1.6-1,2.8-1.2,3.6l-0.1,0.5l-2.7-18.9l0-0.2c-0.1-0.5-0.2-0.8-0.5-1c-0.3-0.2-0.3,0-0.3,0.6l3,21.4
		l-4,3.2l-3.2,2.1c-1.2,0.7-2.1,1.1-2.7,1.2c-0.2-5.1-0.9-10.6-2-16.5c-0.8-4.2-2.1-9.8-3.9-16.8c1.8-0.9,3.1-1.7,3.9-2.2
		c1.4-1,2.5-2.2,3.2-3.5c1.4-2.4,1.6-5.3,0.6-8.6c4.3,1.5,8.3,3.4,12.1,5.8L119.1,67.1 M95.6,72.2c-0.1,0.1-0.2,0.4,0,1.1l3.3,13.3
		c1.1,5,1.8,9.5,2.2,13.6l0.3,5.1c0.3,3,0.7,4.3,1.2,4.1c4-1.8,7.3-3.9,10-6.4l1.4,9.9c-2.5,3.4-6.2,6.3-10.9,8.6
		c-4,2-8.6,3.4-13.6,4.4c-5.2,0.9-10.3,1-15.3,0.1c-4.8-0.8-8.7-2.4-11.9-4.8c0.4-3,0.6-5.8,0.8-8.4l0.3-5c4.1,2.9,9.1,4.8,15.1,5.5
		l5.6,0.5c3,0,4.5-0.5,4.6-1.4c0.2-2,0.3-4.3,0.2-7l-0.5-7c-0.6-7.8-1.7-15.8-3.2-24.3c-0.1-0.7-0.5-1.1-1-1.4L81,71.9
		c-1.3-0.3-2.3-0.7-3-1c-2.5-1.2-4.6-2.8-6.3-4.8c-1.8-2.2-2.8-4.6-3.1-7.2l0-0.2l1.6-0.2c1.8,1.6,3.8,2.8,6.1,3.8
		c0.7,1.6,1.7,2.9,3.2,3.8c1.4,0.8,3,1.3,4.9,1.5c3.6,0.3,7-0.6,10.2-2.8c2.7-1.8,4.4-4.1,5.1-6.7l3.7,1.2c0.9,3.1,0.4,6-1.7,8.6
		c-0.7,0.9-1.6,1.7-2.9,2.5L95.6,72.2 M114.7,113.6l-0.9-6.4l2.5-0.4c1.3,0,2.5,0.4,3.8,1c1.7,0.9,3.2,2.3,4.5,4.1
		c0.3,1.6-0.2,3.1-1.5,4.6c-1.3,1.5-2.8,2.3-4.6,2.4c-0.2,0-0.2,0.4-0.1,1c0.1,0.6,0.3,1,0.5,1l0.1,0h0.1l1.5,0.4
		c0.8,0.3,1.2,0.6,1.2,0.9c-0.1,1.1-1.1,1.9-2.8,2.3l-2.8,0.3l-0.5-0.1l-0.8-9.1l-0.2-1.3L114.7,113.6 M114.2,115.4
		c1.2,12.5,1.3,23.5,0,33c-0.5,3.9-1.3,8.4-2.5,13.4l-3.2,13.2l-0.5,2.1c-0.9,0.7-2.3,1.3-4.2,1.6c-2.3,0.5-5,0.5-8.2,0.1l-7.5-1.4
		c0.4-7.5,0.6-13.2,0.7-17.1c0.1-7.2-0.4-13.3-1.5-18.3c1.5-3.2,3-5.9,4.5-8.1c0.2-0.2,0.1-0.6-0.1-1.2c-0.3-0.6-0.4-0.8-0.5-0.6
		c-1.8,2.6-3.6,5.7-5.2,9.5c-1,2.2-2.3,5.6-3.9,10.1L78.9,162c-1.4,4.2-2.6,7.6-3.9,10.2c-1.6,3.4-3.1,6-4.7,7.8
		c-0.9,1-2.2,1.6-3.9,2l-0.1,0l-6.2,0.3c-2.4-0.2-4.8-0.9-7.2-2.2l-2-1.3l-0.6-0.6l0-1.1c0-2.6,0.5-5.8,1.6-9.6l2.9-9.3
		c2-7.1,3.8-14.8,5.3-23c0.8-4.6,1.5-8.8,2.1-12.8c3.1,2.5,7.1,4.2,11.9,5.1c4.8,0.9,9.8,1,15,0.2c5.1-0.8,9.8-2.2,14.1-4.3
		C107.9,121.4,111.6,118.6,114.2,115.4 M103.7,180.8c2.4-0.2,4-0.8,4.8-1.8l0.2,0.2c3,1.1,5.5,2.3,7.5,3.8l2.8,2.2l0.3-0.3
		c0.1-0.1,0.2,0,0.2,0.3l-0.4,0l0,0l-0.7,0.4l-2.1,0.8l-1.5,0.3c-3,0.5-6.3,0.3-9.8-0.6c-3.3-0.8-6.4-2.1-9.1-3.8l-0.2,0l-1,1
		c-0.5,0.5-1.8,0.3-3.9-0.6c-0.9-0.3-1.4-0.8-1.5-1.3l0-1.9l6.4,1.1C98.8,181.1,101.4,181.1,103.7,180.8 M74.8,19.9L74.4,20
		l-3.5,1.8l-0.3,0.3c0,0.1,0.1,0.2,0.4,0.2l3.5,0.1c0.3,0,0.5-0.1,0.7-0.3c0.2-0.2,0.3-0.5,0.3-0.8l-0.1-0.9
		C75.3,20.1,75.2,19.9,74.8,19.9 M80.8,28.2l-2,3.3l-2.2,2.6l-1.5,1.6l-0.3,0.6l0.1,0.7l1.7,3c0.3,0.3,0.7,0.5,1.1,0.6l1-0.2
		c0.2,0,0.4-0.1,0.5-0.3c0.1-0.2,0.1-0.4-0.1-0.6l-1.4-2.2l-0.2-0.7l0.2-0.7l2.1-3.3c0.8-1.3,1.5-2.7,2.1-4.2
		c0.2-0.6,0.1-0.9-0.2-0.9h0C81.3,27.5,81.1,27.7,80.8,28.2 M88.6,30.8c-0.1,0.8,0,1.5,0.3,2.1c0.2,0.6,0.6,0.9,1,1h0
		c0.4,0.1,0.8-0.2,1.2-0.7c0.3-0.5,0.6-1.2,0.6-2c0.1-0.8,0-1.5-0.2-2.1c-0.3-0.6-0.6-0.9-1-1h0c-0.4,0-0.8,0.2-1.2,0.8
		C89,29.3,88.7,30,88.6,30.8 M66.8,18.4c0.6,0.6,1.2,1.1,1.9,1.3l-2.8,4.6l-1.1-3c-0.1-0.9,0-1.7,0.3-2.3c0.3-0.7,0.6-1,1-1
		C66.3,18,66.5,18.1,66.8,18.4 M73.3,27.7c-0.3-0.6-0.6-0.9-1-0.9h0c-0.4,0-0.8,0.2-1.2,0.7c-0.4,0.5-0.6,1.2-0.7,2
		c-0.1,0.8,0,1.5,0.3,2.1c0.3,0.6,0.6,0.9,1,0.9c0.4,0.1,0.8-0.2,1.2-0.7c0.3-0.6,0.6-1.2,0.6-2S73.6,28.3,73.3,27.7 M70.1,44.9
		l2.3,0.6l4.8,0.8l1.2,0c2.3,0,5.3-0.6,9-1.8l1-0.1c0.4,0.1,0.8,0.2,1.1,0.5c0.3,0.3,0.4,0.6,0.2,1L89,46.4
		c-3.3,1.4-5.6,2.3-6.8,2.6l-4.3,0.3c-1.2-0.1-2.1-0.3-2.7-0.5L70,46.6c-0.4-0.1-0.7-0.5-0.8-1c-0.1-0.5,0.2-0.7,0.8-0.6H70.1
		 M75.4,53l1.4,0.9c0.2,0.1,0.6,0.2,1.1,0.3l1.5-0.1c0.3,0,0.5-0.1,0.6-0.3c0.2-0.2,0.2-0.4,0.2-0.6c-0.1-0.4-0.3-0.7-0.9-0.7
		l-3.9,0.2l-0.4,0.2L75.4,53 M52.4,64.5c5.6-3,10.8-4.9,15.6-5.7c0.5,3.9,2.1,7.2,4.7,9.9c1.4,1.5,3.3,2.9,5.7,4.1
		c0.7,0.4,1.8,0.8,3.2,1.1l2.9,0.9c0.9,4.6,1.6,9.3,2.1,14.1c0.3,3.2,0.6,6.4,0.9,9.6l0.3,5.7l0.2,3c0.1,1.2,0,2.2-0.2,3
		c-0.2,0.9-1.4,1.4-3.4,1.5l-4.3-0.2c-2.9-0.1-5.9-0.7-9-1.6c-2.9-0.9-5.5-2.1-7.9-3.8c0-5.6-0.4-10.9-1.2-15.9l4.2-0.8
		c0.2,0,0.2-0.4,0-1c-0.1-0.7-0.3-1-0.6-1c-10,1.3-19.5,6.2-28.3,14.9l-2.9,3.2l-0.6,0.7l-0.3-0.4c-3.5-4.8-7-7-10.4-6.8
		c2.8-7.2,6.5-13.6,11-19.2C39.5,73.3,45.5,68.2,52.4,64.5 M22.9,101c3.7-0.7,7.4,1.5,11.2,6.8l0.3,0.8c1.2,1.5,2.2,3.3,2.9,5.5
		c0.8,2.5,0.9,4.6,0.2,6.2c-0.3,0.8-1,1.3-2.2,1.7l-2.9,0.7l-3.1-0.1c-0.5-0.2-0.6-0.5-0.4-1l0.9-1l1.8-1.9c0.5-0.8,0.7-1.6,0.4-2.4
		c-0.3-0.9-0.9-1.3-1.6-1.2c-0.7,0.1-1.3,0.5-1.9,1.1c-0.6,0.7-1.1,1.6-1.5,2.6c-0.4,1.1-0.7,2.1-0.7,3c-0.1,1,0.2,1.7,0.7,2
		c0.3,0.2,1.1,0.5,2.2,0.9l0.9,0.5l-1,0.7c-1.9,1.2-3.9,1.3-6,0.2c-1.4-0.7-2-2.2-1.7-4.4l0.7-4.8V117l0-0.4l-0.3-1
		c-0.2-0.5-0.4-0.6-0.5-0.3l-0.5,3.1c-0.3,1.6-0.5,2.4-0.7,2.5l-2.1,0c-0.9-0.2-1.4-0.8-1.5-1.8c-0.1-0.5,0-1.4,0.3-2.4l0.1-0.3
		l0.2-0.8l0.5-2.2l0-0.3V113c0-0.2-0.1-0.6-0.3-1.1c-0.2-0.5-0.4-0.6-0.5-0.3l-1.2,4.4c0-0.1-0.1-0.1-0.3,0
		c-0.7,0.1-1.3-0.1-1.7-0.7c-0.3-0.5-0.5-1.1-0.6-1.8c-0.1-2.5,0.9-5.1,2.9-7.8c2.1-2.9,4.4-4.4,6.8-4.5L22.9,101 M51.7,181.4
		c2.2,1.7,5.2,2.7,9,3.1l5.2-0.1c-0.5,1.5-1.6,2.9-3.2,4.1c-1.7,1.3-3.8,2.4-6.4,3.2c-2.9,0.9-5-0.1-6.3-3.1
		C48.8,185.6,49.3,183.2,51.7,181.4L51.7,181.4"/>
</g>
</svg>
