<?xml version="1.0" encoding="UTF-8"?>
<svg xmlns="http://www.w3.org/2000/svg" xmlns:xlink="http://www.w3.org/1999/xlink" width="128pt" height="227pt" viewBox="0 0 128 227" version="1.1">
<g id="surface1">
<path style=" stroke:none;fill-rule:nonzero;fill:rgb(100%,100%,100%);fill-opacity:1;" d="M 79.726562 2.898438 C 80.238281 3.335938 80.746094 3.660156 81.253906 3.863281 C 82.984375 4.640625 84.445312 5.152344 85.632812 5.386719 C 87.601562 5.792969 89.332031 7.132812 90.824219 9.402344 L 93.570312 13.265625 C 94.828125 13.910156 96.101562 15.316406 97.390625 17.484375 C 98.375 19.113281 99.152344 20.773438 99.730469 22.464844 C 100.816406 25.515625 100.78125 29.429688 99.628906 34.207031 C 99.050781 36.578125 98.355469 38.648438 97.542969 40.410156 C 97.101562 37.460938 95.945312 34.9375 94.082031 32.835938 L 91.941406 30.699219 L 90.363281 29.328125 C 91.484375 28.617188 92.46875 27.804688 93.316406 26.886719 C 94.4375 25.667969 94.964844 24.585938 94.894531 23.636719 C 94.792969 22.28125 94.402344 21.109375 93.722656 20.128906 C 92.808594 18.738281 91.449219 17.992188 89.652344 17.890625 L 88.53125 17.890625 L 84.917969 18.855469 C 83.324219 19.433594 82.273438 19.703125 81.761719 19.671875 L 81.457031 19.621094 C 81.253906 19.550781 80.203125 18.332031 78.300781 15.960938 C 76.503906 13.691406 75.011719 12.519531 73.824219 12.453125 L 72.957031 12.554688 L 71.074219 13.46875 L 69.34375 14.433594 L 67.15625 15.554688 C 66.476562 15.890625 65.949219 16.042969 65.578125 16.011719 L 64.96875 15.808594 L 63.59375 14.996094 C 62.335938 14.28125 61.472656 13.894531 60.996094 13.824219 C 60.320312 13.824219 59.519531 14.027344 58.605469 14.433594 C 57.890625 14.773438 56.6875 15.859375 54.992188 17.6875 L 52.34375 20.535156 C 50.851562 21.617188 49.425781 22.109375 48.070312 22.007812 C 47.152344 21.941406 46.40625 21.566406 45.828125 20.890625 C 44.675781 19.636719 43.929688 18.027344 43.589844 16.0625 C 43.285156 14.164062 43.453125 12.503906 44.097656 11.082031 C 44.640625 9.894531 45.371094 8.945312 46.289062 8.234375 C 46.082031 9.488281 46.355469 10.46875 47.101562 11.183594 C 48.019531 11.996094 49.070312 12.453125 50.257812 12.554688 C 51.921875 12.65625 53.429688 12.0625 54.789062 10.777344 L 57.992188 7.777344 C 59.519531 6.457031 60.691406 5.726562 61.507812 5.589844 L 62.726562 5.539062 L 65.121094 6.148438 L 67.105469 6.8125 C 67.613281 6.8125 68.070312 6.660156 68.480469 6.355469 L 70.464844 4.015625 C 72.433594 1.371094 73.804688 0.0351562 74.585938 0 L 74.941406 0 C 75.925781 0.0351562 77.097656 0.609375 78.453125 1.726562 L 79.726562 2.898438 M 88.632812 19.773438 C 90.5 19.941406 91.671875 21.042969 92.148438 23.074219 C 92.691406 25.246094 91.535156 26.988281 88.683594 28.3125 C 88.550781 28.3125 88.398438 28.445312 88.226562 28.71875 C 87.988281 29.058594 88.089844 29.363281 88.53125 29.632812 L 93.0625 33.394531 C 95.539062 36.105469 96.640625 39.070312 96.371094 42.289062 C 95.558594 39.78125 94.367188 37.460938 92.808594 35.324219 C 90.941406 33.023438 89.667969 31.734375 88.992188 31.460938 L 88.632812 31.359375 L 87.972656 31.71875 C 87.871094 31.953125 87.957031 32.175781 88.226562 32.378906 L 89.449219 33.496094 L 91.890625 36.089844 C 92.910156 37.207031 93.84375 38.628906 94.691406 40.359375 L 96.167969 43.710938 L 95.863281 44.882812 C 94.742188 42 93.453125 39.746094 91.992188 38.121094 C 90.839844 36.765625 89.769531 35.867188 88.789062 35.425781 L 88.582031 35.375 C 88.277344 35.34375 88.109375 35.511719 88.074219 35.886719 C 88.039062 36.292969 88.246094 36.648438 88.683594 36.953125 L 91.078125 39.035156 C 92.433594 40.628906 93.910156 42.917969 95.503906 45.898438 L 95.503906 45.949219 C 95.300781 46.355469 95.285156 46.710938 95.453125 47.015625 L 93.671875 46.355469 C 93.640625 46.558594 93.707031 46.8125 93.878906 47.117188 C 96.152344 49.117188 96.589844 51.4375 95.199219 54.082031 C 93.878906 56.691406 91.773438 57.894531 88.890625 57.691406 L 88.125 57.589844 C 84.664062 62.839844 80.625 66.722656 76.011719 69.226562 C 75.535156 69.464844 75.316406 69.6875 75.351562 69.890625 C 75.351562 70.058594 75.570312 70.160156 76.011719 70.195312 C 77.402344 70.328125 79.101562 69.804688 81.101562 68.617188 C 80.625 71.125 78.710938 73.277344 75.351562 75.074219 C 72.261719 76.734375 69.292969 77.460938 66.441406 77.257812 C 65.1875 77.15625 64.1875 76.820312 63.441406 76.242188 L 63.695312 76.292969 L 67.054688 75.835938 C 68.613281 75.464844 69.359375 75.140625 69.292969 74.871094 L 69.089844 74.769531 L 67.917969 74.820312 L 65.730469 74.820312 C 62.949219 74.617188 59.878906 73.632812 56.519531 71.871094 C 50.476562 68.6875 46.203125 63.550781 43.691406 56.46875 C 41.316406 49.761719 41.078125 42.949219 42.980469 36.039062 C 44.167969 31.800781 46.238281 27.582031 49.1875 23.382812 C 50.511719 23.28125 51.902344 22.6875 53.363281 21.601562 L 56.109375 18.652344 L 59.46875 15.503906 L 60.488281 15.351562 C 61.472656 15.417969 62.59375 15.910156 63.847656 16.824219 L 65.78125 17.382812 C 66.96875 17.484375 68.445312 17.113281 70.210938 16.265625 L 72.703125 15.859375 C 75.042969 16.027344 77.082031 17.28125 78.8125 19.621094 C 79.386719 20.367188 80.132812 20.773438 81.050781 20.839844 L 83.800781 20.433594 L 88.328125 19.773438 L 88.632812 19.773438 M 78.660156 30.089844 C 78.964844 29.277344 78.453125 28.023438 77.132812 26.328125 L 75.097656 24.042969 L 74.585938 23.839844 C 74.214844 23.804688 73.925781 23.941406 73.722656 24.246094 L 72.957031 25.160156 C 72.449219 25.804688 72.246094 26.226562 72.347656 26.429688 C 72.382812 26.5 72.6875 26.667969 73.261719 26.9375 L 75.148438 27.90625 L 77.183594 29.277344 C 77.929688 29.785156 78.402344 30.054688 78.609375 30.089844 L 78.660156 30.089844 M 90.976562 41.324219 C 90.433594 40.644531 89.652344 40.003906 88.632812 39.390625 L 88.480469 39.390625 C 88.175781 39.359375 87.957031 39.476562 87.820312 39.746094 C 87.683594 40.054688 87.820312 40.359375 88.226562 40.664062 L 88.328125 40.765625 L 90.109375 42.136719 L 91.382812 43.710938 C 91.859375 44.390625 92.179688 44.746094 92.351562 44.78125 L 92.554688 44.578125 C 92.621094 44.304688 92.484375 43.8125 92.148438 43.101562 L 90.976562 41.324219 M 88.277344 43.253906 C 88.007812 43.222656 87.804688 43.355469 87.667969 43.660156 C 87.566406 43.964844 87.632812 44.203125 87.871094 44.375 L 88.53125 44.984375 C 88.941406 45.457031 89.144531 45.847656 89.144531 46.152344 C 89.144531 46.558594 89.332031 46.761719 89.703125 46.761719 C 90.144531 46.828125 90.363281 46.574219 90.363281 46 C 90.363281 45.523438 90.144531 45 89.703125 44.425781 L 88.53125 43.355469 L 88.277344 43.253906 M 74.839844 51.945312 L 70.007812 47.980469 L 69.648438 47.828125 C 69.445312 47.761719 69.394531 47.929688 69.496094 48.335938 L 70.007812 50.015625 C 70.109375 50.253906 70.023438 50.523438 69.75 50.828125 C 69.515625 51.066406 69.242188 51.21875 68.9375 51.285156 C 64.1875 52.675781 60.65625 53.402344 58.351562 53.472656 L 56.976562 53.472656 L 51.734375 52.558594 L 49.085938 51.84375 L 48.425781 51.386719 L 48.222656 50.625 L 48.324219 49.914062 L 48.121094 49.40625 L 47.710938 49.660156 L 45.675781 51.792969 C 45.234375 52.300781 45.167969 52.84375 45.472656 53.421875 L 47.40625 56.929688 L 47.710938 57.285156 C 47.847656 57.285156 47.917969 57.132812 47.917969 56.828125 L 47.96875 56.316406 C 47.96875 55.777344 48.203125 55.539062 48.679688 55.605469 L 48.933594 55.65625 L 52.039062 57.792969 C 54.515625 59.214844 56.789062 60.011719 58.859375 60.179688 L 58.910156 60.179688 C 60.980469 60.316406 63.796875 59.535156 67.359375 57.84375 C 69.125 56.996094 70.683594 56.132812 72.042969 55.25 L 72.449219 55.199219 C 72.957031 55.265625 73.3125 55.472656 73.519531 55.808594 L 73.363281 58.148438 L 73.722656 58.453125 C 73.890625 58.519531 74.027344 58.386719 74.128906 58.046875 L 75.402344 53.523438 L 75.351562 52.660156 L 74.839844 51.945312 M 78.914062 84.832031 C 78.609375 84.96875 78.589844 85.390625 78.863281 86.101562 C 82.355469 99.792969 84.679688 113.617188 85.835938 127.578125 C 85.972656 128.597656 86.207031 129.15625 86.546875 129.257812 C 87.464844 129.527344 88.789062 129.070312 90.519531 127.882812 L 94.082031 125.140625 L 98.761719 120.820312 L 100.441406 132.613281 C 97.625 136.746094 93.386719 140.269531 87.71875 143.183594 C 83.070312 145.554688 77.828125 147.351562 71.992188 148.570312 L 54.023438 149.128906 C 48.1875 148.25 43.351562 146.367188 39.519531 143.488281 C 40.027344 138.949219 40.382812 134.59375 40.585938 130.425781 L 40.6875 128.035156 C 45.746094 131.492188 51.988281 133.542969 59.417969 134.1875 C 61.625 134.390625 64.324219 134.375 67.511719 134.136719 L 70.007812 133.578125 C 70.34375 133.304688 70.617188 132.578125 70.820312 131.390625 C 70.988281 130.476562 71.058594 129.359375 71.023438 128.035156 L 70.820312 124.632812 L 70.210938 114.667969 C 69.835938 109.585938 69.242188 104.316406 68.429688 98.863281 L 67.613281 92.8125 C 67.273438 90.476562 66.882812 88.492188 66.441406 86.867188 C 66.308594 86.359375 66.085938 86 65.78125 85.796875 L 64.507812 85.390625 C 62.4375 84.984375 60.164062 84.238281 57.6875 83.15625 C 54.703125 81.800781 52.292969 79.988281 50.460938 77.714844 C 48.492188 75.210938 47.441406 72.414062 47.304688 69.328125 L 47.304688 69.125 L 49.546875 69.175781 C 51.511719 70.804688 53.753906 72.160156 56.261719 73.242188 C 57.042969 75.140625 58.316406 76.632812 60.082031 77.714844 C 61.675781 78.699219 63.574219 79.277344 65.78125 79.445312 C 70.089844 79.785156 74.113281 78.699219 77.84375 76.191406 C 81.066406 74.058594 83.035156 71.464844 83.75 68.414062 L 88.175781 69.839844 C 89.261719 73.394531 88.601562 76.734375 86.191406 79.851562 C 85.34375 80.9375 84.222656 81.902344 82.832031 82.75 L 78.914062 84.832031 M 84.460938 84.375 C 86.054688 83.222656 87.328125 81.832031 88.277344 80.207031 C 89.875 77.394531 90.128906 74.039062 89.042969 70.144531 C 95.351562 72.378906 101.242188 75.34375 106.703125 79.039062 C 114.40625 84.222656 120.410156 90.339844 124.722656 97.386719 L 126.808594 101.097656 C 127.554688 102.722656 127.792969 104.046875 127.519531 105.0625 L 125.382812 111.261719 C 122.464844 118.71875 118.375 124.902344 113.117188 129.816406 C 111.523438 127.476562 109.65625 125.734375 107.519531 124.582031 C 105.074219 123.226562 102.613281 122.886719 100.136719 123.5625 L 99.628906 120.871094 L 99.578125 120.007812 L 99.578125 119.957031 L 99.679688 119.089844 C 99.882812 117.363281 100.648438 115.007812 101.96875 112.027344 C 103.328125 108.910156 105.058594 106.351562 107.160156 104.351562 C 107.398438 104.148438 107.382812 103.671875 107.109375 102.925781 C 106.804688 102.214844 106.566406 101.945312 106.398438 102.113281 C 103.851562 104.519531 101.886719 107.621094 100.492188 111.417969 C 99.78125 113.28125 99.304688 114.703125 99.070312 115.6875 L 98.914062 116.296875 L 95.710938 93.980469 L 95.710938 93.777344 C 95.640625 93.238281 95.453125 92.828125 95.148438 92.558594 C 94.84375 92.320312 94.742188 92.574219 94.84375 93.320312 L 98.40625 118.125 L 94.03125 122.34375 C 92.910156 123.292969 91.449219 124.308594 89.652344 125.394531 L 87.972656 126.460938 C 87.464844 126.765625 87.023438 126.9375 86.648438 126.96875 C 85.429688 113.617188 83.171875 100.300781 79.878906 87.019531 C 81.984375 85.933594 83.511719 85.054688 84.460938 84.375 M 100.339844 126.054688 C 102.75 125.207031 105.210938 125.445312 107.722656 126.765625 C 109.792969 127.882812 111.574219 129.527344 113.066406 131.695312 C 113.371094 133.527344 112.792969 135.289062 111.335938 136.984375 C 109.773438 138.777344 107.941406 139.726562 105.839844 139.828125 C 105.632812 139.863281 105.617188 140.253906 105.789062 141 C 105.957031 141.742188 106.160156 142.132812 106.398438 142.167969 L 106.5 142.21875 L 106.601562 142.21875 L 108.332031 142.726562 C 109.351562 143.097656 109.84375 143.453125 109.808594 143.792969 C 109.636719 145.117188 108.550781 146.011719 106.550781 146.488281 L 102.683594 146.742188 L 101.765625 136.015625 L 100.339844 126.054688 M 100.800781 135.457031 C 102.257812 150.230469 102.273438 163.226562 100.851562 174.441406 C 100.273438 178.949219 99.304688 184.203125 97.949219 190.199219 L 94.234375 205.753906 L 93.671875 208.246094 C 92.585938 209.089844 90.925781 209.71875 88.683594 210.125 C 86.003906 210.667969 82.796875 210.699219 79.066406 210.226562 L 70.261719 208.601562 C 70.734375 199.757812 71.007812 193.046875 71.074219 188.472656 C 71.210938 180.035156 70.617188 172.867188 69.292969 166.972656 C 71.023438 163.140625 72.804688 159.957031 74.636719 157.414062 C 74.839844 157.179688 74.789062 156.703125 74.484375 155.992188 C 74.179688 155.28125 73.960938 155.027344 73.824219 155.230469 C 71.6875 158.246094 69.667969 161.957031 67.765625 166.363281 C 66.613281 169.003906 65.101562 172.953125 63.238281 178.203125 L 59.265625 190.453125 C 57.671875 195.367188 56.160156 199.382812 54.738281 202.5 C 52.902344 206.5 51.039062 209.566406 49.136719 211.699219 C 48.121094 212.820312 46.609375 213.613281 44.609375 214.089844 L 44.507812 214.140625 L 37.175781 214.546875 C 34.429688 214.34375 31.59375 213.460938 28.675781 211.902344 L 26.285156 210.378906 L 25.570312 209.769531 L 25.46875 208.449219 C 25.503906 205.363281 26.148438 201.621094 27.40625 197.214844 L 30.816406 186.234375 C 33.121094 177.96875 35.207031 168.953125 37.074219 159.195312 C 37.957031 154.417969 38.6875 149.792969 39.261719 145.320312 C 43.132812 148.335938 48.019531 150.332031 53.921875 151.316406 C 59.554688 152.265625 65.441406 152.199219 71.582031 151.113281 C 77.488281 150.097656 82.949219 148.316406 87.972656 145.777344 C 93.605469 142.929688 97.882812 139.492188 100.800781 135.457031 M 94.386719 210.734375 C 99.613281 212.667969 103.667969 215.003906 106.550781 217.75 L 106.855469 217.445312 C 106.992188 217.273438 107.09375 217.410156 107.160156 217.851562 L 106.652344 217.800781 L 106.550781 217.75 L 105.738281 218.257812 C 104.683594 218.832031 103.277344 219.238281 101.511719 219.476562 C 97.949219 220.019531 94.097656 219.78125 89.957031 218.765625 C 86.054688 217.816406 82.492188 216.324219 79.269531 214.292969 L 79.066406 214.34375 L 77.945312 215.5625 L 75.707031 215.714844 L 73.3125 214.851562 C 72.332031 214.445312 71.753906 213.9375 71.582031 213.328125 L 71.582031 211.089844 C 78.574219 212.582031 84.222656 213.089844 88.53125 212.617188 C 91.28125 212.34375 93.148438 211.648438 94.132812 210.53125 L 94.386719 210.734375 M 54.480469 23.382812 L 53.972656 23.484375 L 49.902344 25.617188 L 49.492188 26.023438 C 49.492188 26.160156 49.648438 26.246094 49.953125 26.277344 L 54.125 26.378906 C 54.464844 26.414062 54.753906 26.3125 54.992188 26.074219 C 55.230469 25.804688 55.3125 25.5 55.246094 25.160156 L 55.195312 24.144531 C 55.125 23.636719 54.890625 23.382812 54.480469 23.382812 M 59.164062 37.105469 L 56.570312 40.207031 L 54.789062 42.136719 C 54.347656 42.644531 54.296875 43.1875 54.636719 43.761719 L 56.621094 47.269531 C 56.925781 47.675781 57.347656 47.914062 57.890625 47.980469 L 59.0625 47.777344 L 59.570312 47.421875 C 59.671875 47.21875 59.65625 46.984375 59.519531 46.710938 L 57.839844 44.066406 L 57.636719 43.253906 L 57.839844 42.390625 L 60.285156 38.476562 C 61.234375 36.917969 62.03125 35.257812 62.675781 33.496094 C 62.949219 32.851562 62.898438 32.496094 62.523438 32.429688 L 62.472656 32.429688 C 62.132812 32.359375 61.8125 32.613281 61.507812 33.191406 C 60.691406 34.785156 59.910156 36.089844 59.164062 37.105469 M 72.957031 32.9375 C 72.449219 32.902344 71.992188 33.207031 71.582031 33.851562 C 71.144531 34.460938 70.871094 35.242188 70.769531 36.191406 C 70.667969 37.140625 70.769531 37.96875 71.074219 38.679688 C 71.347656 39.390625 71.738281 39.765625 72.246094 39.796875 L 72.296875 39.796875 C 72.804688 39.867188 73.28125 39.578125 73.722656 38.933594 C 74.128906 38.324219 74.382812 37.546875 74.484375 36.597656 C 74.585938 35.648438 74.484375 34.816406 74.179688 34.105469 C 73.875 33.394531 73.46875 33.003906 72.957031 32.9375 M 47.253906 23.128906 L 43.996094 28.566406 C 43.214844 27.039062 42.792969 25.855469 42.726562 25.007812 C 42.621094 23.957031 42.726562 23.042969 43.03125 22.261719 C 43.335938 21.484375 43.726562 21.109375 44.199219 21.144531 C 44.472656 21.144531 44.726562 21.296875 44.964844 21.601562 C 45.644531 22.347656 46.40625 22.855469 47.253906 23.128906 M 52.75 32.582031 C 52.445312 31.902344 52.039062 31.53125 51.53125 31.460938 L 51.480469 31.460938 C 50.96875 31.429688 50.511719 31.71875 50.105469 32.328125 C 49.664062 32.972656 49.390625 33.765625 49.289062 34.714844 C 49.1875 35.664062 49.289062 36.496094 49.597656 37.207031 C 49.867188 37.917969 50.257812 38.289062 50.765625 38.324219 L 50.816406 38.324219 C 51.328125 38.390625 51.800781 38.105469 52.242188 37.460938 C 52.648438 36.816406 52.902344 36.019531 53.007812 35.070312 C 53.109375 34.121094 53.023438 33.292969 52.75 32.582031 M 48.78125 52.8125 L 48.984375 52.8125 L 51.734375 53.523438 L 57.382812 54.4375 L 58.808594 54.488281 C 61.488281 54.488281 65 53.777344 69.34375 52.351562 L 70.566406 52.199219 C 71.007812 52.269531 71.429688 52.453125 71.839844 52.761719 C 72.246094 53.132812 72.3125 53.523438 72.042969 53.929688 C 71.839844 54.234375 71.53125 54.453125 71.125 54.589844 C 67.257812 56.285156 64.609375 57.316406 63.1875 57.691406 L 58.046875 57.996094 L 54.890625 57.386719 L 48.78125 54.792969 C 48.304688 54.65625 48 54.25 47.867188 53.574219 C 47.761719 52.996094 48.070312 52.742188 48.78125 52.8125 M 54.789062 61.910156 L 55.144531 62.316406 L 56.824219 63.332031 C 57.09375 63.5 57.535156 63.621094 58.148438 63.6875 L 59.878906 63.535156 C 60.183594 63.5 60.4375 63.367188 60.640625 63.128906 C 60.84375 62.890625 60.929688 62.636719 60.894531 62.367188 C 60.792969 61.859375 60.4375 61.570312 59.828125 61.503906 L 55.347656 61.707031 L 54.789062 61.910156 M 7.351562 94.644531 C 11.253906 87.324219 17.175781 81.171875 25.113281 76.191406 C 32.375 71.652344 39.484375 69.296875 46.441406 69.125 C 46.78125 73.972656 48.664062 78.074219 52.089844 81.425781 C 53.683594 83.019531 55.925781 84.476562 58.808594 85.796875 C 59.65625 86.207031 60.914062 86.613281 62.574219 87.019531 L 65.882812 87.984375 C 66.800781 93.03125 67.613281 98.539062 68.328125 104.503906 C 68.734375 107.859375 69.105469 111.621094 69.445312 115.789062 L 70.007812 122.953125 C 70.175781 125.835938 70.109375 128.222656 69.800781 130.121094 C 69.597656 131.308594 68.292969 131.96875 65.882812 132.101562 L 60.691406 131.949219 C 57.398438 131.847656 54.023438 131.324219 50.5625 130.375 C 46.933594 129.390625 43.65625 127.933594 40.738281 126.003906 C 40.875 117.804688 40.367188 109.925781 39.210938 102.367188 L 44.046875 101.910156 C 44.285156 101.910156 44.300781 101.519531 44.097656 100.742188 C 43.929688 99.960938 43.691406 99.574219 43.386719 99.574219 C 38.230469 99.675781 33.816406 100.828125 30.152344 103.03125 C 26.183594 105.433594 23.332031 108.925781 21.601562 113.5 C 20.789062 115.738281 20.226562 118.074219 19.921875 120.515625 C 19.652344 122.71875 19.652344 124.785156 19.921875 126.714844 C 17.207031 126.105469 14.492188 126.75 11.777344 128.648438 C 9.84375 129.96875 7.773438 132.085938 5.570312 135 L 5.316406 134.695312 C 4.332031 133.507812 3.480469 131.933594 2.769531 129.96875 C 0.972656 125.257812 0.734375 118.871094 2.058594 110.804688 C 3.074219 104.707031 4.839844 99.320312 7.351562 94.644531 M 36.363281 137.289062 L 34.171875 137.542969 L 31.832031 138.203125 C 30.476562 138.304688 28.710938 138.035156 26.539062 137.390625 L 25.519531 137.035156 L 24.503906 137.136719 C 23.65625 138.085938 23.707031 139.695312 24.65625 141.964844 L 27.097656 146.539062 C 28.558594 148.875 30.457031 151.382812 32.800781 154.0625 C 31.746094 155.585938 29.761719 155.433594 26.84375 153.605469 C 23.347656 151.300781 20.6875 147.640625 18.851562 142.625 C 18.582031 141.878906 18.378906 141.710938 18.242188 142.117188 C 18.105469 142.523438 18.140625 142.964844 18.34375 143.4375 C 20.042969 148.148438 22.550781 151.941406 25.878906 154.824219 C 23.671875 156.824219 21.160156 156.535156 18.34375 153.960938 C 15.832031 151.65625 14.070312 148.910156 13.050781 145.726562 C 12.78125 144.980469 12.574219 144.792969 12.441406 145.167969 L 12.492188 146.539062 C 13.507812 149.691406 15.121094 152.484375 17.328125 154.925781 C 14.339844 155.839844 11.761719 154.433594 9.589844 150.707031 C 7.792969 147.589844 6.722656 144.167969 6.382812 140.4375 L 6.382812 138.304688 L 6.332031 137.1875 C 8.539062 134.339844 10.574219 132.253906 12.441406 130.933594 C 15.222656 128.96875 17.988281 128.359375 20.738281 129.105469 C 21.074219 129.578125 21.585938 130.019531 22.261719 130.425781 L 25.519531 132.152344 L 29.59375 133.832031 L 33.664062 135.457031 C 34.886719 136.101562 35.785156 136.710938 36.363281 137.289062 M 43.996094 216.53125 L 44.046875 216.53125 C 43.4375 218.394531 42.183594 220.070312 40.28125 221.5625 C 38.3125 223.085938 35.785156 224.339844 32.699219 225.324219 C 29.269531 226.441406 26.8125 225.238281 25.316406 221.714844 C 23.859375 218.257812 24.484375 215.460938 27.199219 213.328125 C 28.828125 214.511719 31.304688 215.53125 34.632812 216.375 C 37.480469 217.089844 40.605469 217.140625 43.996094 216.53125 "/>
</g>
</svg>
