<?xml version="1.0" encoding="UTF-8"?>
<svg xmlns="http://www.w3.org/2000/svg" xmlns:xlink="http://www.w3.org/1999/xlink" width="128pt" height="184pt" viewBox="0 0 128 184" version="1.1">
<g id="surface1">
<path style=" stroke:none;fill-rule:nonzero;fill:rgb(100%,100%,100%);fill-opacity:1;" d="M 88.847656 2.351562 C 89.261719 2.710938 89.675781 2.972656 90.085938 3.136719 C 91.578125 3.792969 92.761719 4.207031 93.644531 4.371094 C 95.242188 4.699219 96.648438 5.785156 97.859375 7.625 L 100.09375 10.757812 C 101.140625 11.277344 102.1875 12.417969 103.234375 14.175781 C 103.980469 15.46875 104.597656 16.8125 105.09375 18.214844 C 106.003906 20.6875 105.976562 23.859375 105.011719 27.730469 C 104.542969 29.652344 103.980469 31.328125 103.316406 32.757812 C 103.015625 30.449219 102.089844 28.402344 100.546875 26.617188 L 97.488281 23.777344 C 98.398438 23.199219 99.210938 22.539062 99.925781 21.796875 C 100.835938 20.808594 101.265625 19.929688 101.210938 19.160156 C 101.125 18.0625 100.808594 17.117188 100.257812 16.320312 C 99.488281 15.191406 98.382812 14.589844 96.949219 14.507812 L 96.042969 14.507812 L 93.105469 15.289062 C 91.808594 15.757812 90.957031 15.976562 90.542969 15.949219 L 90.253906 15.90625 C 90.085938 15.851562 89.234375 14.863281 87.691406 12.941406 C 86.230469 11.101562 85.015625 10.152344 84.050781 10.097656 L 83.347656 10.179688 L 81.859375 10.921875 C 81.0625 11.390625 80.59375 11.648438 80.453125 11.703125 C 80.371094 11.757812 79.78125 12.0625 78.675781 12.609375 C 78.097656 12.886719 77.65625 13.007812 77.355469 12.980469 L 76.859375 12.816406 L 75.78125 12.15625 L 74.707031 11.539062 L 73.675781 11.210938 C 73.125 11.210938 72.460938 11.375 71.691406 11.703125 C 71.140625 11.980469 70.175781 12.859375 68.796875 14.339844 L 66.605469 16.648438 C 65.390625 17.527344 64.25 17.925781 63.171875 17.84375 C 62.457031 17.816406 61.835938 17.515625 61.3125 16.9375 C 60.375 15.921875 59.78125 14.617188 59.535156 13.023438 C 59.285156 11.484375 59.425781 10.140625 59.949219 8.984375 C 60.304688 8.078125 60.886719 7.308594 61.683594 6.679688 C 61.519531 7.722656 61.753906 8.519531 62.386719 9.066406 C 63.078125 9.726562 63.917969 10.097656 64.910156 10.179688 C 66.289062 10.261719 67.527344 9.78125 68.628906 8.738281 C 71.277344 6.101562 73.09375 4.699219 74.085938 4.535156 L 75.039062 4.496094 L 77.023438 4.988281 C 77.796875 5.320312 78.320312 5.496094 78.59375 5.523438 C 79.0625 5.523438 79.433594 5.402344 79.710938 5.152344 L 81.324219 3.257812 C 82.921875 1.117188 84.050781 0.03125 84.714844 0.00390625 L 84.960938 0.00390625 C 85.761719 0.03125 86.710938 0.5 87.8125 1.40625 L 88.847656 2.351562 M 98.976562 18.707031 C 99.390625 20.464844 98.453125 21.878906 96.164062 22.953125 L 95.75 23.28125 C 95.558594 23.554688 95.640625 23.804688 96 24.023438 L 99.722656 27.070312 C 101.679688 29.269531 102.574219 31.671875 102.410156 34.28125 C 101.636719 32.085938 100.671875 30.203125 99.515625 28.636719 C 97.941406 26.742188 96.910156 25.699219 96.414062 25.507812 L 96.082031 25.421875 L 95.546875 25.710938 C 95.460938 25.90625 95.53125 26.082031 95.75 26.246094 L 96.746094 27.152344 L 98.730469 29.253906 C 99.554688 30.160156 100.3125 31.316406 101.003906 32.714844 L 102.203125 35.433594 L 101.953125 36.382812 L 100.835938 33.910156 C 100.203125 32.675781 99.542969 31.671875 98.851562 30.902344 C 97.941406 29.859375 97.074219 29.132812 96.25 28.71875 L 96.082031 28.679688 C 95.835938 28.652344 95.695312 28.789062 95.667969 29.089844 C 95.640625 29.421875 95.808594 29.707031 96.164062 29.957031 L 98.066406 31.644531 L 100.382812 34.941406 L 101.664062 37.207031 L 101.664062 37.246094 C 101.554688 37.550781 101.539062 37.839844 101.621094 38.113281 L 100.21875 37.578125 L 100.339844 38.195312 C 102.1875 39.816406 102.558594 41.695312 101.457031 43.839844 C 100.382812 45.953125 98.671875 46.929688 96.332031 46.765625 L 95.667969 46.683594 C 92.941406 50.882812 89.675781 54.027344 85.871094 56.117188 C 85.484375 56.308594 85.304688 56.488281 85.332031 56.652344 C 85.332031 56.789062 85.511719 56.871094 85.871094 56.898438 C 86.972656 57.007812 88.335938 56.582031 89.964844 55.621094 C 89.578125 57.65625 88.019531 59.398438 85.292969 60.855469 C 82.785156 62.199219 80.371094 62.789062 78.058594 62.625 C 77.066406 62.542969 76.25 62.269531 75.617188 61.800781 L 75.824219 61.84375 L 78.554688 61.472656 C 79.820312 61.171875 80.425781 60.910156 80.371094 60.6875 L 80.207031 60.605469 L 79.253906 60.648438 L 77.519531 60.648438 C 75.257812 60.484375 72.75 59.6875 69.996094 58.257812 C 65.089844 55.675781 61.628906 51.515625 59.617188 45.777344 C 57.660156 40.308594 57.46875 34.789062 59.039062 29.214844 C 59.949219 25.78125 61.628906 22.363281 64.082031 18.957031 C 65.128906 18.875 66.246094 18.394531 67.429688 17.515625 L 69.664062 15.125 L 72.394531 12.570312 L 73.21875 12.445312 C 74.046875 12.5 74.96875 12.898438 75.988281 13.640625 C 76.429688 13.886719 76.941406 14.039062 77.519531 14.09375 C 78.484375 14.148438 79.683594 13.847656 81.117188 13.1875 L 83.183594 12.859375 C 85.03125 12.996094 86.683594 14.011719 88.144531 15.90625 C 88.613281 16.511719 89.21875 16.839844 89.964844 16.894531 L 92.15625 16.566406 L 95.835938 16.03125 L 96.125 16.03125 C 97.613281 16.167969 98.5625 17.058594 98.976562 18.707031 M 88.019531 24.394531 C 88.242188 23.734375 87.8125 22.71875 86.738281 21.34375 L 85.085938 19.492188 L 84.671875 19.328125 C 84.367188 19.273438 84.148438 19.382812 84.011719 19.65625 L 83.347656 20.398438 C 82.933594 20.917969 82.769531 21.261719 82.851562 21.425781 C 82.878906 21.484375 83.128906 21.621094 83.597656 21.839844 L 85.125 22.621094 L 86.820312 23.734375 L 87.980469 24.394531 L 88.019531 24.394531 M 98.027344 33.5 C 97.53125 32.894531 96.882812 32.371094 96.082031 31.933594 L 95.957031 31.933594 C 95.738281 31.90625 95.574219 32 95.460938 32.222656 C 95.351562 32.46875 95.449219 32.714844 95.75 32.964844 L 95.835938 33.046875 L 97.28125 34.15625 L 98.316406 35.433594 C 98.699219 36.011719 98.964844 36.300781 99.101562 36.300781 L 99.265625 36.136719 L 98.976562 34.941406 L 98.027344 33.5 M 95.296875 35.394531 C 95.214844 35.640625 95.269531 35.832031 95.460938 35.96875 L 96 36.464844 L 96.539062 37.414062 C 96.539062 37.742188 96.6875 37.90625 96.992188 37.90625 L 97.363281 37.785156 L 97.488281 37.289062 C 97.488281 36.847656 97.308594 36.421875 96.949219 36.011719 L 96.042969 35.148438 L 95.792969 35.0625 C 95.574219 35.035156 95.40625 35.148438 95.296875 35.394531 M 84.878906 42.109375 L 80.992188 38.894531 L 80.703125 38.773438 C 80.480469 38.71875 80.441406 38.855469 80.578125 39.183594 L 80.992188 40.542969 C 81.046875 40.734375 80.964844 40.957031 80.746094 41.203125 C 80.550781 41.394531 80.34375 41.519531 80.125 41.574219 C 76.238281 42.699219 73.371094 43.289062 71.523438 43.34375 L 70.367188 43.34375 L 66.109375 42.601562 L 63.957031 42.027344 L 63.421875 41.65625 L 63.253906 41.039062 L 63.339844 40.460938 C 63.394531 40.1875 63.351562 40.050781 63.214844 40.050781 L 62.882812 40.253906 L 61.230469 41.984375 C 60.84375 42.371094 60.773438 42.808594 61.023438 43.304688 L 62.59375 46.144531 L 62.882812 46.433594 C 62.964844 46.433594 63.023438 46.3125 63.050781 46.0625 L 63.050781 45.652344 C 63.105469 45.210938 63.3125 45.019531 63.667969 45.074219 L 63.875 45.117188 L 66.355469 46.847656 C 68.367188 48 70.214844 48.644531 71.898438 48.78125 L 71.9375 48.78125 C 73.621094 48.894531 75.90625 48.261719 78.800781 46.886719 C 80.234375 46.203125 81.503906 45.5 82.605469 44.785156 L 82.976562 44.746094 C 83.363281 44.800781 83.636719 44.964844 83.804688 45.238281 L 83.679688 47.136719 L 84.011719 47.382812 C 84.148438 47.4375 84.246094 47.328125 84.300781 47.054688 L 85.332031 43.386719 L 85.292969 42.6875 L 84.878906 42.109375 M 95.667969 56.445312 C 96.605469 59.441406 96.082031 62.199219 94.097656 64.726562 C 93.4375 65.605469 92.539062 66.386719 91.410156 67.074219 C 91.050781 67.292969 89.976562 67.859375 88.1875 68.765625 C 88.046875 68.820312 88.035156 69.164062 88.144531 69.792969 L 91.410156 82.234375 C 92.570312 86.988281 93.285156 91.203125 93.5625 94.882812 L 93.5625 98.632812 C 93.503906 100.253906 93.5625 101.488281 93.726562 102.339844 C 93.835938 102.945312 94.027344 103.316406 94.304688 103.453125 L 95.546875 103.328125 C 98.578125 102.09375 101.5 100.238281 104.308594 97.769531 L 105.714844 107.777344 L 105.675781 107.820312 C 103.167969 111.035156 99.460938 113.628906 94.554688 115.605469 C 90.582031 117.199219 86.144531 118.285156 81.242188 118.859375 C 76.417969 119.464844 71.71875 119.203125 67.140625 118.078125 C 62.871094 117.0625 59.34375 115.429688 56.558594 113.175781 L 57.054688 106.832031 L 57.21875 100.28125 C 61.050781 103.300781 65.792969 105.308594 71.441406 106.296875 C 77.863281 107.367188 81.226562 107.285156 81.53125 106.046875 C 81.941406 104.289062 82.066406 102.066406 81.902344 99.375 L 81.28125 92.699219 C 80.785156 86.328125 79.765625 79.144531 78.222656 71.152344 L 77.972656 70.164062 C 77.835938 69.808594 77.628906 69.5625 77.355469 69.421875 L 74.625 68.597656 L 71.898438 67.734375 C 69.359375 66.664062 67.28125 65.179688 65.652344 63.285156 C 63.863281 61.226562 62.898438 58.917969 62.757812 56.363281 C 62.757812 56.117188 62.675781 55.839844 62.511719 55.539062 L 63.503906 55.332031 C 65.296875 56.980469 67.390625 58.328125 69.789062 59.371094 C 70.421875 60.910156 71.457031 62.117188 72.890625 62.996094 C 74.210938 63.792969 75.769531 64.261719 77.5625 64.398438 C 81.035156 64.671875 84.285156 63.792969 87.316406 61.761719 C 89.992188 59.976562 91.617188 57.820312 92.195312 55.292969 L 95.667969 56.40625 L 95.667969 56.445312 M 92.691406 68.394531 C 94.015625 67.460938 95.050781 66.332031 95.792969 65.015625 C 97.117188 62.734375 97.324219 59.949219 96.414062 56.652344 C 101.511719 58.492188 106.308594 60.949219 110.800781 64.027344 C 117.058594 68.3125 121.921875 73.28125 125.394531 78.941406 L 127.089844 81.949219 C 127.695312 83.265625 127.890625 84.335938 127.667969 85.160156 L 125.972656 90.1875 C 123.546875 96.257812 120.214844 101.269531 115.96875 105.226562 C 114.671875 103.355469 113.15625 101.941406 111.421875 100.980469 C 109.410156 99.882812 107.425781 99.609375 105.46875 100.15625 L 105.054688 97.972656 C 105 97.726562 104.984375 97.4375 105.011719 97.109375 L 105.054688 96.53125 L 105.550781 94.308594 L 106.914062 90.804688 C 108.015625 88.25 109.4375 86.175781 111.171875 84.585938 C 111.339844 84.417969 111.3125 84.035156 111.089844 83.429688 C 110.871094 82.855469 110.675781 82.632812 110.511719 82.773438 C 108.5 84.640625 106.902344 87.152344 105.714844 90.3125 C 105.136719 91.875 104.722656 93.234375 104.476562 94.390625 L 101.871094 76.179688 L 101.828125 76.015625 C 101.773438 75.574219 101.621094 75.246094 101.375 75.027344 C 101.125 74.835938 101.042969 75.039062 101.125 75.644531 L 104.019531 95.667969 L 100.300781 98.589844 C 97.433594 100.570312 95.503906 101.613281 94.511719 101.722656 C 94.539062 95.871094 93.878906 89.886719 92.527344 83.761719 L 90.707031 76.675781 L 88.972656 70.535156 C 90.707031 69.628906 91.949219 68.914062 92.691406 68.394531 M 105.589844 102.175781 C 107.578125 101.488281 109.589844 101.679688 111.628906 102.753906 C 113.28125 103.632812 114.714844 104.9375 115.925781 106.667969 C 116.203125 108.175781 115.734375 109.632812 114.523438 111.035156 C 113.28125 112.488281 111.808594 113.257812 110.097656 113.339844 C 109.90625 113.367188 109.878906 113.683594 110.015625 114.289062 C 110.152344 114.890625 110.320312 115.207031 110.511719 115.234375 L 110.59375 115.277344 L 110.675781 115.277344 L 112.125 115.6875 C 112.949219 115.992188 113.351562 116.28125 113.324219 116.554688 C 113.183594 117.625 112.289062 118.351562 110.636719 118.738281 L 107.492188 118.945312 L 106.75 110.25 L 105.589844 102.175781 M 106.003906 110.085938 C 107.191406 121.921875 107.191406 132.359375 106.003906 141.398438 C 105.535156 145.078125 104.75 149.335938 103.648438 154.167969 L 100.671875 166.773438 L 100.175781 168.792969 C 99.320312 169.480469 97.972656 169.988281 96.125 170.316406 C 93.945312 170.757812 91.34375 170.785156 88.308594 170.398438 L 81.15625 169.082031 C 81.542969 161.914062 81.765625 156.476562 81.820312 152.765625 C 81.957031 145.875 81.488281 140.035156 80.414062 135.257812 C 81.792969 132.238281 83.226562 129.683594 84.714844 127.59375 C 84.878906 127.402344 84.835938 127.019531 84.589844 126.441406 C 84.339844 125.863281 84.175781 125.660156 84.09375 125.824219 C 82.328125 128.269531 80.675781 131.277344 79.132812 134.847656 C 78.195312 136.988281 76.96875 140.1875 75.453125 144.445312 L 72.226562 154.375 C 70.933594 158.355469 69.707031 161.609375 68.546875 164.136719 C 67.003906 167.460938 65.503906 169.945312 64.042969 171.59375 C 63.214844 172.5 61.988281 173.160156 60.363281 173.574219 L 60.277344 173.574219 L 54.324219 173.902344 C 52.066406 173.738281 49.765625 173.023438 47.421875 171.757812 L 45.476562 170.523438 L 44.859375 169.988281 L 44.816406 168.957031 C 44.816406 166.457031 45.328125 163.425781 46.347656 159.851562 L 49.117188 150.953125 C 50.964844 144.472656 52.628906 137.316406 54.117188 129.492188 C 55.109375 124.160156 55.867188 119.21875 56.394531 114.660156 C 59.175781 117.019531 62.71875 118.75 67.019531 119.851562 C 71.402344 120.949219 76.03125 121.292969 80.910156 120.878906 C 85.871094 120.46875 90.488281 119.410156 94.757812 117.707031 C 99.664062 115.757812 103.414062 113.21875 106.003906 110.085938 M 100.546875 170.605469 L 100.796875 170.8125 C 105.066406 172.40625 108.363281 174.300781 110.675781 176.496094 L 110.925781 176.25 C 111.035156 176.113281 111.105469 176.222656 111.132812 176.578125 L 110.71875 176.539062 L 110.675781 176.496094 L 109.972656 176.910156 C 109.175781 177.347656 108.03125 177.679688 106.542969 177.898438 C 103.648438 178.335938 100.535156 178.144531 97.199219 177.320312 C 94.027344 176.550781 91.121094 175.34375 88.476562 173.695312 L 88.308594 173.738281 L 87.402344 174.726562 C 86.960938 175.21875 85.71875 175.027344 83.679688 174.148438 C 82.851562 173.820312 82.371094 173.40625 82.234375 172.914062 L 82.273438 171.101562 C 87.925781 172.308594 92.5 172.722656 96 172.335938 C 98.234375 172.117188 99.75 171.539062 100.546875 170.605469 M 9.300781 47.546875 L 11.867188 47.21875 C 13.105469 47.300781 13.726562 47.683594 13.726562 48.371094 C 13.753906 49.550781 13.53125 51.308594 13.066406 53.644531 C 12.871094 55.675781 13.394531 57.285156 14.636719 58.464844 L 17.035156 60.152344 L 19.597656 61.636719 C 21.417969 62.816406 22.492188 64.382812 22.820312 66.332031 C 23.097656 68.171875 22.65625 69.890625 21.5 71.484375 L 21.417969 71.605469 L 21.25 71.773438 C 21.085938 71.964844 21.125 72.347656 21.375 72.925781 C 21.59375 73.53125 21.773438 73.75 21.914062 73.585938 L 22.820312 72.390625 C 22.960938 73.679688 22.875 74.945312 22.574219 76.179688 C 22.132812 78.019531 21.265625 79.570312 19.96875 80.835938 C 18.34375 82.457031 16.125 83.253906 13.3125 83.226562 C 10.613281 83.199219 8.363281 82.457031 6.574219 81 C 4.039062 78.914062 4.355469 77.359375 7.523438 76.34375 C 9.976562 75.546875 12.417969 75.261719 14.84375 75.480469 C 16.109375 75.5625 17.128906 75.917969 17.902344 76.550781 C 18.785156 77.265625 18.589844 78.019531 17.324219 78.816406 C 16.21875 79.503906 14.898438 79.792969 13.355469 79.683594 C 12.058594 79.570312 10.75 79.1875 9.425781 78.527344 C 9.261719 78.472656 9.21875 78.746094 9.300781 79.351562 C 9.386719 79.957031 9.535156 80.3125 9.757812 80.421875 C 11.382812 81.21875 12.980469 81.605469 14.554688 81.578125 C 16.398438 81.578125 17.902344 80.988281 19.058594 79.804688 C 19.527344 79.285156 19.664062 78.515625 19.472656 77.5 C 19.308594 76.648438 19.019531 75.960938 18.605469 75.4375 C 18.992188 75.054688 19.210938 74.503906 19.265625 73.789062 C 19.347656 72.910156 19.15625 71.921875 18.6875 70.824219 C 18.382812 70.136719 17.914062 69.546875 17.28125 69.050781 C 17.585938 68.667969 17.777344 68.1875 17.859375 67.609375 C 17.972656 66.675781 17.777344 65.648438 17.28125 64.519531 C 16.261719 62.296875 13.671875 61.085938 9.507812 60.894531 L 9.261719 60.894531 L 9.261719 60.773438 C 9.261719 59.949219 8.917969 59.070312 8.226562 58.136719 C 7.125 56.597656 6.4375 55.238281 6.160156 54.054688 C 5.773438 52.546875 5.980469 51.089844 6.78125 49.691406 C 7.25 48.78125 8.089844 48.070312 9.300781 47.546875 M 6.410156 69.589844 L 9.714844 69.175781 C 12.113281 68.984375 14.167969 69.230469 15.875 69.917969 L 15.957031 69.957031 L 16.867188 70.371094 C 17.722656 70.867188 18.234375 71.511719 18.398438 72.308594 C 18.5625 73.1875 18.121094 73.789062 17.074219 74.121094 L 16.992188 74.203125 C 16.277344 73.84375 15.433594 73.625 14.46875 73.542969 C 13.449219 73.433594 11.949219 73.460938 9.964844 73.625 C 7.757812 73.816406 6.1875 74.351562 5.25 75.230469 L 5.003906 74.984375 C 3.925781 74.464844 3.238281 73.929688 2.933594 73.378906 C 2.578125 72.691406 2.757812 71.9375 3.472656 71.113281 C 4.078125 70.398438 5.058594 69.890625 6.410156 69.589844 M 7.773438 62.914062 L 8.351562 62.832031 C 11.273438 62.640625 13.65625 63.050781 15.503906 64.066406 C 16.441406 64.589844 16.9375 65.261719 16.992188 66.085938 C 17.074219 66.9375 16.578125 67.582031 15.503906 68.023438 L 15.460938 68.0625 C 14.25 67.570312 12.71875 67.28125 10.875 67.199219 C 7.070312 67.089844 4.480469 67.707031 3.101562 69.050781 C 1.035156 67.265625 0.855469 65.769531 2.5625 64.5625 C 3.75 63.710938 5.417969 63.160156 7.566406 62.914062 L 7.773438 62.914062 M 68.382812 18.957031 L 67.925781 19.039062 L 64.621094 20.769531 L 64.289062 21.097656 C 64.289062 21.207031 64.414062 21.277344 64.660156 21.304688 L 68.050781 21.386719 C 68.328125 21.414062 68.5625 21.332031 68.753906 21.140625 C 68.949219 20.945312 69.03125 20.699219 69.003906 20.398438 L 68.917969 19.574219 C 68.863281 19.160156 68.6875 18.957031 68.382812 18.957031 M 75.121094 26.578125 L 74.875 26.289062 L 74.832031 26.289062 C 74.582031 26.234375 74.335938 26.441406 74.085938 26.90625 L 72.1875 30.078125 L 70.078125 32.59375 L 68.628906 34.15625 C 68.273438 34.515625 68.21875 34.953125 68.464844 35.476562 L 70.117188 38.320312 C 70.394531 38.648438 70.738281 38.839844 71.152344 38.894531 L 72.0625 38.730469 C 72.28125 38.703125 72.433594 38.605469 72.515625 38.441406 C 72.597656 38.277344 72.570312 38.085938 72.433594 37.867188 L 71.070312 35.722656 L 70.90625 35.0625 L 71.070312 34.363281 L 73.054688 31.191406 C 73.824219 29.929688 74.488281 28.582031 75.039062 27.152344 L 75.121094 26.578125 M 84.382812 27.648438 C 84.132812 27.070312 83.804688 26.753906 83.390625 26.699219 L 83.347656 26.699219 C 82.933594 26.671875 82.5625 26.921875 82.234375 27.441406 C 81.875 27.9375 81.652344 28.570312 81.570312 29.335938 C 81.488281 30.105469 81.570312 30.78125 81.820312 31.355469 C 82.066406 31.933594 82.398438 32.234375 82.8125 32.261719 C 83.226562 32.316406 83.609375 32.085938 83.96875 31.5625 C 84.300781 31.066406 84.507812 30.4375 84.589844 29.667969 C 84.671875 28.898438 84.601562 28.226562 84.382812 27.648438 M 62.511719 18.75 L 59.824219 23.15625 C 59.191406 21.757812 58.859375 20.796875 58.832031 20.273438 C 58.75 19.394531 58.816406 18.652344 59.039062 18.050781 C 59.285156 17.417969 59.605469 17.117188 59.988281 17.144531 C 60.183594 17.144531 60.402344 17.265625 60.652344 17.515625 C 61.175781 18.089844 61.796875 18.503906 62.511719 18.75 M 66.933594 26.414062 C 66.6875 25.863281 66.355469 25.5625 65.941406 25.507812 L 65.902344 25.507812 C 65.515625 25.480469 65.144531 25.710938 64.785156 26.207031 C 64.425781 26.753906 64.21875 27.402344 64.164062 28.144531 C 64.082031 28.910156 64.164062 29.585938 64.414062 30.160156 C 64.632812 30.738281 64.949219 31.039062 65.363281 31.066406 C 65.777344 31.121094 66.164062 30.890625 66.523438 30.367188 C 66.878906 29.847656 67.085938 29.199219 67.140625 28.429688 C 67.226562 27.664062 67.15625 26.988281 66.933594 26.414062 M 63.75 42.808594 L 63.875 42.808594 L 66.109375 43.386719 L 70.699219 44.128906 L 71.855469 44.167969 C 74.03125 44.167969 76.886719 43.59375 80.414062 42.4375 L 81.40625 42.316406 C 81.820312 42.371094 82.164062 42.519531 82.4375 42.769531 C 82.769531 43.070312 82.824219 43.386719 82.605469 43.714844 C 82.46875 43.933594 82.234375 44.113281 81.902344 44.25 C 78.757812 45.625 76.597656 46.460938 75.410156 46.765625 L 71.277344 47.011719 C 70.144531 46.929688 69.277344 46.765625 68.671875 46.515625 L 63.710938 44.417969 C 63.324219 44.304688 63.089844 43.976562 63.007812 43.425781 C 62.898438 42.960938 63.144531 42.753906 63.75 42.808594 M 68.917969 50.511719 L 70.242188 51.335938 C 70.464844 51.476562 70.820312 51.570312 71.316406 51.625 L 72.765625 51.503906 L 73.34375 51.171875 C 73.507812 50.980469 73.578125 50.773438 73.550781 50.554688 C 73.496094 50.144531 73.21875 49.910156 72.722656 49.855469 L 69.042969 50.019531 L 68.628906 50.183594 L 68.917969 50.511719 M 24.597656 63.574219 C 30.691406 65.195312 37.386719 64.824219 44.691406 62.460938 C 46.179688 61.992188 49.308594 60.703125 54.078125 58.589844 C 57.164062 57.214844 59.808594 56.238281 62.015625 55.664062 C 62.261719 59.5625 63.75 62.941406 66.480469 65.796875 C 67.75 67.0625 69.457031 68.242188 71.605469 69.339844 C 72.351562 69.726562 73.398438 70.097656 74.75 70.453125 L 77.601562 71.320312 C 78.484375 75.90625 79.160156 79.96875 79.628906 83.511719 L 80.746094 93.277344 C 81.046875 96.957031 81.117188 100.210938 80.949219 103.042969 C 80.867188 104.332031 79.820312 105.019531 77.808594 105.101562 L 73.261719 104.6875 C 70.835938 104.46875 68.175781 103.878906 65.28125 102.917969 C 62.167969 101.820312 59.480469 100.378906 57.21875 98.589844 C 57.082031 93.59375 56.597656 88.839844 55.773438 84.335938 C 57.8125 83.789062 59.644531 83.128906 61.269531 82.359375 C 61.519531 82.25 61.546875 81.894531 61.355469 81.289062 C 61.132812 80.65625 60.941406 80.382812 60.773438 80.464844 C 57.964844 81.78125 54.242188 82.839844 49.613281 83.636719 C 41.09375 85.121094 32.425781 84.804688 23.605469 82.6875 C 24.296875 82.332031 24.917969 81.6875 25.46875 80.753906 C 26.292969 79.40625 26.816406 77.757812 27.039062 75.808594 C 27.34375 73.308594 27.203125 70.878906 26.625 68.515625 C 26.183594 66.730469 25.507812 65.082031 24.597656 63.574219 M 23.648438 63.695312 C 24.945312 65.425781 25.785156 67.390625 26.171875 69.589844 C 26.554688 71.675781 26.488281 73.816406 25.964844 76.015625 C 25.660156 77.472656 25.125 78.664062 24.351562 79.597656 C 23.636719 80.476562 22.835938 80.972656 21.953125 81.082031 C 22.3125 80.476562 22.628906 79.804688 22.90625 79.0625 C 23.785156 76.59375 23.910156 73.96875 23.277344 71.195312 C 23.71875 69.957031 23.867188 68.613281 23.730469 67.15625 C 23.59375 65.566406 23.152344 64.148438 22.410156 62.914062 L 23.484375 63.242188 L 23.648438 63.695312 M 59.535156 175.714844 L 59.824219 175.671875 C 59.300781 177.101562 58.292969 178.40625 56.804688 179.585938 C 55.207031 180.851562 53.152344 181.867188 50.644531 182.636719 C 47.863281 183.542969 45.863281 182.566406 44.652344 179.710938 C 43.464844 176.882812 43.988281 174.601562 46.222656 172.871094 C 48.125 174.300781 50.785156 175.246094 54.203125 175.714844 C 55.964844 175.988281 57.742188 175.988281 59.535156 175.714844 "/>
</g>
</svg>
