<?xml version="1.0" encoding="utf-8"?>
<!-- Generator: Adobe Illustrator 24.3.0, SVG Export Plug-In . SVG Version: 6.00 Build 0)  -->
<svg version="1.1" id="Layer_1" xmlns="http://www.w3.org/2000/svg" xmlns:xlink="http://www.w3.org/1999/xlink" x="0px" y="0px"
	 viewBox="0 0 137 192" style="enable-background:new 0 0 137 192;" xml:space="preserve">
<style type="text/css">
	.st0{fill:#FFFFFF;}
</style>
<g id="surface1">
	<path class="st0" d="M100.7,4.6c1.7,0.3,3.2,1.5,4.4,3.4l2.3,3.3c1.1,0.5,2.2,1.7,3.3,3.6c0.8,1.3,1.4,2.7,2,4.2
		c0.9,2.6,0.9,5.9-0.1,10c-0.5,2-1.1,3.8-1.8,5.3c-0.4-2.5-1.4-4.7-2.9-6.4l-1.8-1.8l-1.3-1.2l2.5-2.1c1-1,1.4-2,1.3-2.8
		c-0.1-1.2-0.4-2.1-1-3c-0.8-1.2-1.9-1.8-3.5-1.9h-1l-3,0.8c-1.4,0.5-2.3,0.7-2.7,0.7h-0.3c-0.2-0.1-1.1-1.1-2.7-3.1
		c-1.5-1.9-2.8-2.9-3.8-3l-0.7,0.1l-1.6,0.8c-0.8,0.5-1.3,0.7-1.5,0.8l-1.9,1c-0.5,0.3-1,0.5-1.3,0.4l-0.5-0.2l-1.2-0.7
		c-1.1-0.6-1.8-0.9-2.2-1l-2,0.5c-0.6,0.3-1.6,1.2-3.1,2.8l-2.3,2.4c-1.2,0.9-2.4,1.3-3.6,1.3c-0.8-0.1-1.4-0.4-1.9-1
		c-1-1.1-1.6-2.4-1.9-4.1c-0.2-1.6-0.1-3,0.4-4.2c0.5-1,1.1-1.8,1.9-2.4c-0.2,1,0,1.9,0.7,2.5c0.8,0.7,1.7,1.1,2.7,1.2
		c1.4,0.1,2.7-0.4,3.9-1.5c2.8-2.8,4.7-4.2,5.7-4.4h1l2,0.5C84,5.7,84.6,5.9,84.9,6c0.4,0,0.8-0.1,1.2-0.4l1.7-2
		C89.4,1.2,90.6,0,91.3,0h0.3c0.9,0,1.9,0.5,3,1.5l1.1,1c0.4,0.4,0.8,0.7,1.3,0.8C98.5,3.9,99.8,4.4,100.7,4.6 M103.3,16.8
		c1.6,0.1,2.6,1.1,3,2.8c0.5,1.8-0.5,3.3-2.9,4.5l-0.4,0.3c-0.2,0.3-0.1,0.6,0.3,0.8l3.9,3.2c2.1,2.3,3,4.8,2.8,7.6
		c-0.6-2.1-1.6-4-3-5.9c-1.6-2-2.7-3.1-3.3-3.3l-0.3-0.1c-0.3,0-0.5,0.1-0.6,0.3c-0.1,0.2,0,0.4,0.2,0.6l1,1l2,2.2
		c1.2,1.4,2.4,3.5,3.7,6.5l-0.3,1c-1-2.4-2.1-4.4-3.3-5.8c-1-1.2-1.9-1.9-2.7-2.3h-0.2c-0.3,0-0.4,0.1-0.4,0.4s0.1,0.6,0.5,0.9
		l2,1.8c1.2,1.4,2.4,3.3,3.8,5.8l0,0c-0.1,0.3-0.1,0.6,0,0.9l-1.5-0.6c0,0.2,0,0.4,0.2,0.6c1.9,1.7,2.3,3.7,1.1,6
		c-1.1,2.2-2.9,3.2-5.4,3.1l-0.6-0.1c-2.9,4.5-6.4,7.8-10.3,9.9c-0.4,0.2-0.6,0.4-0.6,0.6c0,0.1,0.2,0.2,0.6,0.3
		c1.2,0.1,2.6-0.3,4.3-1.3c-0.4,2.1-2,4-4.9,5.5c-2.7,1.4-5.2,2-7.6,1.8c-1.1-0.1-1.9-0.3-2.6-0.8H82l2.9-0.4c1.3-0.3,2-0.6,1.9-0.8
		l-0.2-0.1h-1h-1.9c-2.4-0.2-5-1-7.8-2.5c-5.1-2.7-8.8-7.1-10.9-13.1c-2-5.7-2.2-11.5-0.6-17.4c1-3.6,2.8-7.2,5.3-10.8
		c1-0.1,2.2-0.6,3.6-1.5l2.3-2.5l2.8-2.7l0.9-0.1c0.8,0.1,1.8,0.5,2.9,1.3c0.5,0.3,1.1,0.4,1.6,0.5c1,0.1,2.3-0.2,3.8-1l2.1-0.3
		c2,0.1,3.7,1.2,5.2,3.2c0.5,0.6,1.1,1,1.9,1l2.3-0.3l3.9-0.6L103.3,16.8 M93.6,24.9c0.6,0.4,1,0.7,1.2,0.7l0,0
		c0.3-0.7-0.2-1.8-1.3-3.2l-1.7-1.9l-0.4-0.2c-0.3,0-0.6,0.1-0.7,0.3L90,21.4c-0.4,0.5-0.6,0.9-0.5,1.1l0.8,0.4l1.6,0.8L93.6,24.9
		 M105.3,35.1l-2-1.6h-0.1c-0.3,0-0.4,0.1-0.6,0.3c-0.1,0.3,0,0.5,0.3,0.8l0.1,0.1l1.5,1.2l1.1,1.3c0.4,0.6,0.7,0.9,0.8,0.9l0.2-0.2
		c0.1-0.2-0.1-0.6-0.3-1.3L105.3,35.1 M103,36.8c-0.2,0-0.4,0.1-0.5,0.3c-0.1,0.3,0,0.5,0.2,0.6l0.6,0.5l0.5,1
		c0,0.3,0.2,0.5,0.5,0.5c0.4,0.1,0.6-0.2,0.6-0.6l-0.6-1.3l-1-0.9L103,36.8 M92,44.8l-0.4-0.6l-4.1-3.4l-0.3-0.1
		c-0.2-0.1-0.2,0.1-0.1,0.4l0.4,1.4c0.1,0.2,0,0.4-0.2,0.7c-0.2,0.2-0.4,0.3-0.7,0.4c-4,1.2-7,1.8-9,1.9h-1.2l-4.5-0.8l-2.3-0.6
		c-0.2,0-0.4-0.2-0.6-0.4l-0.2-0.6l0.1-0.6L68.8,42l-0.3,0.2L66.8,44c-0.4,0.4-0.4,0.9-0.2,1.4l1.6,3l0.3,0.3c0.1,0,0.2-0.1,0.2-0.4
		v-0.4c0-0.5,0.2-0.7,0.6-0.6h0.2l2.6,1.8c2.1,1.2,4,1.9,5.8,2l0,0c1.8,0.1,4.2-0.5,7.2-2l4-2.2h0.3c0.4,0.1,0.7,0.2,0.9,0.5l-0.1,2
		l0.3,0.3c0.1,0.1,0.3-0.1,0.3-0.3l1.1-3.8L92,44.8 M106.8,61.4c7.9,3.1,14.7,7.3,20.3,12.8c3.6,3.5,6.4,7.2,8.3,11.2l0.9,1.8
		c0.3,0.8,0.4,1.4,0.3,1.9l-0.8,2.5c-2.5,7.7-6.3,14-11.6,18.9c-1.4-2-2.9-3.5-4.8-4.5c-2.1-1.2-4.2-1.4-6.3-0.9l-0.4-2.3
		c-0.3-1.4,0.4-3.9,2-7.5c1.2-2.6,2.6-4.8,4.4-6.5c0.2-0.2,0.2-0.6,0-1.2c-0.3-0.6-0.5-0.8-0.6-0.7c-2.2,2-3.8,4.7-5,7.9
		c-0.6,1.6-1.1,3.1-1.3,4.3L109.4,80v-0.2c-0.1-0.5-0.2-0.8-0.5-1s-0.3,0-0.3,0.6l3,21l-3.7,3.5c-3.2,2.6-5.3,4-6.3,4.2
		c-1.1-11.9-3.1-23.2-5.8-34c1.8-1,3.1-1.7,3.9-2.2c1.4-1,2.4-2.2,3.3-3.5c1.3-2.2,1.5-4.8,0.8-8L106.8,61.4 M94.9,73.2
		c2.3,8.7,4,17.9,5.2,27.5l0.3,4l0.5,4c0.2,0.8,0.5,1.3,1,1.3c0.3,0,0.8-0.2,1.6-0.8l1.6-1.1l2.7-2l3.9-3.5l1.5,10.4h-0.1
		c-2.3,3.9-6.8,7.5-13.3,10.8c-5.4,2.7-11,4.3-16.9,4.7c-5.8,0.5-11.1-0.2-16.1-2.1c0.2-0.7,0.3-1.6,0.1-2.6h0.5
		c1.1,0.1,1.9-0.3,2.3-1.3c0.3-0.8,0.4-1.7,0.2-2.8c-0.1-0.7-0.5-1.4-1.2-2l-1.9-1.6l-3.3-2.2c-1.2-0.9-2-1.9-2.3-3.1
		c-0.4-1.2-0.3-2.6,0.3-4.2v2l-0.2-0.1c-0.1-0.1-0.1,0.2-0.1,0.8c0.1,0.6,0.2,1,0.4,1.2l0.4,0.3l0.1,0.1c4.3,2.7,9.5,4.2,15.5,4.6
		l6.8-0.2l2-0.2c0.9-0.1,1.4-0.5,1.6-1c0.2-0.8,0.2-1.8,0.1-3.1l-0.2-3.2l-0.5-8.6c-0.6-7.8-1.6-15.8-3.1-24.2l0.2-1
		c-0.1-0.6-0.3-0.9-0.6-1l-2.5-0.8l-2.6-0.7c-2.4-1-4.5-2.2-6.3-3.9c-2-1.9-3.3-4-3.8-6.3c-0.1-0.4-0.3-0.8-0.6-1
		c-0.3-0.2-0.3,0-0.2,0.6c0.7,3.2,2.3,6,4.8,8.5c1.3,1.2,3,2.4,5,3.4l3.3,1.1l2.9,0.9c2.2,12.1,3.4,24.1,3.6,36c0,1-0.1,1.7-0.4,1.9
		c-0.2,0.2-0.9,0.3-2,0.5l-5.3,0.4c-2.6,0.1-5.5-0.2-8.7-1c-3.1-0.7-5.9-1.8-8.6-3.4c0.2-7.6-0.3-15.2-1.3-23c1.6-1,3.2-2.1,4.6-3.2
		c0.2-0.2,0.2-0.6,0-1.2c-0.2-0.6-0.4-0.8-0.7-0.7c-1.4,1.2-3,2.3-4.6,3.2l-0.2,0.1c-1.1,0.6-2.3,1.2-3.5,1.7
		c-3.1,1.4-6.2,2.3-9.3,2.7l0,0c-1-1.3-2.2-2.4-3.4-3.3c-0.1-0.1-0.1,0.1,0,0.8c0.1,0.6,0.2,1,0.4,1.2c4.2,3.3,7.3,8.7,9.2,16.3
		c-2.3,0.5-4.2,1.9-5.6,4.5c-1,1.7-1.9,4.1-2.6,7.1l-0.9-0.4c-1.1-0.6-2.5-1.5-4-2.7c-4.4-3.6-8-8.4-10.9-14.4
		c-1.4-2.9-2.1-5.5-2.3-7.9c-0.2-2.7,0.4-5.3,1.9-7.8c3.8-6.3,9.7-11.5,17.8-15.7c6.8-3.5,14.5-5.9,23-7.3h0.2l0.1-0.1
		c1.5,1.2,3.2,2.2,5.1,3c0.7,1.6,1.8,2.9,3.3,3.8c1.4,0.8,3,1.3,4.9,1.5c3.7,0.3,7.1-0.6,10.3-2.8c2.5-1.7,4.2-3.7,4.9-6.1l4.1,1.3
		c0.7,2.8,0,5.5-1.9,7.9c-0.7,0.9-1.7,1.7-2.9,2.5c-0.3,0.2-1.5,0.8-3.4,1.8C94.8,72.2,94.8,72.6,94.9,73.2 M113.3,107.2
		c2-0.7,4.1-0.5,6.3,0.6c1.8,1,3.3,2.3,4.5,4.2c0.3,1.6-0.2,3.1-1.5,4.5c-1.3,1.5-2.9,2.3-4.7,2.4c-0.2,0-0.2,0.4,0,1
		c0.1,0.6,0.3,1,0.5,1h0.1h0.1l1.5,0.4c0.9,0.3,1.3,0.6,1.3,0.9c-0.1,1.1-1.1,1.9-2.8,2.3l-3.3,0.2l-0.7-9.1L113.3,107.2
		 M113.7,115.6c1.2,12.4,1.2,23.4,0,32.8c-0.5,3.8-1.3,8.3-2.5,13.4l-3.1,13.2l-0.5,2.1c-0.9,0.7-2.3,1.3-4.2,1.6
		c-2.3,0.5-5,0.5-8.2,0.1l-7.5-1.4c0.4-7.5,0.6-13.2,0.7-17.1c0.1-7.1-0.4-13.1-1.5-18.1l1.9-3.9c1-2,1.9-3.5,2.6-4.5
		c0.1-0.2,0.1-0.6-0.1-1.2c-0.3-0.6-0.4-0.8-0.6-0.7c-1.8,2.6-3.5,5.7-5.2,9.5c-1,2.3-2.3,5.7-3.9,10.1L78.3,162
		c-1.4,4.2-2.6,7.6-3.9,10.2c-1.6,3.4-3.1,6-4.8,7.8c-0.9,1-2.2,1.6-3.9,2h-0.1l-6.2,0.3c-2.3-0.2-4.8-0.9-7.2-2.2l-2-1.3l-0.6-0.5
		l-0.1-1.1c0-2.6,0.6-5.8,1.6-9.6l2.9-9.3c2.1-7.3,3.8-14.9,5.3-23l0.7-3.9v-0.5c2.3,0.4,3.3-0.6,3.2-3.1l1,0.2
		c0.7,0.1,1.3-0.1,1.8-0.3l0.1,0.1c5.3,2.2,11,3.1,17.3,2.6c5.7-0.5,11.4-2.1,17-4.7C106.7,122.9,111.1,119.5,113.7,115.6
		 M108.2,179.2c4.4,1.6,7.9,3.6,10.4,6l0.3-0.3c0.1-0.1,0.2,0,0.3,0.3h-0.4h-0.1l-0.7,0.4c-0.9,0.5-2.1,0.8-3.6,1
		c-3,0.5-6.3,0.3-9.8-0.6c-3.3-0.8-6.4-2.1-9.1-3.8h-0.2l-1,1l-1.9,0.1l-2-0.7c-0.8-0.3-1.3-0.8-1.5-1.3v-1.9
		c5.9,1.3,10.7,1.7,14.4,1.3c2.3-0.2,3.9-0.8,4.8-1.8L108.2,179.2 M74.2,19.9L73.8,20l-3.5,1.8L70,22.1c0,0.1,0.1,0.2,0.4,0.2
		l3.6,0.1c0.3,0,0.5-0.1,0.7-0.3c0.2-0.2,0.3-0.5,0.3-0.8v-0.9C74.8,20.1,74.6,19.9,74.2,19.9 M78.2,31.6c-0.6,0.9-1.8,2.3-3.7,4.3
		l-0.3,0.6l0.1,0.7l1.7,3c0.3,0.3,0.6,0.5,1.1,0.6l1-0.2c0.2,0,0.4-0.1,0.4-0.3c0.1-0.2,0.1-0.4,0-0.6l-1.4-2.2l-0.2-0.7l0.2-0.7
		l2-3.3c0.8-1.3,1.5-2.7,2.1-4.2c0.2-0.5,0.2-0.9-0.1-0.9l0,0c-0.3-0.1-0.6,0.2-0.8,0.6C79.5,29.6,78.8,30.7,78.2,31.6 M88.8,29.9
		l-0.2-0.8c-0.3,0.5-0.5,1-0.5,1.7c-0.1,0.8,0,1.5,0.3,2.1c0.2,0.6,0.6,0.9,1,1l0,0c0.4,0.1,0.8-0.2,1.2-0.7c0.3-0.5,0.6-1.2,0.6-2
		v-1.3L91,30.2c-0.4,0.5-0.8,0.8-1.2,0.7l0,0C89.4,30.8,89.1,30.5,88.8,29.9 M68.1,19.7l-2.8,4.6c-0.7-1.3-1-2.3-1.1-3
		c-0.1-0.9,0-1.7,0.3-2.3c0.3-0.7,0.6-1,1-1l0.7,0.4C66.7,19,67.4,19.4,68.1,19.7 M73,28.6l-0.2,0.3c-0.4,0.5-0.8,0.8-1.2,0.7l0,0
		c-0.4,0-0.8-0.3-1-1l-0.2-0.8c-0.3,0.5-0.5,1-0.5,1.7c-0.1,0.8,0,1.5,0.3,2.1c0.2,0.6,0.6,0.9,1,1l0,0c0.4,0.1,0.8-0.2,1.2-0.7
		c0.3-0.5,0.6-1.2,0.7-2L73,28.6 M68.6,45.6c-0.1-0.5,0.2-0.7,0.8-0.6h0.1l2.4,0.6l4.8,0.8h1.2c2.3,0,5.3-0.6,9-1.8l1-0.1L89,45
		c0.3,0.3,0.4,0.6,0.2,1c-0.2,0.2-0.4,0.4-0.8,0.6c-3.3,1.4-5.5,2.3-6.8,2.6l-4.4,0.3c-1.1-0.1-2-0.3-2.7-0.5l-5.2-2.2
		C69,46.5,68.7,46.1,68.6,45.6 M74.8,53l1.4,0.9l1.1,0.3l1.5-0.1c0.3,0,0.5-0.1,0.6-0.3c0.2-0.2,0.2-0.4,0.2-0.6
		c-0.1-0.4-0.3-0.7-0.9-0.7l-3.9,0.2l-0.4,0.2L74.8,53 M61.3,104.4c-0.7,1.8-1,3.7-0.7,5.7c0.3,2.6,1.5,4.6,3.4,6l2.6,1.6
		c1,0.7,1.9,1.3,2.5,1.9l0.4,0.5c0,0.8-0.4,1.4-1.2,1.7c-1.4,0.6-3.2,0.1-5.5-1.5l-4.5-4c-0.2-0.2-0.3,0-0.2,0.6s0.2,1,0.3,1.2
		l4.2,3.7c1.3,0.9,2.6,1.5,3.8,1.9c0.1,1-0.3,1.7-1.1,2.1c-0.8,0.4-1.9,0.4-3.3,0c-2.3-0.7-4.7-2.3-7.1-5c-0.2-0.2-0.2,0-0.2,0.6
		l0.3,1.2c2.5,2.7,4.9,4.4,7.4,5.2c-0.2,1-0.9,1.5-2,1.4c-1,0-2.3-0.4-3.9-1.2c-3.3-1.6-6-4-8.1-7.3c-0.8-1.2-1.4-2.5-1.9-3.8
		c0.7-2.8,1.5-5,2.4-6.7c1.4-2.5,3.4-3.9,5.7-4.3l0,0l0.2-0.1c1.2-0.8,2.4-1.4,3.6-1.7C59.6,103.9,60.5,104,61.3,104.4 M51.1,181.3
		c1.4,1,3,1.8,4.8,2.3c2,0.7,4.1,1,6.3,0.9l3.1-0.3c-0.5,1.6-1.6,3-3.2,4.2c-1.7,1.3-3.8,2.4-6.5,3.2c-2.9,1-5-0.1-6.3-3.1
		s-0.7-5.4,1.6-7.2L51.1,181.3"/>
</g>
</svg>
